%TF.GenerationSoftware,KiCad,Pcbnew,9.0.1*%
%TF.CreationDate,2025-04-18T11:59:30+09:00*%
%TF.ProjectId,Langstone-controller,4c616e67-7374-46f6-9e65-2d636f6e7472,rev?*%
%TF.SameCoordinates,Original*%
%TF.FileFunction,Copper,L1,Top*%
%TF.FilePolarity,Positive*%
%FSLAX46Y46*%
G04 Gerber Fmt 4.6, Leading zero omitted, Abs format (unit mm)*
G04 Created by KiCad (PCBNEW 9.0.1) date 2025-04-18 11:59:30*
%MOMM*%
%LPD*%
G01*
G04 APERTURE LIST*
G04 Aperture macros list*
%AMRoundRect*
0 Rectangle with rounded corners*
0 $1 Rounding radius*
0 $2 $3 $4 $5 $6 $7 $8 $9 X,Y pos of 4 corners*
0 Add a 4 corners polygon primitive as box body*
4,1,4,$2,$3,$4,$5,$6,$7,$8,$9,$2,$3,0*
0 Add four circle primitives for the rounded corners*
1,1,$1+$1,$2,$3*
1,1,$1+$1,$4,$5*
1,1,$1+$1,$6,$7*
1,1,$1+$1,$8,$9*
0 Add four rect primitives between the rounded corners*
20,1,$1+$1,$2,$3,$4,$5,0*
20,1,$1+$1,$4,$5,$6,$7,0*
20,1,$1+$1,$6,$7,$8,$9,0*
20,1,$1+$1,$8,$9,$2,$3,0*%
G04 Aperture macros list end*
%TA.AperFunction,ComponentPad*%
%ADD10RoundRect,0.250000X-0.845000X0.620000X-0.845000X-0.620000X0.845000X-0.620000X0.845000X0.620000X0*%
%TD*%
%TA.AperFunction,ComponentPad*%
%ADD11O,2.190000X1.740000*%
%TD*%
%TA.AperFunction,ComponentPad*%
%ADD12R,1.600000X1.600000*%
%TD*%
%TA.AperFunction,ComponentPad*%
%ADD13O,1.600000X1.600000*%
%TD*%
%TA.AperFunction,ComponentPad*%
%ADD14C,1.600000*%
%TD*%
%TA.AperFunction,ComponentPad*%
%ADD15C,2.600000*%
%TD*%
%TA.AperFunction,ComponentPad*%
%ADD16RoundRect,0.250000X0.845000X-0.620000X0.845000X0.620000X-0.845000X0.620000X-0.845000X-0.620000X0*%
%TD*%
%TA.AperFunction,ComponentPad*%
%ADD17C,5.000000*%
%TD*%
%TA.AperFunction,ComponentPad*%
%ADD18R,1.500000X1.600000*%
%TD*%
%TA.AperFunction,ComponentPad*%
%ADD19C,3.000000*%
%TD*%
%TA.AperFunction,ComponentPad*%
%ADD20RoundRect,0.250000X0.550000X-0.550000X0.550000X0.550000X-0.550000X0.550000X-0.550000X-0.550000X0*%
%TD*%
%TA.AperFunction,Conductor*%
%ADD21C,2.000000*%
%TD*%
%TA.AperFunction,Conductor*%
%ADD22C,1.000000*%
%TD*%
%TA.AperFunction,Conductor*%
%ADD23C,0.250000*%
%TD*%
G04 APERTURE END LIST*
D10*
%TO.P,J6,1,Pin_1*%
%TO.N,GND*%
X113980000Y-114225000D03*
D11*
%TO.P,J6,2,Pin_2*%
%TO.N,Net-(D1-K)*%
X113980000Y-116765000D03*
%TD*%
D12*
%TO.P,D1,1,K*%
%TO.N,Net-(D1-K)*%
X121000000Y-107310000D03*
D13*
%TO.P,D1,2,A*%
%TO.N,Net-(D1-A)*%
X121000000Y-99690000D03*
%TD*%
D12*
%TO.P,C6,1*%
%TO.N,Net-(C5-Pad1)*%
X147000000Y-102317600D03*
D14*
%TO.P,C6,2*%
%TO.N,GND*%
X147000000Y-104817600D03*
%TD*%
D15*
%TO.P,L2,1,1*%
%TO.N,Net-(J1-VBUS)*%
X133000000Y-104000000D03*
%TO.P,L2,2,2*%
%TO.N,Net-(C5-Pad1)*%
X138000000Y-104000000D03*
%TD*%
D16*
%TO.P,J4,1,Pin_1*%
%TO.N,Net-(J4-Pin_1)*%
X164500000Y-124620000D03*
D11*
%TO.P,J4,2,Pin_2*%
%TO.N,Net-(J4-Pin_2)*%
X164500000Y-122080000D03*
%TO.P,J4,3,Pin_3*%
%TO.N,GND*%
X164500000Y-119540000D03*
%TO.P,J4,4,Pin_4*%
%TO.N,Net-(J4-Pin_4)*%
X164500000Y-117000000D03*
%TD*%
D14*
%TO.P,R1,1*%
%TO.N,Net-(D1-A)*%
X126500000Y-105815000D03*
D13*
%TO.P,R1,2*%
%TO.N,Net-(J1-VBUS)*%
X126500000Y-100735000D03*
%TD*%
D15*
%TO.P,L1,1,1*%
%TO.N,+5V*%
X129500000Y-86500000D03*
%TO.P,L1,2,2*%
%TO.N,Net-(J1-VBUS)*%
X134500000Y-86500000D03*
%TD*%
D12*
%TO.P,C3,1*%
%TO.N,Net-(J1-VBUS)*%
X142000000Y-85000000D03*
D14*
%TO.P,C3,2*%
%TO.N,GND*%
X142000000Y-87500000D03*
%TD*%
%TO.P,R2,1*%
%TO.N,Net-(J4-Pin_2)*%
X147500000Y-122080000D03*
D13*
%TO.P,R2,2*%
%TO.N,Net-(J4-Pin_1)*%
X147500000Y-117000000D03*
%TD*%
D17*
%TO.P,H3,1,1*%
%TO.N,+5V*%
X114000000Y-87000000D03*
%TD*%
D14*
%TO.P,C4,1*%
%TO.N,Net-(J1-VBUS)*%
X148000000Y-84000000D03*
%TO.P,C4,2*%
%TO.N,GND*%
X148000000Y-89000000D03*
%TD*%
D18*
%TO.P,J1,1,VBUS*%
%TO.N,Net-(J1-VBUS)*%
X154640000Y-92000000D03*
D14*
%TO.P,J1,2,D-*%
%TO.N,unconnected-(J1-D--Pad2)*%
X154640000Y-89500000D03*
%TO.P,J1,3,D+*%
%TO.N,unconnected-(J1-D+-Pad3)*%
X154640000Y-87500000D03*
%TO.P,J1,4,GND*%
%TO.N,GND*%
X154640000Y-85000000D03*
D19*
%TO.P,J1,5,Shield*%
X157350000Y-95070000D03*
X157350000Y-81930000D03*
%TD*%
D16*
%TO.P,J5,1,Pin_1*%
%TO.N,Net-(J4-Pin_4)*%
X164520000Y-111000000D03*
D11*
%TO.P,J5,2,Pin_2*%
%TO.N,GND*%
X164520000Y-108460000D03*
%TD*%
D20*
%TO.P,U1,1*%
%TO.N,Net-(D1-A)*%
X129190000Y-123805000D03*
D14*
%TO.P,U1,2*%
%TO.N,GND*%
X131730000Y-123805000D03*
%TO.P,U1,3*%
%TO.N,Net-(J4-Pin_2)*%
X134270000Y-123805000D03*
%TO.P,U1,4*%
%TO.N,GND*%
X136810000Y-123805000D03*
%TO.P,U1,5*%
X136810000Y-116185000D03*
%TO.P,U1,6*%
%TO.N,Net-(D1-K)*%
X134270000Y-116185000D03*
%TO.P,U1,7*%
%TO.N,Net-(J3-Pin_1)*%
X131730000Y-116185000D03*
%TO.P,U1,8*%
%TO.N,Net-(C5-Pad1)*%
X129190000Y-116185000D03*
%TD*%
%TO.P,C1,1*%
%TO.N,+5V*%
X114000000Y-93500000D03*
%TO.P,C1,2*%
%TO.N,GND*%
X114000000Y-98500000D03*
%TD*%
D16*
%TO.P,J3,1,Pin_1*%
%TO.N,Net-(J3-Pin_1)*%
X164500000Y-102540000D03*
D11*
%TO.P,J3,2,Pin_2*%
%TO.N,GND*%
X164500000Y-100000000D03*
%TD*%
D12*
%TO.P,C2,1*%
%TO.N,+5V*%
X122000000Y-85317600D03*
D14*
%TO.P,C2,2*%
%TO.N,GND*%
X122000000Y-87817600D03*
%TD*%
D17*
%TO.P,H4,1,1*%
%TO.N,GND*%
X114000000Y-104000000D03*
%TD*%
D14*
%TO.P,C5,1*%
%TO.N,Net-(C5-Pad1)*%
X155000000Y-101500000D03*
%TO.P,C5,2*%
%TO.N,GND*%
X155000000Y-106500000D03*
%TD*%
%TO.P,R3,1*%
%TO.N,Net-(J4-Pin_4)*%
X142500000Y-117500000D03*
D13*
%TO.P,R3,2*%
%TO.N,Net-(J4-Pin_1)*%
X142500000Y-122580000D03*
%TD*%
D21*
%TO.N,GND*%
X152000000Y-85000000D02*
X154640000Y-85000000D01*
D22*
X148682400Y-106500000D02*
X147000000Y-104817600D01*
X160708300Y-98428300D02*
X157350000Y-95070000D01*
D21*
X140010200Y-90500000D02*
X142000000Y-88510200D01*
D22*
X164500000Y-100000000D02*
X164500000Y-98428300D01*
D21*
X142000000Y-88510200D02*
X143989800Y-90500000D01*
X148000000Y-89000000D02*
X152000000Y-85000000D01*
X143989800Y-90500000D02*
X146500000Y-90500000D01*
X142000000Y-88510200D02*
X142000000Y-87500000D01*
X146500000Y-90500000D02*
X148000000Y-89000000D01*
X122000000Y-87817600D02*
X124182400Y-90000000D01*
X124182400Y-90000000D02*
X124682400Y-90500000D01*
X124682400Y-90500000D02*
X140010200Y-90500000D01*
D22*
X155000000Y-106500000D02*
X148682400Y-106500000D01*
X164500000Y-98428300D02*
X160708300Y-98428300D01*
D21*
%TO.N,+5V*%
X120682400Y-84000000D02*
X122000000Y-85317600D01*
D22*
X114000000Y-87000000D02*
X115682400Y-85317600D01*
D21*
X122000000Y-85317600D02*
X128317600Y-85317600D01*
X115682400Y-85317600D02*
X117000000Y-84000000D01*
X128317600Y-85317600D02*
X129500000Y-86500000D01*
X117000000Y-84000000D02*
X120682400Y-84000000D01*
%TO.N,Net-(J1-VBUS)*%
X136000000Y-85000000D02*
X142000000Y-85000000D01*
X144126700Y-84000000D02*
X143126700Y-85000000D01*
X148000000Y-84000000D02*
X144126700Y-84000000D01*
D23*
X142000000Y-85000000D02*
X143126700Y-85000000D01*
D21*
X134500000Y-86500000D02*
X136000000Y-85000000D01*
X129735000Y-100735000D02*
X133000000Y-104000000D01*
X126500000Y-100735000D02*
X129735000Y-100735000D01*
D22*
%TO.N,Net-(C5-Pad1)*%
X139682400Y-102317600D02*
X138000000Y-104000000D01*
X147000000Y-102317600D02*
X139682400Y-102317600D01*
X155000000Y-101500000D02*
X154182400Y-102317600D01*
X154182400Y-102317600D02*
X147000000Y-102317600D01*
D23*
%TO.N,Net-(D1-K)*%
X128000000Y-118500000D02*
X122000000Y-112500000D01*
X134270000Y-116185000D02*
X131955000Y-118500000D01*
X121000000Y-112500000D02*
X121000000Y-107310000D01*
X131955000Y-118500000D02*
X128000000Y-118500000D01*
X122000000Y-112500000D02*
X121000000Y-112500000D01*
%TO.N,Net-(J4-Pin_4)*%
X144196700Y-115803300D02*
X164500000Y-115803300D01*
X164500000Y-117000000D02*
X164500000Y-115803300D01*
X164500000Y-111020000D02*
X164500000Y-115803300D01*
X142500000Y-117500000D02*
X144196700Y-115803300D01*
X164520000Y-111000000D02*
X164500000Y-111020000D01*
X164520000Y-116980000D02*
X164500000Y-117000000D01*
D22*
%TO.N,Net-(J3-Pin_1)*%
X138886600Y-109028400D02*
X158011600Y-109028400D01*
X158011600Y-109028400D02*
X164500000Y-102540000D01*
X131730000Y-116185000D02*
X138886600Y-109028400D01*
D23*
%TO.N,Net-(J4-Pin_2)*%
X161158000Y-124500000D02*
X163578000Y-122080000D01*
X134270000Y-123805000D02*
X136632500Y-121442500D01*
X146862500Y-121442500D02*
X147500000Y-122080000D01*
X163578000Y-122080000D02*
X165000000Y-122080000D01*
X136632500Y-121442500D02*
X146862500Y-121442500D01*
X147500000Y-122080000D02*
X149920000Y-124500000D01*
X149920000Y-124500000D02*
X161158000Y-124500000D01*
%TO.N,Net-(J4-Pin_1)*%
X142500000Y-122580000D02*
X143626700Y-122580000D01*
X163120000Y-126000000D02*
X164500000Y-124620000D01*
X164560000Y-124680000D02*
X164500000Y-124620000D01*
X164560000Y-125060000D02*
X164120000Y-125500000D01*
X164560000Y-125060000D02*
X164560000Y-124680000D01*
X165000000Y-124620000D02*
X164560000Y-125060000D01*
X143626700Y-122580000D02*
X147046700Y-126000000D01*
X147046700Y-126000000D02*
X163120000Y-126000000D01*
%TD*%
%TA.AperFunction,Conductor*%
%TO.N,GND*%
G36*
X167377098Y-79498912D02*
G01*
X167443960Y-79519189D01*
X167489246Y-79572396D01*
X167500000Y-79622907D01*
X167500000Y-126877092D01*
X167480315Y-126944131D01*
X167427511Y-126989886D01*
X167377097Y-127001087D01*
X111125097Y-127498892D01*
X111057886Y-127479802D01*
X111011666Y-127427405D01*
X111000000Y-127374897D01*
X111000000Y-123204447D01*
X127881500Y-123204447D01*
X127881500Y-124405537D01*
X127881501Y-124405553D01*
X127892113Y-124509427D01*
X127901966Y-124539162D01*
X127947885Y-124677738D01*
X128040970Y-124828652D01*
X128166348Y-124954030D01*
X128317262Y-125047115D01*
X128485574Y-125102887D01*
X128589455Y-125113500D01*
X129790544Y-125113499D01*
X129894426Y-125102887D01*
X130062738Y-125047115D01*
X130213652Y-124954030D01*
X130339030Y-124828652D01*
X130432115Y-124677738D01*
X130460507Y-124592054D01*
X130464066Y-124584715D01*
X130482278Y-124564652D01*
X130497706Y-124542369D01*
X130505417Y-124539162D01*
X130511028Y-124532982D01*
X130537195Y-124525950D01*
X130562222Y-124515545D01*
X130570441Y-124517016D01*
X130578504Y-124514850D01*
X130604321Y-124523082D01*
X130630998Y-124527859D01*
X130632985Y-124529541D01*
X130650524Y-124530922D01*
X131330000Y-123851446D01*
X131330000Y-123857661D01*
X131357259Y-123959394D01*
X131409920Y-124050606D01*
X131484394Y-124125080D01*
X131575606Y-124177741D01*
X131677339Y-124205000D01*
X131683553Y-124205000D01*
X131004076Y-124884474D01*
X131048650Y-124916859D01*
X131230968Y-125009755D01*
X131425582Y-125072990D01*
X131627683Y-125105000D01*
X131832317Y-125105000D01*
X132034417Y-125072990D01*
X132229031Y-125009755D01*
X132411349Y-124916859D01*
X132455921Y-124884474D01*
X131776447Y-124205000D01*
X131782661Y-124205000D01*
X131884394Y-124177741D01*
X131975606Y-124125080D01*
X132050080Y-124050606D01*
X132102741Y-123959394D01*
X132130000Y-123857661D01*
X132130000Y-123851447D01*
X132809474Y-124530921D01*
X132841861Y-124486347D01*
X132841861Y-124486346D01*
X132884745Y-124402181D01*
X132932718Y-124351385D01*
X133000539Y-124334589D01*
X133066674Y-124357126D01*
X133105715Y-124402180D01*
X133148602Y-124486350D01*
X133150873Y-124490806D01*
X133271926Y-124657423D01*
X133271930Y-124657428D01*
X133417571Y-124803069D01*
X133417576Y-124803073D01*
X133529616Y-124884474D01*
X133584197Y-124924129D01*
X133701128Y-124983709D01*
X133767705Y-125017632D01*
X133767707Y-125017632D01*
X133767710Y-125017634D01*
X133858437Y-125047113D01*
X133963591Y-125081280D01*
X134065305Y-125097390D01*
X134167019Y-125113500D01*
X134167020Y-125113500D01*
X134372980Y-125113500D01*
X134372981Y-125113500D01*
X134576408Y-125081280D01*
X134772290Y-125017634D01*
X134955803Y-124924129D01*
X135122430Y-124803068D01*
X135268068Y-124657430D01*
X135389129Y-124490803D01*
X135434284Y-124402180D01*
X135482258Y-124351384D01*
X135550079Y-124334589D01*
X135616214Y-124357126D01*
X135655254Y-124402180D01*
X135698141Y-124486350D01*
X135698147Y-124486359D01*
X135730523Y-124530921D01*
X135730524Y-124530922D01*
X136410000Y-123851446D01*
X136410000Y-123857661D01*
X136437259Y-123959394D01*
X136489920Y-124050606D01*
X136564394Y-124125080D01*
X136655606Y-124177741D01*
X136757339Y-124205000D01*
X136763553Y-124205000D01*
X136084076Y-124884474D01*
X136128650Y-124916859D01*
X136310968Y-125009755D01*
X136505582Y-125072990D01*
X136707683Y-125105000D01*
X136912317Y-125105000D01*
X137114417Y-125072990D01*
X137309031Y-125009755D01*
X137491349Y-124916859D01*
X137535921Y-124884474D01*
X136856447Y-124205000D01*
X136862661Y-124205000D01*
X136964394Y-124177741D01*
X137055606Y-124125080D01*
X137130080Y-124050606D01*
X137182741Y-123959394D01*
X137210000Y-123857661D01*
X137210000Y-123851447D01*
X137889474Y-124530921D01*
X137921859Y-124486349D01*
X138014755Y-124304031D01*
X138077990Y-124109417D01*
X138110000Y-123907317D01*
X138110000Y-123702682D01*
X138077990Y-123500582D01*
X138014755Y-123305968D01*
X137921859Y-123123650D01*
X137889474Y-123079077D01*
X137889474Y-123079076D01*
X137210000Y-123758551D01*
X137210000Y-123752339D01*
X137182741Y-123650606D01*
X137130080Y-123559394D01*
X137055606Y-123484920D01*
X136964394Y-123432259D01*
X136862661Y-123405000D01*
X136856446Y-123405000D01*
X137535922Y-122725524D01*
X137535921Y-122725523D01*
X137491359Y-122693147D01*
X137491350Y-122693141D01*
X137309031Y-122600244D01*
X137114417Y-122537009D01*
X136912317Y-122505000D01*
X136765266Y-122505000D01*
X136698227Y-122485315D01*
X136652472Y-122432511D01*
X136642528Y-122363353D01*
X136671553Y-122299797D01*
X136677575Y-122293328D01*
X136858586Y-122112319D01*
X136919909Y-122078834D01*
X136946267Y-122076000D01*
X141117250Y-122076000D01*
X141184289Y-122095685D01*
X141230044Y-122148489D01*
X141239988Y-122217647D01*
X141235181Y-122238319D01*
X141223719Y-122273591D01*
X141191500Y-122477019D01*
X141191500Y-122682980D01*
X141223719Y-122886403D01*
X141223719Y-122886408D01*
X141287367Y-123082294D01*
X141322170Y-123150597D01*
X141374808Y-123253904D01*
X141380873Y-123265806D01*
X141501926Y-123432423D01*
X141501930Y-123432428D01*
X141647571Y-123578069D01*
X141647576Y-123578073D01*
X141784102Y-123677264D01*
X141814197Y-123699129D01*
X141918627Y-123752339D01*
X141997705Y-123792632D01*
X141997707Y-123792632D01*
X141997710Y-123792634D01*
X142035766Y-123804999D01*
X142193591Y-123856280D01*
X142258118Y-123866500D01*
X142397019Y-123888500D01*
X142397020Y-123888500D01*
X142602980Y-123888500D01*
X142602981Y-123888500D01*
X142806408Y-123856280D01*
X143002290Y-123792634D01*
X143185803Y-123699129D01*
X143352430Y-123578068D01*
X143452966Y-123477532D01*
X143514289Y-123444047D01*
X143583981Y-123449031D01*
X143628328Y-123477532D01*
X146554629Y-126403833D01*
X146642867Y-126492071D01*
X146642868Y-126492072D01*
X146746618Y-126561396D01*
X146746624Y-126561399D01*
X146746625Y-126561400D01*
X146861915Y-126609155D01*
X146984301Y-126633499D01*
X146984305Y-126633500D01*
X146984306Y-126633500D01*
X163182395Y-126633500D01*
X163182396Y-126633499D01*
X163304785Y-126609155D01*
X163420075Y-126561400D01*
X163523833Y-126492071D01*
X163864607Y-126151295D01*
X163925926Y-126117813D01*
X163976474Y-126117362D01*
X164057604Y-126133499D01*
X164057605Y-126133500D01*
X164057606Y-126133500D01*
X164182395Y-126133500D01*
X164182396Y-126133499D01*
X164304785Y-126109155D01*
X164420075Y-126061400D01*
X164482936Y-126019396D01*
X164549613Y-125998519D01*
X164551827Y-125998499D01*
X165395537Y-125998499D01*
X165395544Y-125998499D01*
X165499426Y-125987887D01*
X165667738Y-125932115D01*
X165818652Y-125839030D01*
X165944030Y-125713652D01*
X166037115Y-125562738D01*
X166092887Y-125394426D01*
X166103500Y-125290545D01*
X166103499Y-123949456D01*
X166092887Y-123845574D01*
X166037115Y-123677262D01*
X165944030Y-123526348D01*
X165818652Y-123400970D01*
X165818648Y-123400967D01*
X165664444Y-123305852D01*
X165617719Y-123253904D01*
X165606498Y-123184942D01*
X165634341Y-123120860D01*
X165641838Y-123112655D01*
X165776461Y-122978033D01*
X165903999Y-122802492D01*
X166002506Y-122609160D01*
X166069557Y-122402800D01*
X166087790Y-122287681D01*
X166103500Y-122188495D01*
X166103500Y-121971504D01*
X166069557Y-121757203D01*
X166069557Y-121757202D01*
X166069557Y-121757200D01*
X166002506Y-121550840D01*
X165903999Y-121357508D01*
X165776461Y-121181967D01*
X165623033Y-121028539D01*
X165453083Y-120905063D01*
X165410419Y-120849734D01*
X165404440Y-120780121D01*
X165437046Y-120718326D01*
X165453085Y-120704428D01*
X165617491Y-120584979D01*
X165617497Y-120584974D01*
X165769974Y-120432497D01*
X165769974Y-120432496D01*
X165896728Y-120258036D01*
X165994627Y-120065901D01*
X166061266Y-119860809D01*
X166072481Y-119790000D01*
X165042709Y-119790000D01*
X165054452Y-119769661D01*
X165095000Y-119618333D01*
X165095000Y-119461667D01*
X165054452Y-119310339D01*
X165042709Y-119290000D01*
X166072481Y-119290000D01*
X166061266Y-119219190D01*
X165994627Y-119014098D01*
X165896728Y-118821963D01*
X165769974Y-118647503D01*
X165769974Y-118647502D01*
X165617497Y-118495025D01*
X165453084Y-118375571D01*
X165410419Y-118320241D01*
X165404440Y-118250627D01*
X165437046Y-118188832D01*
X165453081Y-118174937D01*
X165623033Y-118051461D01*
X165776461Y-117898033D01*
X165903999Y-117722492D01*
X166002506Y-117529160D01*
X166069557Y-117322800D01*
X166084642Y-117227551D01*
X166103500Y-117108495D01*
X166103500Y-116891504D01*
X166072152Y-116693587D01*
X166069557Y-116677200D01*
X166002506Y-116470840D01*
X165903999Y-116277508D01*
X165776461Y-116101967D01*
X165623033Y-115948539D01*
X165447492Y-115821001D01*
X165376836Y-115785000D01*
X165254163Y-115722495D01*
X165219178Y-115711127D01*
X165161504Y-115671688D01*
X165134308Y-115607328D01*
X165133500Y-115593197D01*
X165133500Y-112502499D01*
X165153185Y-112435460D01*
X165205989Y-112389705D01*
X165257500Y-112378499D01*
X165415537Y-112378499D01*
X165415544Y-112378499D01*
X165519426Y-112367887D01*
X165687738Y-112312115D01*
X165838652Y-112219030D01*
X165964030Y-112093652D01*
X166057115Y-111942738D01*
X166112887Y-111774426D01*
X166123500Y-111670545D01*
X166123499Y-110329456D01*
X166112887Y-110225574D01*
X166057115Y-110057262D01*
X165964030Y-109906348D01*
X165838652Y-109780970D01*
X165687738Y-109687885D01*
X165687736Y-109687884D01*
X165681591Y-109684094D01*
X165682484Y-109682644D01*
X165636783Y-109642395D01*
X165617639Y-109575199D01*
X165637863Y-109508320D01*
X165653954Y-109488516D01*
X165789977Y-109352493D01*
X165916728Y-109178036D01*
X166014627Y-108985901D01*
X166081266Y-108780809D01*
X166092481Y-108710000D01*
X165062709Y-108710000D01*
X165074452Y-108689661D01*
X165115000Y-108538333D01*
X165115000Y-108381667D01*
X165074452Y-108230339D01*
X165062709Y-108210000D01*
X166092481Y-108210000D01*
X166081266Y-108139190D01*
X166014627Y-107934098D01*
X165916728Y-107741963D01*
X165789974Y-107567503D01*
X165789974Y-107567502D01*
X165637497Y-107415025D01*
X165463036Y-107288271D01*
X165270901Y-107190372D01*
X165065809Y-107123734D01*
X164852820Y-107090000D01*
X164770000Y-107090000D01*
X164770000Y-107917290D01*
X164749661Y-107905548D01*
X164598333Y-107865000D01*
X164441667Y-107865000D01*
X164290339Y-107905548D01*
X164270000Y-107917290D01*
X164270000Y-107090000D01*
X164187180Y-107090000D01*
X163974190Y-107123734D01*
X163769098Y-107190372D01*
X163576963Y-107288271D01*
X163402503Y-107415025D01*
X163402502Y-107415025D01*
X163250025Y-107567502D01*
X163250025Y-107567503D01*
X163123271Y-107741963D01*
X163025372Y-107934098D01*
X162958733Y-108139190D01*
X162947519Y-108210000D01*
X163977291Y-108210000D01*
X163965548Y-108230339D01*
X163925000Y-108381667D01*
X163925000Y-108538333D01*
X163965548Y-108689661D01*
X163977291Y-108710000D01*
X162947519Y-108710000D01*
X162958733Y-108780809D01*
X163025372Y-108985901D01*
X163123271Y-109178036D01*
X163250025Y-109352496D01*
X163250025Y-109352497D01*
X163386045Y-109488517D01*
X163419530Y-109549840D01*
X163414546Y-109619532D01*
X163372674Y-109675465D01*
X163358370Y-109684031D01*
X163358409Y-109684094D01*
X163352263Y-109687884D01*
X163352262Y-109687885D01*
X163250015Y-109750951D01*
X163201346Y-109780971D01*
X163075971Y-109906346D01*
X162982886Y-110057259D01*
X162982884Y-110057264D01*
X162927113Y-110225572D01*
X162916500Y-110329447D01*
X162916500Y-111670537D01*
X162916501Y-111670553D01*
X162927113Y-111774427D01*
X162951100Y-111846815D01*
X162982885Y-111942738D01*
X163075970Y-112093652D01*
X163201348Y-112219030D01*
X163352262Y-112312115D01*
X163520574Y-112367887D01*
X163624455Y-112378500D01*
X163742500Y-112378499D01*
X163809539Y-112398183D01*
X163855294Y-112450987D01*
X163866500Y-112502499D01*
X163866500Y-115045800D01*
X163846815Y-115112839D01*
X163794011Y-115158594D01*
X163742500Y-115169800D01*
X144134301Y-115169800D01*
X144011922Y-115194143D01*
X144011914Y-115194145D01*
X143896627Y-115241898D01*
X143896618Y-115241903D01*
X143792867Y-115311228D01*
X143792863Y-115311231D01*
X142914937Y-116189157D01*
X142853614Y-116222642D01*
X142807858Y-116223949D01*
X142642641Y-116197781D01*
X142602981Y-116191500D01*
X142397019Y-116191500D01*
X142372550Y-116195375D01*
X142193591Y-116223719D01*
X141997705Y-116287367D01*
X141814193Y-116380873D01*
X141647576Y-116501926D01*
X141647571Y-116501930D01*
X141501930Y-116647571D01*
X141501926Y-116647576D01*
X141380873Y-116814193D01*
X141287367Y-116997705D01*
X141223719Y-117193591D01*
X141191500Y-117397019D01*
X141191500Y-117602980D01*
X141223719Y-117806408D01*
X141287367Y-118002294D01*
X141346897Y-118119126D01*
X141378506Y-118181162D01*
X141380873Y-118185806D01*
X141501926Y-118352423D01*
X141501930Y-118352428D01*
X141647571Y-118498069D01*
X141647576Y-118498073D01*
X141792908Y-118603661D01*
X141814197Y-118619129D01*
X141931128Y-118678709D01*
X141997705Y-118712632D01*
X141997707Y-118712632D01*
X141997710Y-118712634D01*
X142102707Y-118746749D01*
X142193591Y-118776280D01*
X142295305Y-118792390D01*
X142397019Y-118808500D01*
X142397020Y-118808500D01*
X142602980Y-118808500D01*
X142602981Y-118808500D01*
X142806408Y-118776280D01*
X143002290Y-118712634D01*
X143185803Y-118619129D01*
X143352430Y-118498068D01*
X143498068Y-118352430D01*
X143619129Y-118185803D01*
X143712634Y-118002290D01*
X143776280Y-117806408D01*
X143808500Y-117602981D01*
X143808500Y-117397019D01*
X143796744Y-117322796D01*
X143776050Y-117192139D01*
X143785005Y-117122845D01*
X143810839Y-117085063D01*
X144422785Y-116473119D01*
X144484108Y-116439634D01*
X144510466Y-116436800D01*
X146136485Y-116436800D01*
X146203524Y-116456485D01*
X146249279Y-116509289D01*
X146259223Y-116578447D01*
X146254416Y-116599118D01*
X146223720Y-116693587D01*
X146223720Y-116693590D01*
X146191500Y-116897019D01*
X146191500Y-117102980D01*
X146223719Y-117306408D01*
X146287367Y-117502294D01*
X146338670Y-117602980D01*
X146376348Y-117676927D01*
X146380873Y-117685806D01*
X146501926Y-117852423D01*
X146501930Y-117852428D01*
X146647571Y-117998069D01*
X146647576Y-117998073D01*
X146721062Y-118051463D01*
X146814197Y-118119129D01*
X146923722Y-118174935D01*
X146997705Y-118212632D01*
X146997707Y-118212632D01*
X146997710Y-118212634D01*
X147051973Y-118230265D01*
X147193591Y-118276280D01*
X147295305Y-118292390D01*
X147397019Y-118308500D01*
X147397020Y-118308500D01*
X147602980Y-118308500D01*
X147602981Y-118308500D01*
X147806408Y-118276280D01*
X148002290Y-118212634D01*
X148185803Y-118119129D01*
X148352430Y-117998068D01*
X148498068Y-117852430D01*
X148619129Y-117685803D01*
X148712634Y-117502290D01*
X148776280Y-117306408D01*
X148808500Y-117102981D01*
X148808500Y-116897019D01*
X148776280Y-116693592D01*
X148776279Y-116693588D01*
X148776279Y-116693587D01*
X148745584Y-116599118D01*
X148743589Y-116529277D01*
X148779669Y-116469444D01*
X148842370Y-116438616D01*
X148863515Y-116436800D01*
X162837883Y-116436800D01*
X162904922Y-116456485D01*
X162950677Y-116509289D01*
X162960621Y-116578447D01*
X162955815Y-116599113D01*
X162940070Y-116647571D01*
X162930442Y-116677203D01*
X162896500Y-116891504D01*
X162896500Y-117108495D01*
X162930442Y-117322796D01*
X162930443Y-117322800D01*
X162997494Y-117529160D01*
X163096001Y-117722492D01*
X163223539Y-117898033D01*
X163376967Y-118051461D01*
X163376970Y-118051463D01*
X163546914Y-118174935D01*
X163589580Y-118230265D01*
X163595559Y-118299878D01*
X163562953Y-118361673D01*
X163546915Y-118375571D01*
X163382503Y-118495024D01*
X163230025Y-118647502D01*
X163230025Y-118647503D01*
X163103271Y-118821963D01*
X163005372Y-119014098D01*
X162938733Y-119219190D01*
X162927519Y-119290000D01*
X163957291Y-119290000D01*
X163945548Y-119310339D01*
X163905000Y-119461667D01*
X163905000Y-119618333D01*
X163945548Y-119769661D01*
X163957291Y-119790000D01*
X162927519Y-119790000D01*
X162938733Y-119860809D01*
X163005372Y-120065901D01*
X163103271Y-120258036D01*
X163230025Y-120432496D01*
X163230025Y-120432497D01*
X163382502Y-120584974D01*
X163546915Y-120704428D01*
X163589580Y-120759758D01*
X163595559Y-120829372D01*
X163562953Y-120891167D01*
X163546915Y-120905064D01*
X163484475Y-120950430D01*
X163376967Y-121028539D01*
X163376965Y-121028541D01*
X163376964Y-121028541D01*
X163223541Y-121181964D01*
X163223541Y-121181965D01*
X163223539Y-121181967D01*
X163190406Y-121227571D01*
X163096001Y-121357507D01*
X162997495Y-121550837D01*
X162930442Y-121757202D01*
X162922733Y-121805872D01*
X162892802Y-121869007D01*
X162887941Y-121874153D01*
X160931915Y-123830181D01*
X160870592Y-123863666D01*
X160844234Y-123866500D01*
X150233766Y-123866500D01*
X150166727Y-123846815D01*
X150146085Y-123830181D01*
X148810842Y-122494938D01*
X148777357Y-122433615D01*
X148776050Y-122387859D01*
X148779932Y-122363353D01*
X148808500Y-122182981D01*
X148808500Y-121977019D01*
X148807627Y-121971504D01*
X148776280Y-121773591D01*
X148740419Y-121663224D01*
X148712634Y-121577710D01*
X148712632Y-121577707D01*
X148712632Y-121577705D01*
X148678709Y-121511128D01*
X148619129Y-121394197D01*
X148592472Y-121357507D01*
X148498073Y-121227576D01*
X148498069Y-121227571D01*
X148352428Y-121081930D01*
X148352423Y-121081926D01*
X148185806Y-120960873D01*
X148185805Y-120960872D01*
X148185803Y-120960871D01*
X148128496Y-120931671D01*
X148002294Y-120867367D01*
X147806408Y-120803719D01*
X147630794Y-120775905D01*
X147602981Y-120771500D01*
X147397019Y-120771500D01*
X147369205Y-120775905D01*
X147193592Y-120803719D01*
X147112251Y-120830148D01*
X147049744Y-120833834D01*
X147020106Y-120827938D01*
X146924894Y-120809000D01*
X136570106Y-120809000D01*
X136570102Y-120809000D01*
X136447719Y-120833343D01*
X136447714Y-120833345D01*
X136413948Y-120847329D01*
X136413949Y-120847330D01*
X136332426Y-120881098D01*
X136332422Y-120881100D01*
X136228671Y-120950424D01*
X136228663Y-120950430D01*
X134684937Y-122494157D01*
X134623614Y-122527642D01*
X134577858Y-122528949D01*
X134412641Y-122502781D01*
X134372981Y-122496500D01*
X134167019Y-122496500D01*
X134142550Y-122500375D01*
X133963591Y-122528719D01*
X133767705Y-122592367D01*
X133584193Y-122685873D01*
X133417576Y-122806926D01*
X133417571Y-122806930D01*
X133271930Y-122952571D01*
X133271926Y-122952576D01*
X133150871Y-123119195D01*
X133105714Y-123207820D01*
X133057740Y-123258615D01*
X132989918Y-123275410D01*
X132923784Y-123252872D01*
X132884745Y-123207818D01*
X132841861Y-123123652D01*
X132809474Y-123079077D01*
X132809474Y-123079076D01*
X132130000Y-123758551D01*
X132130000Y-123752339D01*
X132102741Y-123650606D01*
X132050080Y-123559394D01*
X131975606Y-123484920D01*
X131884394Y-123432259D01*
X131782661Y-123405000D01*
X131776446Y-123405000D01*
X132455922Y-122725524D01*
X132455921Y-122725523D01*
X132411359Y-122693147D01*
X132411350Y-122693141D01*
X132229031Y-122600244D01*
X132034417Y-122537009D01*
X131832317Y-122505000D01*
X131627683Y-122505000D01*
X131425582Y-122537009D01*
X131230968Y-122600244D01*
X131048644Y-122693143D01*
X131004077Y-122725523D01*
X131004077Y-122725524D01*
X131683554Y-123405000D01*
X131677339Y-123405000D01*
X131575606Y-123432259D01*
X131484394Y-123484920D01*
X131409920Y-123559394D01*
X131357259Y-123650606D01*
X131330000Y-123752339D01*
X131330000Y-123758553D01*
X130650524Y-123079077D01*
X130628284Y-123080827D01*
X130620625Y-123086734D01*
X130616633Y-123087076D01*
X130613314Y-123089320D01*
X130582106Y-123090040D01*
X130551012Y-123092710D01*
X130547469Y-123090840D01*
X130543463Y-123090933D01*
X130516816Y-123074665D01*
X130489218Y-123060102D01*
X130486264Y-123056013D01*
X130483828Y-123054526D01*
X130478082Y-123044686D01*
X130464066Y-123025283D01*
X130460505Y-123017939D01*
X130432115Y-122932262D01*
X130339030Y-122781348D01*
X130213652Y-122655970D01*
X130094205Y-122582294D01*
X130062740Y-122562886D01*
X130062735Y-122562884D01*
X129894427Y-122507113D01*
X129790545Y-122496500D01*
X128589462Y-122496500D01*
X128589446Y-122496501D01*
X128485572Y-122507113D01*
X128317264Y-122562884D01*
X128317259Y-122562886D01*
X128166346Y-122655971D01*
X128040971Y-122781346D01*
X127947886Y-122932259D01*
X127947884Y-122932264D01*
X127892113Y-123100572D01*
X127881500Y-123204447D01*
X111000000Y-123204447D01*
X111000000Y-119878711D01*
X120649500Y-119878711D01*
X120649500Y-120121288D01*
X120681161Y-120361785D01*
X120743947Y-120596104D01*
X120836773Y-120820205D01*
X120836777Y-120820214D01*
X120858974Y-120858661D01*
X120958064Y-121030289D01*
X120958066Y-121030292D01*
X120958067Y-121030293D01*
X121105733Y-121222736D01*
X121105739Y-121222743D01*
X121277256Y-121394260D01*
X121277262Y-121394265D01*
X121469711Y-121541936D01*
X121679788Y-121663224D01*
X121903900Y-121756054D01*
X122138211Y-121818838D01*
X122318586Y-121842584D01*
X122378711Y-121850500D01*
X122378712Y-121850500D01*
X122621289Y-121850500D01*
X122669388Y-121844167D01*
X122861789Y-121818838D01*
X123096100Y-121756054D01*
X123320212Y-121663224D01*
X123530289Y-121541936D01*
X123722738Y-121394265D01*
X123894265Y-121222738D01*
X124041936Y-121030289D01*
X124163224Y-120820212D01*
X124256054Y-120596100D01*
X124318838Y-120361789D01*
X124350500Y-120121288D01*
X124350500Y-119878712D01*
X124350500Y-119878711D01*
X153149500Y-119878711D01*
X153149500Y-120121288D01*
X153181161Y-120361785D01*
X153243947Y-120596104D01*
X153336773Y-120820205D01*
X153336777Y-120820214D01*
X153358974Y-120858661D01*
X153458064Y-121030289D01*
X153458066Y-121030292D01*
X153458067Y-121030293D01*
X153605733Y-121222736D01*
X153605739Y-121222743D01*
X153777256Y-121394260D01*
X153777262Y-121394265D01*
X153969711Y-121541936D01*
X154179788Y-121663224D01*
X154403900Y-121756054D01*
X154638211Y-121818838D01*
X154818586Y-121842584D01*
X154878711Y-121850500D01*
X154878712Y-121850500D01*
X155121289Y-121850500D01*
X155169388Y-121844167D01*
X155361789Y-121818838D01*
X155596100Y-121756054D01*
X155820212Y-121663224D01*
X156030289Y-121541936D01*
X156222738Y-121394265D01*
X156394265Y-121222738D01*
X156541936Y-121030289D01*
X156663224Y-120820212D01*
X156756054Y-120596100D01*
X156818838Y-120361789D01*
X156850500Y-120121288D01*
X156850500Y-119878712D01*
X156818838Y-119638211D01*
X156756054Y-119403900D01*
X156663224Y-119179788D01*
X156541936Y-118969711D01*
X156394265Y-118777262D01*
X156394260Y-118777256D01*
X156222743Y-118605739D01*
X156222736Y-118605733D01*
X156030293Y-118458067D01*
X156030292Y-118458066D01*
X156030289Y-118458064D01*
X155820212Y-118336776D01*
X155751948Y-118308500D01*
X155596104Y-118243947D01*
X155478944Y-118212554D01*
X155361789Y-118181162D01*
X155361788Y-118181161D01*
X155361785Y-118181161D01*
X155121289Y-118149500D01*
X155121288Y-118149500D01*
X154878712Y-118149500D01*
X154878711Y-118149500D01*
X154638214Y-118181161D01*
X154403895Y-118243947D01*
X154179794Y-118336773D01*
X154179785Y-118336777D01*
X153969706Y-118458067D01*
X153777263Y-118605733D01*
X153777256Y-118605739D01*
X153605739Y-118777256D01*
X153605733Y-118777263D01*
X153458067Y-118969706D01*
X153336777Y-119179785D01*
X153336773Y-119179794D01*
X153243947Y-119403895D01*
X153181161Y-119638214D01*
X153149500Y-119878711D01*
X124350500Y-119878711D01*
X124318838Y-119638211D01*
X124256054Y-119403900D01*
X124163224Y-119179788D01*
X124041936Y-118969711D01*
X123894265Y-118777262D01*
X123894260Y-118777256D01*
X123722743Y-118605739D01*
X123722736Y-118605733D01*
X123530293Y-118458067D01*
X123530292Y-118458066D01*
X123530289Y-118458064D01*
X123320212Y-118336776D01*
X123251948Y-118308500D01*
X123096104Y-118243947D01*
X122978944Y-118212554D01*
X122861789Y-118181162D01*
X122861788Y-118181161D01*
X122861785Y-118181161D01*
X122621289Y-118149500D01*
X122621288Y-118149500D01*
X122378712Y-118149500D01*
X122378711Y-118149500D01*
X122138214Y-118181161D01*
X121903895Y-118243947D01*
X121679794Y-118336773D01*
X121679785Y-118336777D01*
X121469706Y-118458067D01*
X121277263Y-118605733D01*
X121277256Y-118605739D01*
X121105739Y-118777256D01*
X121105733Y-118777263D01*
X120958067Y-118969706D01*
X120836777Y-119179785D01*
X120836773Y-119179794D01*
X120743947Y-119403895D01*
X120681161Y-119638214D01*
X120649500Y-119878711D01*
X111000000Y-119878711D01*
X111000000Y-116656504D01*
X112376500Y-116656504D01*
X112376500Y-116873495D01*
X112402465Y-117037430D01*
X112410443Y-117087800D01*
X112477494Y-117294160D01*
X112576001Y-117487492D01*
X112703539Y-117663033D01*
X112856967Y-117816461D01*
X113032508Y-117943999D01*
X113225840Y-118042506D01*
X113432200Y-118109557D01*
X113512566Y-118122285D01*
X113646505Y-118143500D01*
X113646510Y-118143500D01*
X114313495Y-118143500D01*
X114432551Y-118124642D01*
X114527800Y-118109557D01*
X114734160Y-118042506D01*
X114927492Y-117943999D01*
X115103033Y-117816461D01*
X115256461Y-117663033D01*
X115383999Y-117487492D01*
X115482506Y-117294160D01*
X115549557Y-117087800D01*
X115564642Y-116992551D01*
X115583500Y-116873495D01*
X115583500Y-116656504D01*
X115559516Y-116505080D01*
X115549557Y-116442200D01*
X115482506Y-116235840D01*
X115383999Y-116042508D01*
X115256461Y-115866967D01*
X115115682Y-115726188D01*
X115082197Y-115664865D01*
X115087181Y-115595173D01*
X115129053Y-115539240D01*
X115138267Y-115532968D01*
X115293343Y-115437317D01*
X115417315Y-115313345D01*
X115509356Y-115164124D01*
X115509358Y-115164119D01*
X115564505Y-114997697D01*
X115564506Y-114997690D01*
X115574999Y-114894986D01*
X115575000Y-114894973D01*
X115575000Y-114475000D01*
X114522709Y-114475000D01*
X114534452Y-114454661D01*
X114575000Y-114303333D01*
X114575000Y-114146667D01*
X114534452Y-113995339D01*
X114522709Y-113975000D01*
X115574999Y-113975000D01*
X115574999Y-113555028D01*
X115574998Y-113555013D01*
X115564505Y-113452302D01*
X115509358Y-113285880D01*
X115509356Y-113285875D01*
X115417315Y-113136654D01*
X115293345Y-113012684D01*
X115144124Y-112920643D01*
X115144119Y-112920641D01*
X114977697Y-112865494D01*
X114977690Y-112865493D01*
X114874986Y-112855000D01*
X114230000Y-112855000D01*
X114230000Y-113682290D01*
X114209661Y-113670548D01*
X114058333Y-113630000D01*
X113901667Y-113630000D01*
X113750339Y-113670548D01*
X113730000Y-113682290D01*
X113730000Y-112855000D01*
X113085028Y-112855000D01*
X113085012Y-112855001D01*
X112982302Y-112865494D01*
X112815880Y-112920641D01*
X112815875Y-112920643D01*
X112666654Y-113012684D01*
X112542684Y-113136654D01*
X112450643Y-113285875D01*
X112450641Y-113285880D01*
X112395494Y-113452302D01*
X112395493Y-113452309D01*
X112385000Y-113555013D01*
X112385000Y-113975000D01*
X113437291Y-113975000D01*
X113425548Y-113995339D01*
X113385000Y-114146667D01*
X113385000Y-114303333D01*
X113425548Y-114454661D01*
X113437291Y-114475000D01*
X112385001Y-114475000D01*
X112385001Y-114894986D01*
X112395494Y-114997697D01*
X112450641Y-115164119D01*
X112450643Y-115164124D01*
X112542684Y-115313345D01*
X112666656Y-115437317D01*
X112821732Y-115532968D01*
X112868457Y-115584916D01*
X112879680Y-115653878D01*
X112851836Y-115717961D01*
X112844318Y-115726188D01*
X112703538Y-115866968D01*
X112576001Y-116042507D01*
X112477495Y-116235837D01*
X112410442Y-116442203D01*
X112376500Y-116656504D01*
X111000000Y-116656504D01*
X111000000Y-105228010D01*
X111019685Y-105160971D01*
X111072489Y-105115216D01*
X111141647Y-105105272D01*
X111205203Y-105134297D01*
X111235720Y-105174208D01*
X111370191Y-105453440D01*
X111549461Y-105738747D01*
X111708397Y-105938048D01*
X112956320Y-104690125D01*
X113046554Y-104814320D01*
X113185680Y-104953446D01*
X113309873Y-105043678D01*
X112061950Y-106291601D01*
X112261252Y-106450538D01*
X112546559Y-106629808D01*
X112850137Y-106776004D01*
X113168173Y-106887290D01*
X113168185Y-106887294D01*
X113496686Y-106962272D01*
X113496702Y-106962274D01*
X113831519Y-106999999D01*
X113831521Y-107000000D01*
X114168479Y-107000000D01*
X114168480Y-106999999D01*
X114503297Y-106962274D01*
X114503313Y-106962272D01*
X114831814Y-106887294D01*
X114831826Y-106887290D01*
X115149862Y-106776004D01*
X115453440Y-106629808D01*
X115721548Y-106461345D01*
X119691500Y-106461345D01*
X119691500Y-108158654D01*
X119698011Y-108219202D01*
X119698011Y-108219204D01*
X119749111Y-108356204D01*
X119836739Y-108473261D01*
X119953796Y-108560889D01*
X120090799Y-108611989D01*
X120118050Y-108614918D01*
X120151345Y-108618499D01*
X120151362Y-108618500D01*
X120242500Y-108618500D01*
X120309539Y-108638185D01*
X120355294Y-108690989D01*
X120366500Y-108742500D01*
X120366500Y-112562398D01*
X120390843Y-112684777D01*
X120390845Y-112684785D01*
X120438598Y-112800072D01*
X120438603Y-112800081D01*
X120507928Y-112903832D01*
X120507931Y-112903836D01*
X120596163Y-112992068D01*
X120596167Y-112992071D01*
X120699918Y-113061396D01*
X120699924Y-113061399D01*
X120699925Y-113061400D01*
X120815215Y-113109155D01*
X120937601Y-113133499D01*
X120937605Y-113133500D01*
X120937606Y-113133500D01*
X121686234Y-113133500D01*
X121753273Y-113153185D01*
X121773915Y-113169819D01*
X127507929Y-118903833D01*
X127573802Y-118969706D01*
X127596168Y-118992072D01*
X127699918Y-119061396D01*
X127699924Y-119061399D01*
X127699925Y-119061400D01*
X127815215Y-119109155D01*
X127937601Y-119133499D01*
X127937605Y-119133500D01*
X127937606Y-119133500D01*
X132017395Y-119133500D01*
X132017396Y-119133499D01*
X132139785Y-119109155D01*
X132255075Y-119061400D01*
X132358833Y-118992071D01*
X133855062Y-117495840D01*
X133916383Y-117462357D01*
X133962139Y-117461050D01*
X134056390Y-117475977D01*
X134167019Y-117493500D01*
X134167020Y-117493500D01*
X134372980Y-117493500D01*
X134372981Y-117493500D01*
X134576408Y-117461280D01*
X134772290Y-117397634D01*
X134955803Y-117304129D01*
X135122430Y-117183068D01*
X135268068Y-117037430D01*
X135389129Y-116870803D01*
X135434284Y-116782180D01*
X135482258Y-116731384D01*
X135550079Y-116714589D01*
X135616214Y-116737126D01*
X135655254Y-116782180D01*
X135698141Y-116866350D01*
X135698147Y-116866359D01*
X135730523Y-116910921D01*
X135730524Y-116910922D01*
X136410000Y-116231446D01*
X136410000Y-116237661D01*
X136437259Y-116339394D01*
X136489920Y-116430606D01*
X136564394Y-116505080D01*
X136655606Y-116557741D01*
X136757339Y-116585000D01*
X136763553Y-116585000D01*
X136084076Y-117264474D01*
X136128650Y-117296859D01*
X136310968Y-117389755D01*
X136505582Y-117452990D01*
X136707683Y-117485000D01*
X136912317Y-117485000D01*
X137114417Y-117452990D01*
X137309031Y-117389755D01*
X137491348Y-117296860D01*
X137498273Y-117291829D01*
X137498273Y-117291828D01*
X137535921Y-117264474D01*
X136856447Y-116585000D01*
X136862661Y-116585000D01*
X136964394Y-116557741D01*
X137055606Y-116505080D01*
X137130080Y-116430606D01*
X137182741Y-116339394D01*
X137210000Y-116237661D01*
X137210000Y-116231447D01*
X137889474Y-116910921D01*
X137921859Y-116866349D01*
X138014755Y-116684031D01*
X138077990Y-116489417D01*
X138110000Y-116287317D01*
X138110000Y-116082682D01*
X138077990Y-115880582D01*
X138014755Y-115685968D01*
X137921859Y-115503650D01*
X137889474Y-115459077D01*
X137889474Y-115459076D01*
X137210000Y-116138551D01*
X137210000Y-116132339D01*
X137182741Y-116030606D01*
X137130080Y-115939394D01*
X137055606Y-115864920D01*
X136964394Y-115812259D01*
X136862661Y-115785000D01*
X136856446Y-115785000D01*
X137535922Y-115105524D01*
X137535921Y-115105523D01*
X137491359Y-115073147D01*
X137491350Y-115073141D01*
X137309031Y-114980244D01*
X137114417Y-114917009D01*
X136912317Y-114885000D01*
X136707683Y-114885000D01*
X136505582Y-114917009D01*
X136310968Y-114980244D01*
X136128644Y-115073143D01*
X136084077Y-115105523D01*
X136084077Y-115105524D01*
X136763554Y-115785000D01*
X136757339Y-115785000D01*
X136655606Y-115812259D01*
X136564394Y-115864920D01*
X136489920Y-115939394D01*
X136437259Y-116030606D01*
X136410000Y-116132339D01*
X136410000Y-116138553D01*
X135730524Y-115459077D01*
X135730523Y-115459077D01*
X135698143Y-115503645D01*
X135698141Y-115503648D01*
X135655253Y-115587820D01*
X135607279Y-115638615D01*
X135539457Y-115655410D01*
X135473323Y-115632872D01*
X135434284Y-115587819D01*
X135429515Y-115578459D01*
X135389129Y-115499197D01*
X135331911Y-115420443D01*
X135268073Y-115332576D01*
X135268069Y-115332571D01*
X135122428Y-115186930D01*
X135122423Y-115186926D01*
X134955806Y-115065873D01*
X134955805Y-115065872D01*
X134955803Y-115065871D01*
X134772290Y-114972366D01*
X134660245Y-114935960D01*
X134602570Y-114896524D01*
X134575372Y-114832165D01*
X134587287Y-114763319D01*
X134610880Y-114730352D01*
X139268016Y-110073219D01*
X139329339Y-110039734D01*
X139355697Y-110036900D01*
X158110930Y-110036900D01*
X158110931Y-110036899D01*
X158305769Y-109998144D01*
X158489304Y-109922121D01*
X158654481Y-109811753D01*
X158794953Y-109671281D01*
X161690230Y-106776004D01*
X164511415Y-103954818D01*
X164572738Y-103921333D01*
X164599096Y-103918499D01*
X165395537Y-103918499D01*
X165395544Y-103918499D01*
X165499426Y-103907887D01*
X165667738Y-103852115D01*
X165818652Y-103759030D01*
X165944030Y-103633652D01*
X166037115Y-103482738D01*
X166092887Y-103314426D01*
X166103500Y-103210545D01*
X166103499Y-101869456D01*
X166092887Y-101765574D01*
X166037115Y-101597262D01*
X165944030Y-101446348D01*
X165818652Y-101320970D01*
X165667738Y-101227885D01*
X165667736Y-101227884D01*
X165661591Y-101224094D01*
X165662484Y-101222644D01*
X165616783Y-101182395D01*
X165597639Y-101115199D01*
X165617863Y-101048320D01*
X165633954Y-101028516D01*
X165769977Y-100892493D01*
X165896728Y-100718036D01*
X165994627Y-100525901D01*
X166061266Y-100320809D01*
X166072481Y-100250000D01*
X165042709Y-100250000D01*
X165054452Y-100229661D01*
X165095000Y-100078333D01*
X165095000Y-99921667D01*
X165054452Y-99770339D01*
X165042709Y-99750000D01*
X166072481Y-99750000D01*
X166061266Y-99679190D01*
X165994627Y-99474098D01*
X165896728Y-99281963D01*
X165769974Y-99107503D01*
X165769974Y-99107502D01*
X165617497Y-98955025D01*
X165443036Y-98828271D01*
X165250901Y-98730372D01*
X165045809Y-98663734D01*
X164832820Y-98630000D01*
X164750000Y-98630000D01*
X164750000Y-99457290D01*
X164729661Y-99445548D01*
X164578333Y-99405000D01*
X164421667Y-99405000D01*
X164270339Y-99445548D01*
X164250000Y-99457290D01*
X164250000Y-98630000D01*
X164167180Y-98630000D01*
X163954190Y-98663734D01*
X163749098Y-98730372D01*
X163556963Y-98828271D01*
X163382503Y-98955025D01*
X163382502Y-98955025D01*
X163230025Y-99107502D01*
X163230025Y-99107503D01*
X163103271Y-99281963D01*
X163005372Y-99474098D01*
X162938733Y-99679190D01*
X162927519Y-99750000D01*
X163957291Y-99750000D01*
X163945548Y-99770339D01*
X163905000Y-99921667D01*
X163905000Y-100078333D01*
X163945548Y-100229661D01*
X163957291Y-100250000D01*
X162927519Y-100250000D01*
X162938733Y-100320809D01*
X163005372Y-100525901D01*
X163103271Y-100718036D01*
X163230025Y-100892496D01*
X163230025Y-100892497D01*
X163366045Y-101028517D01*
X163399530Y-101089840D01*
X163394546Y-101159532D01*
X163352674Y-101215465D01*
X163338370Y-101224031D01*
X163338409Y-101224094D01*
X163332263Y-101227884D01*
X163332262Y-101227885D01*
X163267816Y-101267636D01*
X163181346Y-101320971D01*
X163055971Y-101446346D01*
X162962886Y-101597259D01*
X162962884Y-101597264D01*
X162907113Y-101765572D01*
X162896500Y-101869447D01*
X162896500Y-102665903D01*
X162876815Y-102732942D01*
X162860181Y-102753584D01*
X157630185Y-107983581D01*
X157568862Y-108017066D01*
X157542504Y-108019900D01*
X155289489Y-108019900D01*
X155222450Y-108000215D01*
X155176695Y-107947411D01*
X155166751Y-107878253D01*
X155195776Y-107814697D01*
X155254554Y-107776923D01*
X155270091Y-107773427D01*
X155304417Y-107767990D01*
X155499031Y-107704755D01*
X155681349Y-107611859D01*
X155725921Y-107579474D01*
X155046447Y-106900000D01*
X155052661Y-106900000D01*
X155154394Y-106872741D01*
X155245606Y-106820080D01*
X155320080Y-106745606D01*
X155372741Y-106654394D01*
X155400000Y-106552661D01*
X155400000Y-106546448D01*
X156079474Y-107225922D01*
X156079474Y-107225921D01*
X156111859Y-107181349D01*
X156204755Y-106999031D01*
X156267990Y-106804417D01*
X156300000Y-106602317D01*
X156300000Y-106397682D01*
X156267990Y-106195582D01*
X156204755Y-106000968D01*
X156111859Y-105818650D01*
X156079474Y-105774077D01*
X156079474Y-105774076D01*
X155400000Y-106453551D01*
X155400000Y-106447339D01*
X155372741Y-106345606D01*
X155320080Y-106254394D01*
X155245606Y-106179920D01*
X155154394Y-106127259D01*
X155052661Y-106100000D01*
X155046446Y-106100000D01*
X155725922Y-105420524D01*
X155725921Y-105420523D01*
X155681359Y-105388147D01*
X155681350Y-105388141D01*
X155499031Y-105295244D01*
X155304417Y-105232009D01*
X155102317Y-105200000D01*
X154897683Y-105200000D01*
X154695582Y-105232009D01*
X154500968Y-105295244D01*
X154318644Y-105388143D01*
X154274077Y-105420523D01*
X154274077Y-105420524D01*
X154953554Y-106100000D01*
X154947339Y-106100000D01*
X154845606Y-106127259D01*
X154754394Y-106179920D01*
X154679920Y-106254394D01*
X154627259Y-106345606D01*
X154600000Y-106447339D01*
X154600000Y-106453553D01*
X153920524Y-105774077D01*
X153920523Y-105774077D01*
X153888143Y-105818644D01*
X153795244Y-106000968D01*
X153732009Y-106195582D01*
X153700000Y-106397682D01*
X153700000Y-106602317D01*
X153732009Y-106804417D01*
X153795244Y-106999031D01*
X153888141Y-107181350D01*
X153888147Y-107181359D01*
X153920523Y-107225921D01*
X153920524Y-107225922D01*
X154600000Y-106546446D01*
X154600000Y-106552661D01*
X154627259Y-106654394D01*
X154679920Y-106745606D01*
X154754394Y-106820080D01*
X154845606Y-106872741D01*
X154947339Y-106900000D01*
X154953553Y-106900000D01*
X154274076Y-107579474D01*
X154318650Y-107611859D01*
X154500968Y-107704755D01*
X154695582Y-107767990D01*
X154729909Y-107773427D01*
X154793044Y-107803356D01*
X154829975Y-107862668D01*
X154828977Y-107932531D01*
X154790367Y-107990763D01*
X154726403Y-108018877D01*
X154710511Y-108019900D01*
X138787266Y-108019900D01*
X138592438Y-108058653D01*
X138592438Y-108058654D01*
X138592435Y-108058655D01*
X138592431Y-108058656D01*
X138538675Y-108080922D01*
X138408902Y-108134674D01*
X138408889Y-108134681D01*
X138243719Y-108245045D01*
X138243715Y-108245048D01*
X131637978Y-114850786D01*
X131576655Y-114884271D01*
X131569696Y-114885578D01*
X131423594Y-114908719D01*
X131227707Y-114972367D01*
X131044193Y-115065873D01*
X130877576Y-115186926D01*
X130877571Y-115186930D01*
X130731930Y-115332571D01*
X130731926Y-115332576D01*
X130610871Y-115499195D01*
X130570484Y-115578459D01*
X130522510Y-115629254D01*
X130454689Y-115646049D01*
X130388554Y-115623511D01*
X130349516Y-115578459D01*
X130309128Y-115499195D01*
X130188073Y-115332576D01*
X130188069Y-115332571D01*
X130042428Y-115186930D01*
X130042423Y-115186926D01*
X129875806Y-115065873D01*
X129875805Y-115065872D01*
X129875803Y-115065871D01*
X129818496Y-115036671D01*
X129692294Y-114972367D01*
X129496408Y-114908719D01*
X129320794Y-114880905D01*
X129292981Y-114876500D01*
X129087019Y-114876500D01*
X129069492Y-114879276D01*
X128883591Y-114908719D01*
X128687705Y-114972367D01*
X128504193Y-115065873D01*
X128337576Y-115186926D01*
X128337571Y-115186930D01*
X128191930Y-115332571D01*
X128191926Y-115332576D01*
X128070873Y-115499193D01*
X127977367Y-115682705D01*
X127913719Y-115878591D01*
X127881500Y-116082019D01*
X127881500Y-116287980D01*
X127913719Y-116491408D01*
X127977367Y-116687294D01*
X128030485Y-116791541D01*
X128068602Y-116866350D01*
X128070873Y-116870806D01*
X128191926Y-117037423D01*
X128191930Y-117037428D01*
X128337571Y-117183069D01*
X128337576Y-117183073D01*
X128449616Y-117264474D01*
X128504197Y-117304129D01*
X128621128Y-117363709D01*
X128687705Y-117397632D01*
X128687707Y-117397632D01*
X128687710Y-117397634D01*
X128792625Y-117431723D01*
X128883591Y-117461280D01*
X128985305Y-117477390D01*
X129087019Y-117493500D01*
X129087020Y-117493500D01*
X129292980Y-117493500D01*
X129292981Y-117493500D01*
X129496408Y-117461280D01*
X129692290Y-117397634D01*
X129875803Y-117304129D01*
X130042430Y-117183068D01*
X130188068Y-117037430D01*
X130309129Y-116870803D01*
X130349515Y-116791540D01*
X130397490Y-116740745D01*
X130465311Y-116723950D01*
X130531446Y-116746487D01*
X130570484Y-116791540D01*
X130608602Y-116866350D01*
X130610873Y-116870806D01*
X130731926Y-117037423D01*
X130731930Y-117037428D01*
X130877571Y-117183069D01*
X130877576Y-117183073D01*
X130989616Y-117264474D01*
X131044197Y-117304129D01*
X131161128Y-117363709D01*
X131227705Y-117397632D01*
X131227707Y-117397632D01*
X131227710Y-117397634D01*
X131332625Y-117431723D01*
X131423591Y-117461280D01*
X131525305Y-117477390D01*
X131627019Y-117493500D01*
X131627020Y-117493500D01*
X131766234Y-117493500D01*
X131787479Y-117499738D01*
X131809568Y-117501318D01*
X131820351Y-117509390D01*
X131833273Y-117513185D01*
X131847772Y-117529918D01*
X131865501Y-117543190D01*
X131870208Y-117555810D01*
X131879028Y-117565989D01*
X131882179Y-117587906D01*
X131889918Y-117608654D01*
X131887055Y-117621814D01*
X131888972Y-117635147D01*
X131879772Y-117655290D01*
X131875066Y-117676927D01*
X131861797Y-117694652D01*
X131859947Y-117698703D01*
X131853915Y-117705181D01*
X131728915Y-117830181D01*
X131667592Y-117863666D01*
X131641234Y-117866500D01*
X128313766Y-117866500D01*
X128246727Y-117846815D01*
X128226085Y-117830181D01*
X122403836Y-112007931D01*
X122403832Y-112007928D01*
X122300081Y-111938603D01*
X122300072Y-111938598D01*
X122184785Y-111890845D01*
X122184777Y-111890843D01*
X122062398Y-111866500D01*
X122062394Y-111866500D01*
X121757500Y-111866500D01*
X121690461Y-111846815D01*
X121644706Y-111794011D01*
X121633500Y-111742500D01*
X121633500Y-108742500D01*
X121653185Y-108675461D01*
X121705989Y-108629706D01*
X121757500Y-108618500D01*
X121848638Y-108618500D01*
X121848654Y-108618499D01*
X121875692Y-108615591D01*
X121909201Y-108611989D01*
X122046204Y-108560889D01*
X122163261Y-108473261D01*
X122250889Y-108356204D01*
X122301989Y-108219201D01*
X122305591Y-108185692D01*
X122308499Y-108158654D01*
X122308500Y-108158637D01*
X122308500Y-106461362D01*
X122308499Y-106461345D01*
X122305157Y-106430270D01*
X122301989Y-106400799D01*
X122300826Y-106397682D01*
X122270843Y-106317294D01*
X122250889Y-106263796D01*
X122163261Y-106146739D01*
X122046204Y-106059111D01*
X121909203Y-106008011D01*
X121848654Y-106001500D01*
X121848638Y-106001500D01*
X120151362Y-106001500D01*
X120151345Y-106001500D01*
X120090797Y-106008011D01*
X120090795Y-106008011D01*
X119953795Y-106059111D01*
X119836739Y-106146739D01*
X119749111Y-106263795D01*
X119698011Y-106400795D01*
X119698011Y-106400797D01*
X119691500Y-106461345D01*
X115721548Y-106461345D01*
X115738747Y-106450538D01*
X115850907Y-106361094D01*
X115938048Y-106291600D01*
X114690126Y-105043678D01*
X114814320Y-104953446D01*
X114953446Y-104814320D01*
X115043678Y-104690126D01*
X116291600Y-105938048D01*
X116450539Y-105738747D01*
X116467333Y-105712019D01*
X125191500Y-105712019D01*
X125191500Y-105917980D01*
X125223719Y-106121408D01*
X125287367Y-106317294D01*
X125309685Y-106361094D01*
X125380462Y-106500001D01*
X125380873Y-106500806D01*
X125501926Y-106667423D01*
X125501930Y-106667428D01*
X125647571Y-106813069D01*
X125647576Y-106813073D01*
X125703293Y-106853553D01*
X125814197Y-106934129D01*
X125931128Y-106993709D01*
X125997705Y-107027632D01*
X125997707Y-107027632D01*
X125997710Y-107027634D01*
X126102707Y-107061749D01*
X126193591Y-107091280D01*
X126295305Y-107107390D01*
X126397019Y-107123500D01*
X126397020Y-107123500D01*
X126602980Y-107123500D01*
X126602981Y-107123500D01*
X126806408Y-107091280D01*
X127002290Y-107027634D01*
X127185803Y-106934129D01*
X127352430Y-106813068D01*
X127498068Y-106667430D01*
X127619129Y-106500803D01*
X127712634Y-106317290D01*
X127776280Y-106121408D01*
X127808500Y-105917981D01*
X127808500Y-105712019D01*
X127794793Y-105625479D01*
X127776280Y-105508591D01*
X127712632Y-105312705D01*
X127678709Y-105246128D01*
X127619129Y-105129197D01*
X127571184Y-105063206D01*
X127498073Y-104962576D01*
X127498069Y-104962571D01*
X127352428Y-104816930D01*
X127352423Y-104816926D01*
X127185806Y-104695873D01*
X127185805Y-104695872D01*
X127185803Y-104695871D01*
X127121220Y-104662964D01*
X127002294Y-104602367D01*
X126806408Y-104538719D01*
X126630794Y-104510905D01*
X126602981Y-104506500D01*
X126397019Y-104506500D01*
X126372550Y-104510375D01*
X126193591Y-104538719D01*
X125997705Y-104602367D01*
X125814193Y-104695873D01*
X125647576Y-104816926D01*
X125647571Y-104816930D01*
X125501930Y-104962571D01*
X125501926Y-104962576D01*
X125380873Y-105129193D01*
X125287367Y-105312705D01*
X125223719Y-105508591D01*
X125191500Y-105712019D01*
X116467333Y-105712019D01*
X116511848Y-105641175D01*
X116629808Y-105453440D01*
X116776004Y-105149862D01*
X116887290Y-104831826D01*
X116887294Y-104831814D01*
X116962272Y-104503313D01*
X116962274Y-104503297D01*
X116999999Y-104168480D01*
X117000000Y-104168478D01*
X117000000Y-103831521D01*
X116999999Y-103831519D01*
X116962274Y-103496702D01*
X116962272Y-103496686D01*
X116887294Y-103168185D01*
X116887290Y-103168173D01*
X116776004Y-102850137D01*
X116629808Y-102546559D01*
X116450538Y-102261252D01*
X116291601Y-102061950D01*
X115043678Y-103309873D01*
X114953446Y-103185680D01*
X114814320Y-103046554D01*
X114690124Y-102956320D01*
X115938048Y-101708397D01*
X115738747Y-101549461D01*
X115453440Y-101370191D01*
X115149862Y-101223995D01*
X114831826Y-101112709D01*
X114831814Y-101112705D01*
X114503313Y-101037727D01*
X114503297Y-101037725D01*
X114168480Y-101000000D01*
X113831519Y-101000000D01*
X113496702Y-101037725D01*
X113496686Y-101037727D01*
X113168185Y-101112705D01*
X113168173Y-101112709D01*
X112850137Y-101223995D01*
X112546559Y-101370191D01*
X112261252Y-101549461D01*
X112061950Y-101708397D01*
X113309873Y-102956320D01*
X113185680Y-103046554D01*
X113046554Y-103185680D01*
X112956320Y-103309873D01*
X111708397Y-102061950D01*
X111549461Y-102261252D01*
X111370191Y-102546559D01*
X111235720Y-102825791D01*
X111188897Y-102877650D01*
X111121470Y-102895963D01*
X111054846Y-102874915D01*
X111010178Y-102821189D01*
X111000000Y-102771989D01*
X111000000Y-98397682D01*
X112700000Y-98397682D01*
X112700000Y-98602317D01*
X112732009Y-98804417D01*
X112795244Y-98999031D01*
X112888141Y-99181350D01*
X112888147Y-99181359D01*
X112920523Y-99225921D01*
X112920524Y-99225922D01*
X113600000Y-98546446D01*
X113600000Y-98552661D01*
X113627259Y-98654394D01*
X113679920Y-98745606D01*
X113754394Y-98820080D01*
X113845606Y-98872741D01*
X113947339Y-98900000D01*
X113953553Y-98900000D01*
X113274076Y-99579474D01*
X113318650Y-99611859D01*
X113500968Y-99704755D01*
X113695582Y-99767990D01*
X113897683Y-99800000D01*
X114102317Y-99800000D01*
X114304417Y-99767990D01*
X114499031Y-99704755D01*
X114681349Y-99611859D01*
X114715537Y-99587019D01*
X119691500Y-99587019D01*
X119691500Y-99792980D01*
X119723719Y-99996408D01*
X119787367Y-100192294D01*
X119880873Y-100375806D01*
X120001926Y-100542423D01*
X120001930Y-100542428D01*
X120147571Y-100688069D01*
X120147576Y-100688073D01*
X120292908Y-100793661D01*
X120314197Y-100809129D01*
X120431128Y-100868709D01*
X120497705Y-100902632D01*
X120497707Y-100902632D01*
X120497710Y-100902634D01*
X120602707Y-100936749D01*
X120693591Y-100966280D01*
X120795305Y-100982390D01*
X120897019Y-100998500D01*
X120897020Y-100998500D01*
X121102980Y-100998500D01*
X121102981Y-100998500D01*
X121306408Y-100966280D01*
X121502290Y-100902634D01*
X121685803Y-100809129D01*
X121852430Y-100688068D01*
X121924226Y-100616272D01*
X124991500Y-100616272D01*
X124991500Y-100853727D01*
X125028643Y-101088241D01*
X125102019Y-101314067D01*
X125157970Y-101423876D01*
X125209815Y-101525627D01*
X125349380Y-101717722D01*
X125517278Y-101885620D01*
X125709373Y-102025185D01*
X125781529Y-102061950D01*
X125920932Y-102132980D01*
X125920934Y-102132980D01*
X125920937Y-102132982D01*
X126041984Y-102172312D01*
X126146758Y-102206356D01*
X126381273Y-102243500D01*
X126381278Y-102243500D01*
X129058797Y-102243500D01*
X129125836Y-102263185D01*
X129146478Y-102279819D01*
X131199757Y-104333098D01*
X131231851Y-104388685D01*
X131283803Y-104582570D01*
X131374520Y-104801583D01*
X131374526Y-104801595D01*
X131493061Y-105006904D01*
X131493063Y-105006907D01*
X131493064Y-105006908D01*
X131637379Y-105194983D01*
X131637385Y-105194990D01*
X131805009Y-105362614D01*
X131805016Y-105362620D01*
X131868702Y-105411488D01*
X131993096Y-105506939D01*
X132198405Y-105625474D01*
X132198410Y-105625476D01*
X132198416Y-105625479D01*
X132292803Y-105664575D01*
X132417430Y-105716197D01*
X132646422Y-105777556D01*
X132881465Y-105808500D01*
X132881472Y-105808500D01*
X133118528Y-105808500D01*
X133118535Y-105808500D01*
X133353578Y-105777556D01*
X133582570Y-105716197D01*
X133801595Y-105625474D01*
X134006904Y-105506939D01*
X134194985Y-105362619D01*
X134362619Y-105194985D01*
X134506939Y-105006904D01*
X134625474Y-104801595D01*
X134716197Y-104582570D01*
X134777556Y-104353578D01*
X134808500Y-104118535D01*
X134808500Y-103881471D01*
X136191500Y-103881471D01*
X136191500Y-104118528D01*
X136191501Y-104118544D01*
X136222443Y-104353574D01*
X136283803Y-104582570D01*
X136374520Y-104801583D01*
X136374526Y-104801595D01*
X136493061Y-105006904D01*
X136493063Y-105006907D01*
X136493064Y-105006908D01*
X136637379Y-105194983D01*
X136637385Y-105194990D01*
X136805009Y-105362614D01*
X136805016Y-105362620D01*
X136868702Y-105411488D01*
X136993096Y-105506939D01*
X137198405Y-105625474D01*
X137198410Y-105625476D01*
X137198416Y-105625479D01*
X137292803Y-105664575D01*
X137417430Y-105716197D01*
X137646422Y-105777556D01*
X137881465Y-105808500D01*
X137881472Y-105808500D01*
X138118528Y-105808500D01*
X138118535Y-105808500D01*
X138353578Y-105777556D01*
X138582570Y-105716197D01*
X138801595Y-105625474D01*
X139006904Y-105506939D01*
X139194985Y-105362619D01*
X139362619Y-105194985D01*
X139506939Y-105006904D01*
X139625474Y-104801595D01*
X139661226Y-104715282D01*
X139682897Y-104662964D01*
X139689321Y-104647452D01*
X139716197Y-104582570D01*
X139777556Y-104353578D01*
X139808500Y-104118535D01*
X139808500Y-103881465D01*
X139785799Y-103709039D01*
X139796564Y-103640007D01*
X139821051Y-103605181D01*
X140063816Y-103362416D01*
X140125138Y-103328934D01*
X140151496Y-103326100D01*
X145658816Y-103326100D01*
X145725855Y-103345785D01*
X145758082Y-103375788D01*
X145836739Y-103480861D01*
X145953796Y-103568489D01*
X146090799Y-103619589D01*
X146118050Y-103622518D01*
X146151345Y-103626099D01*
X146151360Y-103626099D01*
X146151362Y-103626100D01*
X146151364Y-103626100D01*
X146154669Y-103626277D01*
X146154659Y-103626455D01*
X146154665Y-103626456D01*
X146154653Y-103626559D01*
X146154586Y-103627813D01*
X146215790Y-103645785D01*
X146261545Y-103698589D01*
X146267342Y-103731389D01*
X146953554Y-104417600D01*
X146947339Y-104417600D01*
X146845606Y-104444859D01*
X146754394Y-104497520D01*
X146679920Y-104571994D01*
X146627259Y-104663206D01*
X146600000Y-104764939D01*
X146600000Y-104771153D01*
X145920524Y-104091677D01*
X145920523Y-104091677D01*
X145888143Y-104136244D01*
X145795244Y-104318568D01*
X145732009Y-104513182D01*
X145700000Y-104715282D01*
X145700000Y-104919917D01*
X145732009Y-105122017D01*
X145795244Y-105316631D01*
X145888141Y-105498950D01*
X145888147Y-105498959D01*
X145920523Y-105543521D01*
X145920524Y-105543522D01*
X146600000Y-104864046D01*
X146600000Y-104870261D01*
X146627259Y-104971994D01*
X146679920Y-105063206D01*
X146754394Y-105137680D01*
X146845606Y-105190341D01*
X146947339Y-105217600D01*
X146953553Y-105217600D01*
X146274076Y-105897074D01*
X146318650Y-105929459D01*
X146500968Y-106022355D01*
X146695582Y-106085590D01*
X146897683Y-106117600D01*
X147102317Y-106117600D01*
X147304417Y-106085590D01*
X147499031Y-106022355D01*
X147681349Y-105929459D01*
X147725921Y-105897074D01*
X147046447Y-105217600D01*
X147052661Y-105217600D01*
X147154394Y-105190341D01*
X147245606Y-105137680D01*
X147320080Y-105063206D01*
X147372741Y-104971994D01*
X147400000Y-104870261D01*
X147400000Y-104864047D01*
X148079474Y-105543521D01*
X148111861Y-105498947D01*
X148111861Y-105498946D01*
X148156423Y-105411489D01*
X148156423Y-105411488D01*
X148204755Y-105316631D01*
X148267990Y-105122017D01*
X148300000Y-104919917D01*
X148300000Y-104715282D01*
X148267990Y-104513182D01*
X148204755Y-104318568D01*
X148111859Y-104136250D01*
X148079474Y-104091677D01*
X148079474Y-104091676D01*
X147400000Y-104771151D01*
X147400000Y-104764939D01*
X147372741Y-104663206D01*
X147320080Y-104571994D01*
X147245606Y-104497520D01*
X147154394Y-104444859D01*
X147052661Y-104417600D01*
X147046446Y-104417600D01*
X147733856Y-103730190D01*
X147741994Y-103691452D01*
X147791045Y-103641695D01*
X147845402Y-103627614D01*
X147845346Y-103626559D01*
X147845335Y-103626456D01*
X147845340Y-103626455D01*
X147845331Y-103626277D01*
X147848635Y-103626100D01*
X147848638Y-103626100D01*
X147848640Y-103626099D01*
X147848654Y-103626099D01*
X147875692Y-103623191D01*
X147909201Y-103619589D01*
X148046204Y-103568489D01*
X148163261Y-103480861D01*
X148241917Y-103375788D01*
X148297851Y-103333918D01*
X148341184Y-103326100D01*
X154281730Y-103326100D01*
X154281731Y-103326099D01*
X154476569Y-103287344D01*
X154660104Y-103211321D01*
X154825281Y-103100953D01*
X154965753Y-102960481D01*
X155092022Y-102834210D01*
X155153343Y-102800727D01*
X155160299Y-102799421D01*
X155306408Y-102776280D01*
X155502290Y-102712634D01*
X155685803Y-102619129D01*
X155852430Y-102498068D01*
X155998068Y-102352430D01*
X156119129Y-102185803D01*
X156212634Y-102002290D01*
X156276280Y-101806408D01*
X156308500Y-101602981D01*
X156308500Y-101397019D01*
X156281101Y-101224031D01*
X156276280Y-101193591D01*
X156225636Y-101037727D01*
X156212634Y-100997710D01*
X156212632Y-100997707D01*
X156212632Y-100997705D01*
X156159025Y-100892497D01*
X156119129Y-100814197D01*
X156103661Y-100792908D01*
X155998073Y-100647576D01*
X155998069Y-100647571D01*
X155852428Y-100501930D01*
X155852423Y-100501926D01*
X155685806Y-100380873D01*
X155685805Y-100380872D01*
X155685803Y-100380871D01*
X155628496Y-100351671D01*
X155502294Y-100287367D01*
X155306408Y-100223719D01*
X155130794Y-100195905D01*
X155102981Y-100191500D01*
X154897019Y-100191500D01*
X154872550Y-100195375D01*
X154693591Y-100223719D01*
X154497705Y-100287367D01*
X154314193Y-100380873D01*
X154147576Y-100501926D01*
X154147571Y-100501930D01*
X154001930Y-100647571D01*
X154001926Y-100647576D01*
X153880873Y-100814193D01*
X153787367Y-100997707D01*
X153723720Y-101193592D01*
X153721992Y-101204502D01*
X153692060Y-101267636D01*
X153632748Y-101304565D01*
X153599519Y-101309100D01*
X148341184Y-101309100D01*
X148274145Y-101289415D01*
X148241917Y-101259411D01*
X148215479Y-101224094D01*
X148163261Y-101154339D01*
X148046204Y-101066711D01*
X147909203Y-101015611D01*
X147848654Y-101009100D01*
X147848638Y-101009100D01*
X146151362Y-101009100D01*
X146151345Y-101009100D01*
X146090797Y-101015611D01*
X146090795Y-101015611D01*
X145953795Y-101066711D01*
X145836739Y-101154339D01*
X145807355Y-101193592D01*
X145758083Y-101259411D01*
X145702149Y-101301282D01*
X145658816Y-101309100D01*
X139583066Y-101309100D01*
X139388238Y-101347853D01*
X139388238Y-101347854D01*
X139388235Y-101347855D01*
X139388231Y-101347856D01*
X139334475Y-101370122D01*
X139204700Y-101423875D01*
X139204699Y-101423876D01*
X139039519Y-101534246D01*
X139039515Y-101534249D01*
X138394823Y-102178941D01*
X138333500Y-102212426D01*
X138290957Y-102214199D01*
X138118536Y-102191500D01*
X138118535Y-102191500D01*
X137881465Y-102191500D01*
X137881459Y-102191500D01*
X137881455Y-102191501D01*
X137646425Y-102222443D01*
X137417429Y-102283803D01*
X137198416Y-102374520D01*
X137198402Y-102374527D01*
X136993091Y-102493064D01*
X136805016Y-102637379D01*
X136805009Y-102637385D01*
X136637385Y-102805009D01*
X136637379Y-102805016D01*
X136493064Y-102993091D01*
X136374527Y-103198402D01*
X136374520Y-103198416D01*
X136283803Y-103417429D01*
X136222443Y-103646425D01*
X136191501Y-103881455D01*
X136191500Y-103881471D01*
X134808500Y-103881471D01*
X134808500Y-103881465D01*
X134777556Y-103646422D01*
X134716197Y-103417430D01*
X134662313Y-103287343D01*
X134625479Y-103198416D01*
X134625476Y-103198410D01*
X134625474Y-103198405D01*
X134506939Y-102993096D01*
X134416255Y-102874915D01*
X134362620Y-102805016D01*
X134362614Y-102805009D01*
X134194990Y-102637385D01*
X134194983Y-102637379D01*
X134006908Y-102493064D01*
X134006907Y-102493063D01*
X134006904Y-102493061D01*
X133801595Y-102374526D01*
X133801583Y-102374520D01*
X133582570Y-102283803D01*
X133388685Y-102231851D01*
X133333098Y-102199757D01*
X130889960Y-99756619D01*
X130889940Y-99756597D01*
X130717725Y-99584383D01*
X130717724Y-99584382D01*
X130717722Y-99584380D01*
X130525627Y-99444815D01*
X130314065Y-99337019D01*
X130314064Y-99337018D01*
X130314063Y-99337018D01*
X130088241Y-99263644D01*
X130088239Y-99263643D01*
X130088237Y-99263643D01*
X129924494Y-99237708D01*
X129853722Y-99226499D01*
X129616278Y-99226499D01*
X129611167Y-99226499D01*
X129611143Y-99226500D01*
X126381273Y-99226500D01*
X126146758Y-99263643D01*
X125920932Y-99337019D01*
X125709372Y-99444815D01*
X125517275Y-99584382D01*
X125349382Y-99752275D01*
X125209815Y-99944372D01*
X125102019Y-100155932D01*
X125028643Y-100381758D01*
X124991500Y-100616272D01*
X121924226Y-100616272D01*
X121998068Y-100542430D01*
X122000908Y-100538520D01*
X122000910Y-100538519D01*
X122046246Y-100476118D01*
X122119129Y-100375803D01*
X122212634Y-100192290D01*
X122276280Y-99996408D01*
X122308500Y-99792981D01*
X122308500Y-99587019D01*
X122276280Y-99383592D01*
X122261147Y-99337019D01*
X122237306Y-99263643D01*
X122212634Y-99187710D01*
X122212632Y-99187707D01*
X122212632Y-99187705D01*
X122171766Y-99107502D01*
X122119129Y-99004197D01*
X122043426Y-98900000D01*
X121998073Y-98837576D01*
X121998069Y-98837571D01*
X121852428Y-98691930D01*
X121852423Y-98691926D01*
X121685806Y-98570873D01*
X121685805Y-98570872D01*
X121685803Y-98570871D01*
X121628496Y-98541671D01*
X121502294Y-98477367D01*
X121306408Y-98413719D01*
X121130794Y-98385905D01*
X121102981Y-98381500D01*
X120897019Y-98381500D01*
X120872550Y-98385375D01*
X120693591Y-98413719D01*
X120497705Y-98477367D01*
X120314193Y-98570873D01*
X120147576Y-98691926D01*
X120147571Y-98691930D01*
X120001930Y-98837571D01*
X120001926Y-98837576D01*
X119880873Y-99004193D01*
X119787367Y-99187705D01*
X119723719Y-99383591D01*
X119691500Y-99587019D01*
X114715537Y-99587019D01*
X114725921Y-99579474D01*
X114725921Y-99579473D01*
X114046447Y-98900000D01*
X114052661Y-98900000D01*
X114154394Y-98872741D01*
X114245606Y-98820080D01*
X114320080Y-98745606D01*
X114372741Y-98654394D01*
X114400000Y-98552661D01*
X114400000Y-98546447D01*
X115079474Y-99225921D01*
X115111859Y-99181349D01*
X115204755Y-98999031D01*
X115267990Y-98804417D01*
X115300000Y-98602317D01*
X115300000Y-98397682D01*
X115267990Y-98195582D01*
X115204755Y-98000968D01*
X115111859Y-97818650D01*
X115079474Y-97774077D01*
X115079474Y-97774076D01*
X114400000Y-98453551D01*
X114400000Y-98447339D01*
X114372741Y-98345606D01*
X114320080Y-98254394D01*
X114245606Y-98179920D01*
X114154394Y-98127259D01*
X114052661Y-98100000D01*
X114046446Y-98100000D01*
X114725922Y-97420524D01*
X114725921Y-97420523D01*
X114681359Y-97388147D01*
X114681350Y-97388141D01*
X114499031Y-97295244D01*
X114304417Y-97232009D01*
X114102317Y-97200000D01*
X113897683Y-97200000D01*
X113695582Y-97232009D01*
X113500968Y-97295244D01*
X113318644Y-97388143D01*
X113274077Y-97420523D01*
X113274077Y-97420524D01*
X113953554Y-98100000D01*
X113947339Y-98100000D01*
X113845606Y-98127259D01*
X113754394Y-98179920D01*
X113679920Y-98254394D01*
X113627259Y-98345606D01*
X113600000Y-98447339D01*
X113600000Y-98453553D01*
X112920524Y-97774077D01*
X112920523Y-97774077D01*
X112888143Y-97818644D01*
X112795244Y-98000968D01*
X112732009Y-98195582D01*
X112700000Y-98397682D01*
X111000000Y-98397682D01*
X111000000Y-94938905D01*
X155350000Y-94938905D01*
X155350000Y-95201094D01*
X155384220Y-95461009D01*
X155384222Y-95461020D01*
X155452075Y-95714255D01*
X155552404Y-95956471D01*
X155552409Y-95956482D01*
X155683488Y-96183516D01*
X155683494Y-96183524D01*
X155770080Y-96296365D01*
X156377912Y-95688532D01*
X156472829Y-95819175D01*
X156600825Y-95947171D01*
X156731465Y-96042086D01*
X156123633Y-96649917D01*
X156123633Y-96649918D01*
X156236475Y-96736505D01*
X156236483Y-96736511D01*
X156463517Y-96867590D01*
X156463528Y-96867595D01*
X156705744Y-96967924D01*
X156958979Y-97035777D01*
X156958990Y-97035779D01*
X157218905Y-97069999D01*
X157218920Y-97070000D01*
X157481080Y-97070000D01*
X157481094Y-97069999D01*
X157741009Y-97035779D01*
X157741020Y-97035777D01*
X157994255Y-96967924D01*
X158236471Y-96867595D01*
X158236482Y-96867590D01*
X158463516Y-96736511D01*
X158463534Y-96736499D01*
X158576365Y-96649919D01*
X158576365Y-96649917D01*
X157968534Y-96042086D01*
X158099175Y-95947171D01*
X158227171Y-95819175D01*
X158322086Y-95688534D01*
X158929917Y-96296365D01*
X158929919Y-96296365D01*
X159016499Y-96183534D01*
X159016511Y-96183516D01*
X159147590Y-95956482D01*
X159147595Y-95956471D01*
X159247924Y-95714255D01*
X159315777Y-95461020D01*
X159315779Y-95461009D01*
X159349999Y-95201094D01*
X159350000Y-95201080D01*
X159350000Y-94938919D01*
X159349999Y-94938905D01*
X159315779Y-94678990D01*
X159315777Y-94678979D01*
X159247924Y-94425744D01*
X159147595Y-94183528D01*
X159147590Y-94183517D01*
X159016511Y-93956483D01*
X159016505Y-93956475D01*
X158929918Y-93843633D01*
X158929917Y-93843633D01*
X158322085Y-94451465D01*
X158227171Y-94320825D01*
X158099175Y-94192829D01*
X157968532Y-94097912D01*
X158576365Y-93490080D01*
X158463524Y-93403494D01*
X158463516Y-93403488D01*
X158236482Y-93272409D01*
X158236471Y-93272404D01*
X157994255Y-93172075D01*
X157741020Y-93104222D01*
X157741009Y-93104220D01*
X157481094Y-93070000D01*
X157218905Y-93070000D01*
X156958990Y-93104220D01*
X156958979Y-93104222D01*
X156705744Y-93172075D01*
X156463528Y-93272404D01*
X156463517Y-93272409D01*
X156236471Y-93403496D01*
X156123633Y-93490079D01*
X156123633Y-93490080D01*
X156731466Y-94097913D01*
X156600825Y-94192829D01*
X156472829Y-94320825D01*
X156377913Y-94451466D01*
X155770080Y-93843633D01*
X155770079Y-93843633D01*
X155683496Y-93956471D01*
X155552409Y-94183517D01*
X155552404Y-94183528D01*
X155452075Y-94425744D01*
X155384222Y-94678979D01*
X155384220Y-94678990D01*
X155350000Y-94938905D01*
X111000000Y-94938905D01*
X111000000Y-93397019D01*
X112691500Y-93397019D01*
X112691500Y-93602980D01*
X112723719Y-93806408D01*
X112787367Y-94002294D01*
X112851671Y-94128496D01*
X112879706Y-94183517D01*
X112880873Y-94185806D01*
X113001926Y-94352423D01*
X113001930Y-94352428D01*
X113147571Y-94498069D01*
X113147576Y-94498073D01*
X113292908Y-94603661D01*
X113314197Y-94619129D01*
X113431128Y-94678709D01*
X113497705Y-94712632D01*
X113497707Y-94712632D01*
X113497710Y-94712634D01*
X113602707Y-94746749D01*
X113693591Y-94776280D01*
X113795305Y-94792390D01*
X113897019Y-94808500D01*
X113897020Y-94808500D01*
X114102980Y-94808500D01*
X114102981Y-94808500D01*
X114306408Y-94776280D01*
X114502290Y-94712634D01*
X114685803Y-94619129D01*
X114852430Y-94498068D01*
X114998068Y-94352430D01*
X115119129Y-94185803D01*
X115212634Y-94002290D01*
X115276280Y-93806408D01*
X115308500Y-93602981D01*
X115308500Y-93397019D01*
X115276280Y-93193592D01*
X115212634Y-92997710D01*
X115212632Y-92997707D01*
X115212632Y-92997705D01*
X115167536Y-92909201D01*
X115119129Y-92814197D01*
X115103661Y-92792908D01*
X114998073Y-92647576D01*
X114998069Y-92647571D01*
X114852428Y-92501930D01*
X114852423Y-92501926D01*
X114685806Y-92380873D01*
X114685805Y-92380872D01*
X114685803Y-92380871D01*
X114628496Y-92351671D01*
X114502294Y-92287367D01*
X114306408Y-92223719D01*
X114130794Y-92195905D01*
X114102981Y-92191500D01*
X113897019Y-92191500D01*
X113872550Y-92195375D01*
X113693591Y-92223719D01*
X113497705Y-92287367D01*
X113314193Y-92380873D01*
X113147576Y-92501926D01*
X113147571Y-92501930D01*
X113001930Y-92647571D01*
X113001926Y-92647576D01*
X112880873Y-92814193D01*
X112787367Y-92997705D01*
X112723719Y-93193591D01*
X112691500Y-93397019D01*
X111000000Y-93397019D01*
X111000000Y-88247600D01*
X111019685Y-88180561D01*
X111072489Y-88134806D01*
X111141647Y-88124862D01*
X111205203Y-88153887D01*
X111235720Y-88193798D01*
X111362740Y-88457558D01*
X111362742Y-88457561D01*
X111542519Y-88743675D01*
X111753201Y-89007862D01*
X111992138Y-89246799D01*
X112256325Y-89457481D01*
X112542439Y-89637258D01*
X112846883Y-89783871D01*
X112846889Y-89783873D01*
X113165816Y-89895471D01*
X113165828Y-89895475D01*
X113495264Y-89970666D01*
X113831042Y-90008499D01*
X113831043Y-90008500D01*
X113831046Y-90008500D01*
X114168957Y-90008500D01*
X114168957Y-90008499D01*
X114504736Y-89970666D01*
X114688215Y-89928788D01*
X114764733Y-89911324D01*
X114790113Y-89905531D01*
X114834172Y-89895475D01*
X115153117Y-89783871D01*
X115457561Y-89637258D01*
X115743675Y-89457481D01*
X116007862Y-89246799D01*
X116246799Y-89007862D01*
X116457481Y-88743675D01*
X116637258Y-88457561D01*
X116783871Y-88153117D01*
X116895475Y-87834172D01*
X116970666Y-87504736D01*
X117008500Y-87168954D01*
X117008500Y-86831046D01*
X116970666Y-86495264D01*
X116924110Y-86291289D01*
X116928383Y-86221554D01*
X116957318Y-86176021D01*
X117588522Y-85544819D01*
X117649845Y-85511334D01*
X117676203Y-85508500D01*
X120006197Y-85508500D01*
X120073236Y-85528185D01*
X120093878Y-85544819D01*
X120657700Y-86108641D01*
X120691185Y-86169964D01*
X120693308Y-86183065D01*
X120698011Y-86226802D01*
X120698011Y-86226804D01*
X120746094Y-86355715D01*
X120749111Y-86363804D01*
X120836739Y-86480861D01*
X120953796Y-86568489D01*
X121090799Y-86619589D01*
X121118050Y-86622518D01*
X121151345Y-86626099D01*
X121151360Y-86626099D01*
X121151362Y-86626100D01*
X121151364Y-86626100D01*
X121154669Y-86626277D01*
X121154659Y-86626455D01*
X121154665Y-86626456D01*
X121154653Y-86626559D01*
X121154586Y-86627813D01*
X121215790Y-86645785D01*
X121261545Y-86698589D01*
X121267342Y-86731389D01*
X121953554Y-87417600D01*
X121947339Y-87417600D01*
X121845606Y-87444859D01*
X121754394Y-87497520D01*
X121679920Y-87571994D01*
X121627259Y-87663206D01*
X121600000Y-87764939D01*
X121600000Y-87771153D01*
X120920524Y-87091677D01*
X120920523Y-87091677D01*
X120888143Y-87136244D01*
X120795244Y-87318568D01*
X120732009Y-87513182D01*
X120700000Y-87715282D01*
X120700000Y-87919917D01*
X120732009Y-88122017D01*
X120795244Y-88316631D01*
X120888141Y-88498950D01*
X120888147Y-88498959D01*
X120920523Y-88543521D01*
X120920524Y-88543522D01*
X121600000Y-87864046D01*
X121600000Y-87870261D01*
X121627259Y-87971994D01*
X121679920Y-88063206D01*
X121754394Y-88137680D01*
X121845606Y-88190341D01*
X121947339Y-88217600D01*
X121953553Y-88217600D01*
X121274076Y-88897074D01*
X121318650Y-88929459D01*
X121500968Y-89022355D01*
X121695582Y-89085590D01*
X121897683Y-89117600D01*
X122102317Y-89117600D01*
X122304417Y-89085590D01*
X122499031Y-89022355D01*
X122681349Y-88929459D01*
X122725084Y-88897682D01*
X146700000Y-88897682D01*
X146700000Y-89102317D01*
X146732009Y-89304417D01*
X146795244Y-89499031D01*
X146888141Y-89681350D01*
X146888147Y-89681359D01*
X146920523Y-89725921D01*
X146920524Y-89725922D01*
X147600000Y-89046446D01*
X147600000Y-89052661D01*
X147627259Y-89154394D01*
X147679920Y-89245606D01*
X147754394Y-89320080D01*
X147845606Y-89372741D01*
X147947339Y-89400000D01*
X147953553Y-89400000D01*
X147274076Y-90079474D01*
X147318650Y-90111859D01*
X147500968Y-90204755D01*
X147695582Y-90267990D01*
X147897683Y-90300000D01*
X148102317Y-90300000D01*
X148304417Y-90267990D01*
X148499031Y-90204755D01*
X148681349Y-90111859D01*
X148725921Y-90079474D01*
X148046447Y-89400000D01*
X148052661Y-89400000D01*
X148154394Y-89372741D01*
X148245606Y-89320080D01*
X148320080Y-89245606D01*
X148372741Y-89154394D01*
X148400000Y-89052661D01*
X148400000Y-89046447D01*
X149079474Y-89725921D01*
X149111859Y-89681349D01*
X149204755Y-89499031D01*
X149267990Y-89304417D01*
X149300000Y-89102317D01*
X149300000Y-88897682D01*
X149267990Y-88695582D01*
X149204755Y-88500968D01*
X149111859Y-88318650D01*
X149079474Y-88274077D01*
X149079474Y-88274076D01*
X148400000Y-88953551D01*
X148400000Y-88947339D01*
X148372741Y-88845606D01*
X148320080Y-88754394D01*
X148245606Y-88679920D01*
X148154394Y-88627259D01*
X148052661Y-88600000D01*
X148046446Y-88600000D01*
X148725922Y-87920524D01*
X148725921Y-87920523D01*
X148681359Y-87888147D01*
X148681350Y-87888141D01*
X148499031Y-87795244D01*
X148304417Y-87732009D01*
X148102317Y-87700000D01*
X147897683Y-87700000D01*
X147695582Y-87732009D01*
X147500968Y-87795244D01*
X147318644Y-87888143D01*
X147274077Y-87920523D01*
X147274077Y-87920524D01*
X147953554Y-88600000D01*
X147947339Y-88600000D01*
X147845606Y-88627259D01*
X147754394Y-88679920D01*
X147679920Y-88754394D01*
X147627259Y-88845606D01*
X147600000Y-88947339D01*
X147600000Y-88953553D01*
X146920524Y-88274077D01*
X146920523Y-88274077D01*
X146888143Y-88318644D01*
X146795244Y-88500968D01*
X146732009Y-88695582D01*
X146700000Y-88897682D01*
X122725084Y-88897682D01*
X122725921Y-88897074D01*
X122046447Y-88217600D01*
X122052661Y-88217600D01*
X122154394Y-88190341D01*
X122245606Y-88137680D01*
X122320080Y-88063206D01*
X122372741Y-87971994D01*
X122400000Y-87870261D01*
X122400000Y-87864046D01*
X123079474Y-88543521D01*
X123111861Y-88498947D01*
X123111861Y-88498946D01*
X123123595Y-88475919D01*
X123123595Y-88475918D01*
X123204754Y-88316634D01*
X123267990Y-88122017D01*
X123300000Y-87919917D01*
X123300000Y-87715282D01*
X123267990Y-87513182D01*
X123204755Y-87318568D01*
X123111857Y-87136247D01*
X123029568Y-87022985D01*
X123006088Y-86957179D01*
X123021913Y-86889125D01*
X123072019Y-86840430D01*
X123129886Y-86826100D01*
X127619932Y-86826100D01*
X127686971Y-86845785D01*
X127732726Y-86898589D01*
X127739707Y-86918005D01*
X127783804Y-87082574D01*
X127874520Y-87301583D01*
X127874523Y-87301588D01*
X127874526Y-87301595D01*
X127993061Y-87506904D01*
X127993063Y-87506907D01*
X127993064Y-87506908D01*
X128137379Y-87694983D01*
X128137385Y-87694990D01*
X128305009Y-87862614D01*
X128305016Y-87862620D01*
X128353731Y-87900000D01*
X128493096Y-88006939D01*
X128698405Y-88125474D01*
X128698410Y-88125476D01*
X128698416Y-88125479D01*
X128765124Y-88153110D01*
X128917430Y-88216197D01*
X129146422Y-88277556D01*
X129381465Y-88308500D01*
X129381472Y-88308500D01*
X129618528Y-88308500D01*
X129618535Y-88308500D01*
X129853578Y-88277556D01*
X130082570Y-88216197D01*
X130301595Y-88125474D01*
X130506904Y-88006939D01*
X130694985Y-87862619D01*
X130862619Y-87694985D01*
X131006939Y-87506904D01*
X131125474Y-87301595D01*
X131216197Y-87082570D01*
X131277556Y-86853578D01*
X131308500Y-86618535D01*
X131308500Y-86381471D01*
X132691500Y-86381471D01*
X132691500Y-86618528D01*
X132691501Y-86618544D01*
X132722443Y-86853574D01*
X132783803Y-87082570D01*
X132874520Y-87301583D01*
X132874523Y-87301588D01*
X132874526Y-87301595D01*
X132993061Y-87506904D01*
X132993063Y-87506907D01*
X132993064Y-87506908D01*
X133137379Y-87694983D01*
X133137385Y-87694990D01*
X133305009Y-87862614D01*
X133305016Y-87862620D01*
X133353731Y-87900000D01*
X133493096Y-88006939D01*
X133698405Y-88125474D01*
X133698410Y-88125476D01*
X133698416Y-88125479D01*
X133765124Y-88153110D01*
X133917430Y-88216197D01*
X134146422Y-88277556D01*
X134381465Y-88308500D01*
X134381472Y-88308500D01*
X134618528Y-88308500D01*
X134618535Y-88308500D01*
X134853578Y-88277556D01*
X135082570Y-88216197D01*
X135301595Y-88125474D01*
X135506904Y-88006939D01*
X135694985Y-87862619D01*
X135862619Y-87694985D01*
X136006939Y-87506904D01*
X136125474Y-87301595D01*
X136216197Y-87082570D01*
X136268149Y-86888682D01*
X136300239Y-86833100D01*
X136588523Y-86544816D01*
X136649845Y-86511334D01*
X136676203Y-86508500D01*
X140870114Y-86508500D01*
X140937153Y-86528185D01*
X140982908Y-86580989D01*
X140992852Y-86650147D01*
X140970432Y-86705385D01*
X140888142Y-86818647D01*
X140795244Y-87000968D01*
X140732009Y-87195582D01*
X140700000Y-87397682D01*
X140700000Y-87602317D01*
X140732009Y-87804417D01*
X140795244Y-87999031D01*
X140888141Y-88181350D01*
X140888147Y-88181359D01*
X140920523Y-88225921D01*
X140920524Y-88225922D01*
X141600000Y-87546446D01*
X141600000Y-87552661D01*
X141627259Y-87654394D01*
X141679920Y-87745606D01*
X141754394Y-87820080D01*
X141845606Y-87872741D01*
X141947339Y-87900000D01*
X141953553Y-87900000D01*
X141274076Y-88579474D01*
X141318650Y-88611859D01*
X141500968Y-88704755D01*
X141695582Y-88767990D01*
X141897683Y-88800000D01*
X142102317Y-88800000D01*
X142289562Y-88770343D01*
X142304417Y-88767990D01*
X142499031Y-88704755D01*
X142681349Y-88611859D01*
X142725921Y-88579474D01*
X142046447Y-87900000D01*
X142052661Y-87900000D01*
X142154394Y-87872741D01*
X142245606Y-87820080D01*
X142320080Y-87745606D01*
X142372741Y-87654394D01*
X142400000Y-87552661D01*
X142400000Y-87546447D01*
X143079474Y-88225921D01*
X143111859Y-88181349D01*
X143204755Y-87999029D01*
X143227359Y-87929465D01*
X143227359Y-87929464D01*
X143267990Y-87804417D01*
X143300000Y-87602317D01*
X143300000Y-87397691D01*
X143299998Y-87397674D01*
X143299894Y-87397019D01*
X153331500Y-87397019D01*
X153331500Y-87602980D01*
X153363719Y-87806408D01*
X153427367Y-88002294D01*
X153458404Y-88063206D01*
X153518602Y-88181350D01*
X153520873Y-88185806D01*
X153641925Y-88352422D01*
X153641929Y-88352426D01*
X153641932Y-88352430D01*
X153701821Y-88412319D01*
X153735305Y-88473643D01*
X153730320Y-88543334D01*
X153701821Y-88587681D01*
X153641925Y-88647577D01*
X153520873Y-88814193D01*
X153427367Y-88997705D01*
X153363719Y-89193591D01*
X153331500Y-89397019D01*
X153331500Y-89602980D01*
X153363719Y-89806408D01*
X153427367Y-90002294D01*
X153520873Y-90185806D01*
X153641926Y-90352423D01*
X153641930Y-90352428D01*
X153641932Y-90352430D01*
X153787570Y-90498068D01*
X153787575Y-90498072D01*
X153788237Y-90498637D01*
X153788421Y-90498919D01*
X153791015Y-90501513D01*
X153790470Y-90502057D01*
X153826430Y-90557144D01*
X153826930Y-90627012D01*
X153789576Y-90686058D01*
X153751041Y-90709109D01*
X153643795Y-90749111D01*
X153526739Y-90836739D01*
X153439111Y-90953795D01*
X153388011Y-91090795D01*
X153388011Y-91090797D01*
X153381500Y-91151345D01*
X153381500Y-92848654D01*
X153388011Y-92909202D01*
X153388011Y-92909204D01*
X153421023Y-92997710D01*
X153439111Y-93046204D01*
X153526739Y-93163261D01*
X153643796Y-93250889D01*
X153780799Y-93301989D01*
X153808050Y-93304918D01*
X153841345Y-93308499D01*
X153841362Y-93308500D01*
X155438638Y-93308500D01*
X155438654Y-93308499D01*
X155465692Y-93305591D01*
X155499201Y-93301989D01*
X155636204Y-93250889D01*
X155753261Y-93163261D01*
X155840889Y-93046204D01*
X155891989Y-92909201D01*
X155895591Y-92875692D01*
X155898499Y-92848654D01*
X155898500Y-92848637D01*
X155898500Y-91151362D01*
X155898499Y-91151345D01*
X155895157Y-91120270D01*
X155891989Y-91090799D01*
X155840889Y-90953796D01*
X155753261Y-90836739D01*
X155636204Y-90749111D01*
X155528958Y-90709109D01*
X155473025Y-90667237D01*
X155448609Y-90601773D01*
X155463462Y-90533500D01*
X155489231Y-90501759D01*
X155488985Y-90501513D01*
X155491354Y-90499143D01*
X155491773Y-90498628D01*
X155492415Y-90498078D01*
X155492430Y-90498068D01*
X155638068Y-90352430D01*
X155759129Y-90185803D01*
X155852634Y-90002290D01*
X155916280Y-89806408D01*
X155948500Y-89602981D01*
X155948500Y-89397019D01*
X155916280Y-89193592D01*
X155852634Y-88997710D01*
X155852632Y-88997707D01*
X155852632Y-88997705D01*
X155801357Y-88897074D01*
X155759129Y-88814197D01*
X155707891Y-88743673D01*
X155638073Y-88647576D01*
X155638069Y-88647571D01*
X155578179Y-88587681D01*
X155544694Y-88526358D01*
X155549678Y-88456666D01*
X155578179Y-88412319D01*
X155638068Y-88352430D01*
X155759129Y-88185803D01*
X155852634Y-88002290D01*
X155916280Y-87806408D01*
X155948500Y-87602981D01*
X155948500Y-87397019D01*
X155940357Y-87345606D01*
X155916280Y-87193591D01*
X155860846Y-87022985D01*
X155852634Y-86997710D01*
X155852632Y-86997707D01*
X155852632Y-86997705D01*
X155797307Y-86889125D01*
X155759129Y-86814197D01*
X155698966Y-86731389D01*
X155638073Y-86647576D01*
X155638069Y-86647571D01*
X155492428Y-86501930D01*
X155492423Y-86501926D01*
X155325806Y-86380873D01*
X155325805Y-86380872D01*
X155325803Y-86380871D01*
X155276432Y-86355715D01*
X155225636Y-86307740D01*
X155208841Y-86239919D01*
X155231379Y-86173784D01*
X155276434Y-86134744D01*
X155321349Y-86111859D01*
X155365921Y-86079474D01*
X154748997Y-85462550D01*
X154823343Y-85442630D01*
X154931657Y-85380095D01*
X155020095Y-85291657D01*
X155082630Y-85183343D01*
X155102550Y-85108997D01*
X155719474Y-85725921D01*
X155751859Y-85681349D01*
X155844755Y-85499031D01*
X155907990Y-85304417D01*
X155940000Y-85102317D01*
X155940000Y-84897682D01*
X155907990Y-84695582D01*
X155844755Y-84500968D01*
X155751859Y-84318650D01*
X155719474Y-84274077D01*
X155719474Y-84274076D01*
X155102550Y-84891001D01*
X155082630Y-84816657D01*
X155020095Y-84708343D01*
X154931657Y-84619905D01*
X154823343Y-84557370D01*
X154748996Y-84537449D01*
X155365922Y-83920524D01*
X155365921Y-83920523D01*
X155321359Y-83888147D01*
X155321350Y-83888141D01*
X155139031Y-83795244D01*
X154944417Y-83732009D01*
X154742317Y-83700000D01*
X154537683Y-83700000D01*
X154335582Y-83732009D01*
X154140968Y-83795244D01*
X153958644Y-83888143D01*
X153914077Y-83920523D01*
X153914077Y-83920524D01*
X154531003Y-84537449D01*
X154456657Y-84557370D01*
X154348343Y-84619905D01*
X154259905Y-84708343D01*
X154197370Y-84816657D01*
X154177449Y-84891002D01*
X153560524Y-84274077D01*
X153560523Y-84274077D01*
X153528143Y-84318644D01*
X153435244Y-84500968D01*
X153372009Y-84695582D01*
X153340000Y-84897682D01*
X153340000Y-85102317D01*
X153372009Y-85304417D01*
X153435244Y-85499031D01*
X153528141Y-85681350D01*
X153528147Y-85681359D01*
X153560523Y-85725921D01*
X153560524Y-85725922D01*
X154177449Y-85108997D01*
X154197370Y-85183343D01*
X154259905Y-85291657D01*
X154348343Y-85380095D01*
X154456657Y-85442630D01*
X154531002Y-85462550D01*
X153914076Y-86079474D01*
X153958652Y-86111861D01*
X154003566Y-86134745D01*
X154054362Y-86182718D01*
X154071158Y-86250539D01*
X154048621Y-86316674D01*
X154003568Y-86355714D01*
X153954195Y-86380871D01*
X153787576Y-86501926D01*
X153787571Y-86501930D01*
X153641930Y-86647571D01*
X153641926Y-86647576D01*
X153520873Y-86814193D01*
X153427367Y-86997705D01*
X153363719Y-87193591D01*
X153331500Y-87397019D01*
X143299894Y-87397019D01*
X143267990Y-87195582D01*
X143204755Y-87000968D01*
X143111859Y-86818650D01*
X143029568Y-86705387D01*
X143006088Y-86639581D01*
X143021913Y-86571527D01*
X143072019Y-86522832D01*
X143129886Y-86508501D01*
X143245421Y-86508501D01*
X143245422Y-86508501D01*
X143479941Y-86471356D01*
X143705763Y-86397982D01*
X143917327Y-86290185D01*
X144109421Y-86150620D01*
X144715222Y-85544819D01*
X144776545Y-85511334D01*
X144802903Y-85508500D01*
X148118727Y-85508500D01*
X148353241Y-85471356D01*
X148579063Y-85397982D01*
X148790627Y-85290185D01*
X148982722Y-85150620D01*
X149150620Y-84982722D01*
X149290185Y-84790627D01*
X149397982Y-84579063D01*
X149471356Y-84353241D01*
X149476836Y-84318644D01*
X149508500Y-84118727D01*
X149508500Y-83881272D01*
X149471356Y-83646758D01*
X149426894Y-83509919D01*
X149397982Y-83420937D01*
X149290185Y-83209373D01*
X149150620Y-83017278D01*
X148982722Y-82849380D01*
X148790627Y-82709815D01*
X148579067Y-82602019D01*
X148353241Y-82528643D01*
X148118727Y-82491500D01*
X148118722Y-82491500D01*
X144250557Y-82491500D01*
X144250533Y-82491499D01*
X144245422Y-82491499D01*
X144007978Y-82491499D01*
X144007973Y-82491499D01*
X143773464Y-82528642D01*
X143773462Y-82528642D01*
X143773459Y-82528643D01*
X143660548Y-82565330D01*
X143547632Y-82602019D01*
X143336072Y-82709815D01*
X143143975Y-82849382D01*
X142976077Y-83017281D01*
X142491108Y-83502249D01*
X142429785Y-83535734D01*
X142365114Y-83532501D01*
X142353241Y-83528643D01*
X142118727Y-83491500D01*
X142118722Y-83491500D01*
X135881278Y-83491500D01*
X135881273Y-83491500D01*
X135646758Y-83528643D01*
X135420932Y-83602019D01*
X135209372Y-83709815D01*
X135017275Y-83849382D01*
X134849377Y-84017281D01*
X134166901Y-84699756D01*
X134111315Y-84731849D01*
X133917435Y-84783801D01*
X133917428Y-84783803D01*
X133698416Y-84874520D01*
X133698402Y-84874527D01*
X133493091Y-84993064D01*
X133305016Y-85137379D01*
X133305009Y-85137385D01*
X133137385Y-85305009D01*
X133137379Y-85305016D01*
X132993064Y-85493091D01*
X132993061Y-85493095D01*
X132993061Y-85493096D01*
X132984168Y-85508500D01*
X132874527Y-85698402D01*
X132874520Y-85698416D01*
X132783803Y-85917429D01*
X132722443Y-86146425D01*
X132691501Y-86381455D01*
X132691500Y-86381471D01*
X131308500Y-86381471D01*
X131308500Y-86381465D01*
X131277556Y-86146422D01*
X131216197Y-85917430D01*
X131136872Y-85725922D01*
X131125479Y-85698416D01*
X131125476Y-85698410D01*
X131125474Y-85698405D01*
X131006939Y-85493096D01*
X130862619Y-85305015D01*
X130862614Y-85305009D01*
X130694990Y-85137385D01*
X130694983Y-85137379D01*
X130506908Y-84993064D01*
X130506907Y-84993063D01*
X130506904Y-84993061D01*
X130301595Y-84874526D01*
X130301583Y-84874520D01*
X130082571Y-84783803D01*
X130082564Y-84783801D01*
X129888684Y-84731849D01*
X129833098Y-84699756D01*
X129472560Y-84339219D01*
X129472540Y-84339197D01*
X129300325Y-84166983D01*
X129300324Y-84166982D01*
X129300322Y-84166980D01*
X129108227Y-84027415D01*
X128896663Y-83919618D01*
X128670841Y-83846244D01*
X128670839Y-83846243D01*
X128670837Y-83846243D01*
X128507094Y-83820308D01*
X128436322Y-83809099D01*
X128198878Y-83809099D01*
X128193767Y-83809099D01*
X128193743Y-83809100D01*
X122676203Y-83809100D01*
X122609164Y-83789415D01*
X122588522Y-83772781D01*
X121837360Y-83021619D01*
X121837340Y-83021597D01*
X121665125Y-82849383D01*
X121665124Y-82849382D01*
X121665122Y-82849380D01*
X121473027Y-82709815D01*
X121261463Y-82602018D01*
X121035641Y-82528644D01*
X121035635Y-82528643D01*
X121035638Y-82528643D01*
X121035585Y-82528634D01*
X120831093Y-82496246D01*
X120801122Y-82491499D01*
X120563678Y-82491499D01*
X120558567Y-82491499D01*
X120558543Y-82491500D01*
X117123857Y-82491500D01*
X117123833Y-82491499D01*
X117118722Y-82491499D01*
X116881278Y-82491499D01*
X116854703Y-82495708D01*
X116646814Y-82528634D01*
X116646758Y-82528644D01*
X116420934Y-82602019D01*
X116209372Y-82709815D01*
X116017275Y-82849382D01*
X115849377Y-83017281D01*
X114823979Y-84042678D01*
X114762656Y-84076163D01*
X114708706Y-84075888D01*
X114504739Y-84029334D01*
X114504723Y-84029332D01*
X114168958Y-83991500D01*
X114168954Y-83991500D01*
X113831046Y-83991500D01*
X113831041Y-83991500D01*
X113495276Y-84029332D01*
X113495260Y-84029334D01*
X113165828Y-84104524D01*
X113165816Y-84104528D01*
X112846889Y-84216126D01*
X112846875Y-84216132D01*
X112542441Y-84362740D01*
X112256326Y-84542518D01*
X111992138Y-84753200D01*
X111753200Y-84992138D01*
X111542518Y-85256326D01*
X111362740Y-85542441D01*
X111235720Y-85806201D01*
X111188897Y-85858060D01*
X111121470Y-85876373D01*
X111054846Y-85855325D01*
X111010178Y-85801599D01*
X111000000Y-85752399D01*
X111000000Y-81798905D01*
X155350000Y-81798905D01*
X155350000Y-82061094D01*
X155384220Y-82321009D01*
X155384222Y-82321020D01*
X155452075Y-82574255D01*
X155552404Y-82816471D01*
X155552409Y-82816482D01*
X155683488Y-83043516D01*
X155683494Y-83043524D01*
X155770080Y-83156365D01*
X156377912Y-82548532D01*
X156472829Y-82679175D01*
X156600825Y-82807171D01*
X156731465Y-82902086D01*
X156123633Y-83509917D01*
X156123633Y-83509918D01*
X156236475Y-83596505D01*
X156236483Y-83596511D01*
X156463517Y-83727590D01*
X156463528Y-83727595D01*
X156705744Y-83827924D01*
X156958979Y-83895777D01*
X156958990Y-83895779D01*
X157218905Y-83929999D01*
X157218920Y-83930000D01*
X157481080Y-83930000D01*
X157481094Y-83929999D01*
X157741009Y-83895779D01*
X157741020Y-83895777D01*
X157994255Y-83827924D01*
X158236471Y-83727595D01*
X158236482Y-83727590D01*
X158463516Y-83596511D01*
X158463534Y-83596499D01*
X158576365Y-83509919D01*
X158576365Y-83509917D01*
X157968534Y-82902086D01*
X158099175Y-82807171D01*
X158227171Y-82679175D01*
X158322086Y-82548534D01*
X158929917Y-83156365D01*
X158929919Y-83156365D01*
X159016499Y-83043534D01*
X159016511Y-83043516D01*
X159147590Y-82816482D01*
X159147595Y-82816471D01*
X159247924Y-82574255D01*
X159315777Y-82321020D01*
X159315779Y-82321009D01*
X159349999Y-82061094D01*
X159350000Y-82061080D01*
X159350000Y-81798919D01*
X159349999Y-81798905D01*
X159315779Y-81538990D01*
X159315777Y-81538979D01*
X159247924Y-81285744D01*
X159147595Y-81043528D01*
X159147590Y-81043517D01*
X159016511Y-80816483D01*
X159016505Y-80816475D01*
X158929918Y-80703633D01*
X158929917Y-80703633D01*
X158322085Y-81311465D01*
X158227171Y-81180825D01*
X158099175Y-81052829D01*
X157968532Y-80957912D01*
X158576365Y-80350080D01*
X158463524Y-80263494D01*
X158463516Y-80263488D01*
X158236482Y-80132409D01*
X158236471Y-80132404D01*
X157994255Y-80032075D01*
X157741020Y-79964222D01*
X157741009Y-79964220D01*
X157481094Y-79930000D01*
X157218905Y-79930000D01*
X156958990Y-79964220D01*
X156958979Y-79964222D01*
X156705744Y-80032075D01*
X156463528Y-80132404D01*
X156463517Y-80132409D01*
X156236471Y-80263496D01*
X156123633Y-80350079D01*
X156123633Y-80350080D01*
X156731466Y-80957913D01*
X156600825Y-81052829D01*
X156472829Y-81180825D01*
X156377913Y-81311466D01*
X155770080Y-80703633D01*
X155770079Y-80703633D01*
X155683496Y-80816471D01*
X155552409Y-81043517D01*
X155552404Y-81043528D01*
X155452075Y-81285744D01*
X155384222Y-81538979D01*
X155384220Y-81538990D01*
X155350000Y-81798905D01*
X111000000Y-81798905D01*
X111000000Y-79125102D01*
X111019685Y-79058063D01*
X111072489Y-79012308D01*
X111125096Y-79001107D01*
X167377098Y-79498912D01*
G37*
%TD.AperFunction*%
%TD*%
M02*
