%TF.GenerationSoftware,KiCad,Pcbnew,9.0.1*%
%TF.CreationDate,2025-04-18T11:59:31+09:00*%
%TF.ProjectId,Langstone-controller,4c616e67-7374-46f6-9e65-2d636f6e7472,rev?*%
%TF.SameCoordinates,Original*%
%TF.FileFunction,Soldermask,Bot*%
%TF.FilePolarity,Negative*%
%FSLAX46Y46*%
G04 Gerber Fmt 4.6, Leading zero omitted, Abs format (unit mm)*
G04 Created by KiCad (PCBNEW 9.0.1) date 2025-04-18 11:59:31*
%MOMM*%
%LPD*%
G01*
G04 APERTURE LIST*
G04 Aperture macros list*
%AMRoundRect*
0 Rectangle with rounded corners*
0 $1 Rounding radius*
0 $2 $3 $4 $5 $6 $7 $8 $9 X,Y pos of 4 corners*
0 Add a 4 corners polygon primitive as box body*
4,1,4,$2,$3,$4,$5,$6,$7,$8,$9,$2,$3,0*
0 Add four circle primitives for the rounded corners*
1,1,$1+$1,$2,$3*
1,1,$1+$1,$4,$5*
1,1,$1+$1,$6,$7*
1,1,$1+$1,$8,$9*
0 Add four rect primitives between the rounded corners*
20,1,$1+$1,$2,$3,$4,$5,0*
20,1,$1+$1,$4,$5,$6,$7,0*
20,1,$1+$1,$6,$7,$8,$9,0*
20,1,$1+$1,$8,$9,$2,$3,0*%
G04 Aperture macros list end*
%ADD10RoundRect,0.250000X-0.845000X0.620000X-0.845000X-0.620000X0.845000X-0.620000X0.845000X0.620000X0*%
%ADD11O,2.190000X1.740000*%
%ADD12R,1.600000X1.600000*%
%ADD13O,1.600000X1.600000*%
%ADD14C,3.200000*%
%ADD15C,1.600000*%
%ADD16C,2.600000*%
%ADD17RoundRect,0.250000X0.845000X-0.620000X0.845000X0.620000X-0.845000X0.620000X-0.845000X-0.620000X0*%
%ADD18C,5.000000*%
%ADD19R,1.500000X1.600000*%
%ADD20C,3.000000*%
%ADD21RoundRect,0.250000X0.550000X-0.550000X0.550000X0.550000X-0.550000X0.550000X-0.550000X-0.550000X0*%
G04 APERTURE END LIST*
D10*
%TO.C,J6*%
X113980000Y-114225000D03*
D11*
X113980000Y-116765000D03*
%TD*%
D12*
%TO.C,D1*%
X121000000Y-107310000D03*
D13*
X121000000Y-99690000D03*
%TD*%
D14*
%TO.C,H1*%
X122500000Y-120000000D03*
%TD*%
D12*
%TO.C,C6*%
X147000000Y-102317600D03*
D15*
X147000000Y-104817600D03*
%TD*%
D16*
%TO.C,L2*%
X133000000Y-104000000D03*
X138000000Y-104000000D03*
%TD*%
D17*
%TO.C,J4*%
X164500000Y-124620000D03*
D11*
X164500000Y-122080000D03*
X164500000Y-119540000D03*
X164500000Y-117000000D03*
%TD*%
D14*
%TO.C,H2*%
X155000000Y-120000000D03*
%TD*%
D15*
%TO.C,R1*%
X126500000Y-105815000D03*
D13*
X126500000Y-100735000D03*
%TD*%
D16*
%TO.C,L1*%
X129500000Y-86500000D03*
X134500000Y-86500000D03*
%TD*%
D12*
%TO.C,C3*%
X142000000Y-85000000D03*
D15*
X142000000Y-87500000D03*
%TD*%
%TO.C,R2*%
X147500000Y-122080000D03*
D13*
X147500000Y-117000000D03*
%TD*%
D18*
%TO.C,H3*%
X114000000Y-87000000D03*
%TD*%
D15*
%TO.C,C4*%
X148000000Y-84000000D03*
X148000000Y-89000000D03*
%TD*%
D19*
%TO.C,J1*%
X154640000Y-92000000D03*
D15*
X154640000Y-89500000D03*
X154640000Y-87500000D03*
X154640000Y-85000000D03*
D20*
X157350000Y-95070000D03*
X157350000Y-81930000D03*
%TD*%
D17*
%TO.C,J5*%
X164520000Y-111000000D03*
D11*
X164520000Y-108460000D03*
%TD*%
D21*
%TO.C,U1*%
X129190000Y-123805000D03*
D15*
X131730000Y-123805000D03*
X134270000Y-123805000D03*
X136810000Y-123805000D03*
X136810000Y-116185000D03*
X134270000Y-116185000D03*
X131730000Y-116185000D03*
X129190000Y-116185000D03*
%TD*%
%TO.C,C1*%
X114000000Y-93500000D03*
X114000000Y-98500000D03*
%TD*%
D17*
%TO.C,J3*%
X164500000Y-102540000D03*
D11*
X164500000Y-100000000D03*
%TD*%
D12*
%TO.C,C2*%
X122000000Y-85317600D03*
D15*
X122000000Y-87817600D03*
%TD*%
D18*
%TO.C,H4*%
X114000000Y-104000000D03*
%TD*%
D15*
%TO.C,C5*%
X155000000Y-101500000D03*
X155000000Y-106500000D03*
%TD*%
%TO.C,R3*%
X142500000Y-117500000D03*
D13*
X142500000Y-122580000D03*
%TD*%
M02*
