%TF.GenerationSoftware,KiCad,Pcbnew,9.0.1*%
%TF.CreationDate,2025-04-18T11:59:30+09:00*%
%TF.ProjectId,Langstone-controller,4c616e67-7374-46f6-9e65-2d636f6e7472,rev?*%
%TF.SameCoordinates,Original*%
%TF.FileFunction,Legend,Top*%
%TF.FilePolarity,Positive*%
%FSLAX46Y46*%
G04 Gerber Fmt 4.6, Leading zero omitted, Abs format (unit mm)*
G04 Created by KiCad (PCBNEW 9.0.1) date 2025-04-18 11:59:30*
%MOMM*%
%LPD*%
G01*
G04 APERTURE LIST*
%ADD10C,0.150000*%
%ADD11C,0.120000*%
G04 APERTURE END LIST*
D10*
X117954819Y-114833333D02*
X118669104Y-114833333D01*
X118669104Y-114833333D02*
X118811961Y-114880952D01*
X118811961Y-114880952D02*
X118907200Y-114976190D01*
X118907200Y-114976190D02*
X118954819Y-115119047D01*
X118954819Y-115119047D02*
X118954819Y-115214285D01*
X117954819Y-113928571D02*
X117954819Y-114119047D01*
X117954819Y-114119047D02*
X118002438Y-114214285D01*
X118002438Y-114214285D02*
X118050057Y-114261904D01*
X118050057Y-114261904D02*
X118192914Y-114357142D01*
X118192914Y-114357142D02*
X118383390Y-114404761D01*
X118383390Y-114404761D02*
X118764342Y-114404761D01*
X118764342Y-114404761D02*
X118859580Y-114357142D01*
X118859580Y-114357142D02*
X118907200Y-114309523D01*
X118907200Y-114309523D02*
X118954819Y-114214285D01*
X118954819Y-114214285D02*
X118954819Y-114023809D01*
X118954819Y-114023809D02*
X118907200Y-113928571D01*
X118907200Y-113928571D02*
X118859580Y-113880952D01*
X118859580Y-113880952D02*
X118764342Y-113833333D01*
X118764342Y-113833333D02*
X118526247Y-113833333D01*
X118526247Y-113833333D02*
X118431009Y-113880952D01*
X118431009Y-113880952D02*
X118383390Y-113928571D01*
X118383390Y-113928571D02*
X118335771Y-114023809D01*
X118335771Y-114023809D02*
X118335771Y-114214285D01*
X118335771Y-114214285D02*
X118383390Y-114309523D01*
X118383390Y-114309523D02*
X118431009Y-114357142D01*
X118431009Y-114357142D02*
X118526247Y-114404761D01*
X118454819Y-106738094D02*
X117454819Y-106738094D01*
X117454819Y-106738094D02*
X117454819Y-106499999D01*
X117454819Y-106499999D02*
X117502438Y-106357142D01*
X117502438Y-106357142D02*
X117597676Y-106261904D01*
X117597676Y-106261904D02*
X117692914Y-106214285D01*
X117692914Y-106214285D02*
X117883390Y-106166666D01*
X117883390Y-106166666D02*
X118026247Y-106166666D01*
X118026247Y-106166666D02*
X118216723Y-106214285D01*
X118216723Y-106214285D02*
X118311961Y-106261904D01*
X118311961Y-106261904D02*
X118407200Y-106357142D01*
X118407200Y-106357142D02*
X118454819Y-106499999D01*
X118454819Y-106499999D02*
X118454819Y-106738094D01*
X118454819Y-105214285D02*
X118454819Y-105785713D01*
X118454819Y-105499999D02*
X117454819Y-105499999D01*
X117454819Y-105499999D02*
X117597676Y-105595237D01*
X117597676Y-105595237D02*
X117692914Y-105690475D01*
X117692914Y-105690475D02*
X117740533Y-105785713D01*
X119654819Y-107571904D02*
X118654819Y-107571904D01*
X119654819Y-107000476D02*
X119083390Y-107429047D01*
X118654819Y-107000476D02*
X119226247Y-107571904D01*
X151759580Y-103734266D02*
X151807200Y-103781885D01*
X151807200Y-103781885D02*
X151854819Y-103924742D01*
X151854819Y-103924742D02*
X151854819Y-104019980D01*
X151854819Y-104019980D02*
X151807200Y-104162837D01*
X151807200Y-104162837D02*
X151711961Y-104258075D01*
X151711961Y-104258075D02*
X151616723Y-104305694D01*
X151616723Y-104305694D02*
X151426247Y-104353313D01*
X151426247Y-104353313D02*
X151283390Y-104353313D01*
X151283390Y-104353313D02*
X151092914Y-104305694D01*
X151092914Y-104305694D02*
X150997676Y-104258075D01*
X150997676Y-104258075D02*
X150902438Y-104162837D01*
X150902438Y-104162837D02*
X150854819Y-104019980D01*
X150854819Y-104019980D02*
X150854819Y-103924742D01*
X150854819Y-103924742D02*
X150902438Y-103781885D01*
X150902438Y-103781885D02*
X150950057Y-103734266D01*
X150854819Y-102877123D02*
X150854819Y-103067599D01*
X150854819Y-103067599D02*
X150902438Y-103162837D01*
X150902438Y-103162837D02*
X150950057Y-103210456D01*
X150950057Y-103210456D02*
X151092914Y-103305694D01*
X151092914Y-103305694D02*
X151283390Y-103353313D01*
X151283390Y-103353313D02*
X151664342Y-103353313D01*
X151664342Y-103353313D02*
X151759580Y-103305694D01*
X151759580Y-103305694D02*
X151807200Y-103258075D01*
X151807200Y-103258075D02*
X151854819Y-103162837D01*
X151854819Y-103162837D02*
X151854819Y-102972361D01*
X151854819Y-102972361D02*
X151807200Y-102877123D01*
X151807200Y-102877123D02*
X151759580Y-102829504D01*
X151759580Y-102829504D02*
X151664342Y-102781885D01*
X151664342Y-102781885D02*
X151426247Y-102781885D01*
X151426247Y-102781885D02*
X151331009Y-102829504D01*
X151331009Y-102829504D02*
X151283390Y-102877123D01*
X151283390Y-102877123D02*
X151235771Y-102972361D01*
X151235771Y-102972361D02*
X151235771Y-103162837D01*
X151235771Y-103162837D02*
X151283390Y-103258075D01*
X151283390Y-103258075D02*
X151331009Y-103305694D01*
X151331009Y-103305694D02*
X151426247Y-103353313D01*
X135333333Y-97954819D02*
X134857143Y-97954819D01*
X134857143Y-97954819D02*
X134857143Y-96954819D01*
X135619048Y-97050057D02*
X135666667Y-97002438D01*
X135666667Y-97002438D02*
X135761905Y-96954819D01*
X135761905Y-96954819D02*
X136000000Y-96954819D01*
X136000000Y-96954819D02*
X136095238Y-97002438D01*
X136095238Y-97002438D02*
X136142857Y-97050057D01*
X136142857Y-97050057D02*
X136190476Y-97145295D01*
X136190476Y-97145295D02*
X136190476Y-97240533D01*
X136190476Y-97240533D02*
X136142857Y-97383390D01*
X136142857Y-97383390D02*
X135571429Y-97954819D01*
X135571429Y-97954819D02*
X136190476Y-97954819D01*
X159834819Y-121143333D02*
X160549104Y-121143333D01*
X160549104Y-121143333D02*
X160691961Y-121190952D01*
X160691961Y-121190952D02*
X160787200Y-121286190D01*
X160787200Y-121286190D02*
X160834819Y-121429047D01*
X160834819Y-121429047D02*
X160834819Y-121524285D01*
X160168152Y-120238571D02*
X160834819Y-120238571D01*
X159787200Y-120476666D02*
X160501485Y-120714761D01*
X160501485Y-120714761D02*
X160501485Y-120095714D01*
X127954819Y-97666666D02*
X127478628Y-97999999D01*
X127954819Y-98238094D02*
X126954819Y-98238094D01*
X126954819Y-98238094D02*
X126954819Y-97857142D01*
X126954819Y-97857142D02*
X127002438Y-97761904D01*
X127002438Y-97761904D02*
X127050057Y-97714285D01*
X127050057Y-97714285D02*
X127145295Y-97666666D01*
X127145295Y-97666666D02*
X127288152Y-97666666D01*
X127288152Y-97666666D02*
X127383390Y-97714285D01*
X127383390Y-97714285D02*
X127431009Y-97761904D01*
X127431009Y-97761904D02*
X127478628Y-97857142D01*
X127478628Y-97857142D02*
X127478628Y-98238094D01*
X127954819Y-96714285D02*
X127954819Y-97285713D01*
X127954819Y-96999999D02*
X126954819Y-96999999D01*
X126954819Y-96999999D02*
X127097676Y-97095237D01*
X127097676Y-97095237D02*
X127192914Y-97190475D01*
X127192914Y-97190475D02*
X127240533Y-97285713D01*
X126333333Y-93954819D02*
X125857143Y-93954819D01*
X125857143Y-93954819D02*
X125857143Y-92954819D01*
X127190476Y-93954819D02*
X126619048Y-93954819D01*
X126904762Y-93954819D02*
X126904762Y-92954819D01*
X126904762Y-92954819D02*
X126809524Y-93097676D01*
X126809524Y-93097676D02*
X126714286Y-93192914D01*
X126714286Y-93192914D02*
X126619048Y-93240533D01*
X141859580Y-92666666D02*
X141907200Y-92714285D01*
X141907200Y-92714285D02*
X141954819Y-92857142D01*
X141954819Y-92857142D02*
X141954819Y-92952380D01*
X141954819Y-92952380D02*
X141907200Y-93095237D01*
X141907200Y-93095237D02*
X141811961Y-93190475D01*
X141811961Y-93190475D02*
X141716723Y-93238094D01*
X141716723Y-93238094D02*
X141526247Y-93285713D01*
X141526247Y-93285713D02*
X141383390Y-93285713D01*
X141383390Y-93285713D02*
X141192914Y-93238094D01*
X141192914Y-93238094D02*
X141097676Y-93190475D01*
X141097676Y-93190475D02*
X141002438Y-93095237D01*
X141002438Y-93095237D02*
X140954819Y-92952380D01*
X140954819Y-92952380D02*
X140954819Y-92857142D01*
X140954819Y-92857142D02*
X141002438Y-92714285D01*
X141002438Y-92714285D02*
X141050057Y-92666666D01*
X140954819Y-92333332D02*
X140954819Y-91714285D01*
X140954819Y-91714285D02*
X141335771Y-92047618D01*
X141335771Y-92047618D02*
X141335771Y-91904761D01*
X141335771Y-91904761D02*
X141383390Y-91809523D01*
X141383390Y-91809523D02*
X141431009Y-91761904D01*
X141431009Y-91761904D02*
X141526247Y-91714285D01*
X141526247Y-91714285D02*
X141764342Y-91714285D01*
X141764342Y-91714285D02*
X141859580Y-91761904D01*
X141859580Y-91761904D02*
X141907200Y-91809523D01*
X141907200Y-91809523D02*
X141954819Y-91904761D01*
X141954819Y-91904761D02*
X141954819Y-92190475D01*
X141954819Y-92190475D02*
X141907200Y-92285713D01*
X141907200Y-92285713D02*
X141859580Y-92333332D01*
X150454819Y-117166666D02*
X149978628Y-117499999D01*
X150454819Y-117738094D02*
X149454819Y-117738094D01*
X149454819Y-117738094D02*
X149454819Y-117357142D01*
X149454819Y-117357142D02*
X149502438Y-117261904D01*
X149502438Y-117261904D02*
X149550057Y-117214285D01*
X149550057Y-117214285D02*
X149645295Y-117166666D01*
X149645295Y-117166666D02*
X149788152Y-117166666D01*
X149788152Y-117166666D02*
X149883390Y-117214285D01*
X149883390Y-117214285D02*
X149931009Y-117261904D01*
X149931009Y-117261904D02*
X149978628Y-117357142D01*
X149978628Y-117357142D02*
X149978628Y-117738094D01*
X149550057Y-116785713D02*
X149502438Y-116738094D01*
X149502438Y-116738094D02*
X149454819Y-116642856D01*
X149454819Y-116642856D02*
X149454819Y-116404761D01*
X149454819Y-116404761D02*
X149502438Y-116309523D01*
X149502438Y-116309523D02*
X149550057Y-116261904D01*
X149550057Y-116261904D02*
X149645295Y-116214285D01*
X149645295Y-116214285D02*
X149740533Y-116214285D01*
X149740533Y-116214285D02*
X149883390Y-116261904D01*
X149883390Y-116261904D02*
X150454819Y-116833332D01*
X150454819Y-116833332D02*
X150454819Y-116214285D01*
X113238095Y-92454819D02*
X113238095Y-91454819D01*
X113238095Y-91931009D02*
X113809523Y-91931009D01*
X113809523Y-92454819D02*
X113809523Y-91454819D01*
X114190476Y-91454819D02*
X114809523Y-91454819D01*
X114809523Y-91454819D02*
X114476190Y-91835771D01*
X114476190Y-91835771D02*
X114619047Y-91835771D01*
X114619047Y-91835771D02*
X114714285Y-91883390D01*
X114714285Y-91883390D02*
X114761904Y-91931009D01*
X114761904Y-91931009D02*
X114809523Y-92026247D01*
X114809523Y-92026247D02*
X114809523Y-92264342D01*
X114809523Y-92264342D02*
X114761904Y-92359580D01*
X114761904Y-92359580D02*
X114714285Y-92407200D01*
X114714285Y-92407200D02*
X114619047Y-92454819D01*
X114619047Y-92454819D02*
X114333333Y-92454819D01*
X114333333Y-92454819D02*
X114238095Y-92407200D01*
X114238095Y-92407200D02*
X114190476Y-92359580D01*
X147859580Y-92666666D02*
X147907200Y-92714285D01*
X147907200Y-92714285D02*
X147954819Y-92857142D01*
X147954819Y-92857142D02*
X147954819Y-92952380D01*
X147954819Y-92952380D02*
X147907200Y-93095237D01*
X147907200Y-93095237D02*
X147811961Y-93190475D01*
X147811961Y-93190475D02*
X147716723Y-93238094D01*
X147716723Y-93238094D02*
X147526247Y-93285713D01*
X147526247Y-93285713D02*
X147383390Y-93285713D01*
X147383390Y-93285713D02*
X147192914Y-93238094D01*
X147192914Y-93238094D02*
X147097676Y-93190475D01*
X147097676Y-93190475D02*
X147002438Y-93095237D01*
X147002438Y-93095237D02*
X146954819Y-92952380D01*
X146954819Y-92952380D02*
X146954819Y-92857142D01*
X146954819Y-92857142D02*
X147002438Y-92714285D01*
X147002438Y-92714285D02*
X147050057Y-92666666D01*
X147288152Y-91809523D02*
X147954819Y-91809523D01*
X146907200Y-92047618D02*
X147621485Y-92285713D01*
X147621485Y-92285713D02*
X147621485Y-91666666D01*
X159854819Y-110063333D02*
X160569104Y-110063333D01*
X160569104Y-110063333D02*
X160711961Y-110110952D01*
X160711961Y-110110952D02*
X160807200Y-110206190D01*
X160807200Y-110206190D02*
X160854819Y-110349047D01*
X160854819Y-110349047D02*
X160854819Y-110444285D01*
X159854819Y-109110952D02*
X159854819Y-109587142D01*
X159854819Y-109587142D02*
X160331009Y-109634761D01*
X160331009Y-109634761D02*
X160283390Y-109587142D01*
X160283390Y-109587142D02*
X160235771Y-109491904D01*
X160235771Y-109491904D02*
X160235771Y-109253809D01*
X160235771Y-109253809D02*
X160283390Y-109158571D01*
X160283390Y-109158571D02*
X160331009Y-109110952D01*
X160331009Y-109110952D02*
X160426247Y-109063333D01*
X160426247Y-109063333D02*
X160664342Y-109063333D01*
X160664342Y-109063333D02*
X160759580Y-109110952D01*
X160759580Y-109110952D02*
X160807200Y-109158571D01*
X160807200Y-109158571D02*
X160854819Y-109253809D01*
X160854819Y-109253809D02*
X160854819Y-109491904D01*
X160854819Y-109491904D02*
X160807200Y-109587142D01*
X160807200Y-109587142D02*
X160759580Y-109634761D01*
X126314819Y-120756904D02*
X127124342Y-120756904D01*
X127124342Y-120756904D02*
X127219580Y-120709285D01*
X127219580Y-120709285D02*
X127267200Y-120661666D01*
X127267200Y-120661666D02*
X127314819Y-120566428D01*
X127314819Y-120566428D02*
X127314819Y-120375952D01*
X127314819Y-120375952D02*
X127267200Y-120280714D01*
X127267200Y-120280714D02*
X127219580Y-120233095D01*
X127219580Y-120233095D02*
X127124342Y-120185476D01*
X127124342Y-120185476D02*
X126314819Y-120185476D01*
X127314819Y-119185476D02*
X127314819Y-119756904D01*
X127314819Y-119471190D02*
X126314819Y-119471190D01*
X126314819Y-119471190D02*
X126457676Y-119566428D01*
X126457676Y-119566428D02*
X126552914Y-119661666D01*
X126552914Y-119661666D02*
X126600533Y-119756904D01*
X116559580Y-96166666D02*
X116607200Y-96214285D01*
X116607200Y-96214285D02*
X116654819Y-96357142D01*
X116654819Y-96357142D02*
X116654819Y-96452380D01*
X116654819Y-96452380D02*
X116607200Y-96595237D01*
X116607200Y-96595237D02*
X116511961Y-96690475D01*
X116511961Y-96690475D02*
X116416723Y-96738094D01*
X116416723Y-96738094D02*
X116226247Y-96785713D01*
X116226247Y-96785713D02*
X116083390Y-96785713D01*
X116083390Y-96785713D02*
X115892914Y-96738094D01*
X115892914Y-96738094D02*
X115797676Y-96690475D01*
X115797676Y-96690475D02*
X115702438Y-96595237D01*
X115702438Y-96595237D02*
X115654819Y-96452380D01*
X115654819Y-96452380D02*
X115654819Y-96357142D01*
X115654819Y-96357142D02*
X115702438Y-96214285D01*
X115702438Y-96214285D02*
X115750057Y-96166666D01*
X116654819Y-95214285D02*
X116654819Y-95785713D01*
X116654819Y-95499999D02*
X115654819Y-95499999D01*
X115654819Y-95499999D02*
X115797676Y-95595237D01*
X115797676Y-95595237D02*
X115892914Y-95690475D01*
X115892914Y-95690475D02*
X115940533Y-95785713D01*
X159834819Y-101603333D02*
X160549104Y-101603333D01*
X160549104Y-101603333D02*
X160691961Y-101650952D01*
X160691961Y-101650952D02*
X160787200Y-101746190D01*
X160787200Y-101746190D02*
X160834819Y-101889047D01*
X160834819Y-101889047D02*
X160834819Y-101984285D01*
X159834819Y-101222380D02*
X159834819Y-100603333D01*
X159834819Y-100603333D02*
X160215771Y-100936666D01*
X160215771Y-100936666D02*
X160215771Y-100793809D01*
X160215771Y-100793809D02*
X160263390Y-100698571D01*
X160263390Y-100698571D02*
X160311009Y-100650952D01*
X160311009Y-100650952D02*
X160406247Y-100603333D01*
X160406247Y-100603333D02*
X160644342Y-100603333D01*
X160644342Y-100603333D02*
X160739580Y-100650952D01*
X160739580Y-100650952D02*
X160787200Y-100698571D01*
X160787200Y-100698571D02*
X160834819Y-100793809D01*
X160834819Y-100793809D02*
X160834819Y-101079523D01*
X160834819Y-101079523D02*
X160787200Y-101174761D01*
X160787200Y-101174761D02*
X160739580Y-101222380D01*
X122359580Y-91666645D02*
X122407200Y-91714264D01*
X122407200Y-91714264D02*
X122454819Y-91857121D01*
X122454819Y-91857121D02*
X122454819Y-91952359D01*
X122454819Y-91952359D02*
X122407200Y-92095216D01*
X122407200Y-92095216D02*
X122311961Y-92190454D01*
X122311961Y-92190454D02*
X122216723Y-92238073D01*
X122216723Y-92238073D02*
X122026247Y-92285692D01*
X122026247Y-92285692D02*
X121883390Y-92285692D01*
X121883390Y-92285692D02*
X121692914Y-92238073D01*
X121692914Y-92238073D02*
X121597676Y-92190454D01*
X121597676Y-92190454D02*
X121502438Y-92095216D01*
X121502438Y-92095216D02*
X121454819Y-91952359D01*
X121454819Y-91952359D02*
X121454819Y-91857121D01*
X121454819Y-91857121D02*
X121502438Y-91714264D01*
X121502438Y-91714264D02*
X121550057Y-91666645D01*
X121550057Y-91285692D02*
X121502438Y-91238073D01*
X121502438Y-91238073D02*
X121454819Y-91142835D01*
X121454819Y-91142835D02*
X121454819Y-90904740D01*
X121454819Y-90904740D02*
X121502438Y-90809502D01*
X121502438Y-90809502D02*
X121550057Y-90761883D01*
X121550057Y-90761883D02*
X121645295Y-90714264D01*
X121645295Y-90714264D02*
X121740533Y-90714264D01*
X121740533Y-90714264D02*
X121883390Y-90761883D01*
X121883390Y-90761883D02*
X122454819Y-91333311D01*
X122454819Y-91333311D02*
X122454819Y-90714264D01*
X115238095Y-110454819D02*
X115238095Y-109454819D01*
X115238095Y-109931009D02*
X115809523Y-109931009D01*
X115809523Y-110454819D02*
X115809523Y-109454819D01*
X116714285Y-109788152D02*
X116714285Y-110454819D01*
X116476190Y-109407200D02*
X116238095Y-110121485D01*
X116238095Y-110121485D02*
X116857142Y-110121485D01*
X157559580Y-104166666D02*
X157607200Y-104214285D01*
X157607200Y-104214285D02*
X157654819Y-104357142D01*
X157654819Y-104357142D02*
X157654819Y-104452380D01*
X157654819Y-104452380D02*
X157607200Y-104595237D01*
X157607200Y-104595237D02*
X157511961Y-104690475D01*
X157511961Y-104690475D02*
X157416723Y-104738094D01*
X157416723Y-104738094D02*
X157226247Y-104785713D01*
X157226247Y-104785713D02*
X157083390Y-104785713D01*
X157083390Y-104785713D02*
X156892914Y-104738094D01*
X156892914Y-104738094D02*
X156797676Y-104690475D01*
X156797676Y-104690475D02*
X156702438Y-104595237D01*
X156702438Y-104595237D02*
X156654819Y-104452380D01*
X156654819Y-104452380D02*
X156654819Y-104357142D01*
X156654819Y-104357142D02*
X156702438Y-104214285D01*
X156702438Y-104214285D02*
X156750057Y-104166666D01*
X156654819Y-103261904D02*
X156654819Y-103738094D01*
X156654819Y-103738094D02*
X157131009Y-103785713D01*
X157131009Y-103785713D02*
X157083390Y-103738094D01*
X157083390Y-103738094D02*
X157035771Y-103642856D01*
X157035771Y-103642856D02*
X157035771Y-103404761D01*
X157035771Y-103404761D02*
X157083390Y-103309523D01*
X157083390Y-103309523D02*
X157131009Y-103261904D01*
X157131009Y-103261904D02*
X157226247Y-103214285D01*
X157226247Y-103214285D02*
X157464342Y-103214285D01*
X157464342Y-103214285D02*
X157559580Y-103261904D01*
X157559580Y-103261904D02*
X157607200Y-103309523D01*
X157607200Y-103309523D02*
X157654819Y-103404761D01*
X157654819Y-103404761D02*
X157654819Y-103642856D01*
X157654819Y-103642856D02*
X157607200Y-103738094D01*
X157607200Y-103738094D02*
X157559580Y-103785713D01*
X145454819Y-117666666D02*
X144978628Y-117999999D01*
X145454819Y-118238094D02*
X144454819Y-118238094D01*
X144454819Y-118238094D02*
X144454819Y-117857142D01*
X144454819Y-117857142D02*
X144502438Y-117761904D01*
X144502438Y-117761904D02*
X144550057Y-117714285D01*
X144550057Y-117714285D02*
X144645295Y-117666666D01*
X144645295Y-117666666D02*
X144788152Y-117666666D01*
X144788152Y-117666666D02*
X144883390Y-117714285D01*
X144883390Y-117714285D02*
X144931009Y-117761904D01*
X144931009Y-117761904D02*
X144978628Y-117857142D01*
X144978628Y-117857142D02*
X144978628Y-118238094D01*
X144454819Y-117333332D02*
X144454819Y-116714285D01*
X144454819Y-116714285D02*
X144835771Y-117047618D01*
X144835771Y-117047618D02*
X144835771Y-116904761D01*
X144835771Y-116904761D02*
X144883390Y-116809523D01*
X144883390Y-116809523D02*
X144931009Y-116761904D01*
X144931009Y-116761904D02*
X145026247Y-116714285D01*
X145026247Y-116714285D02*
X145264342Y-116714285D01*
X145264342Y-116714285D02*
X145359580Y-116761904D01*
X145359580Y-116761904D02*
X145407200Y-116809523D01*
X145407200Y-116809523D02*
X145454819Y-116904761D01*
X145454819Y-116904761D02*
X145454819Y-117190475D01*
X145454819Y-117190475D02*
X145407200Y-117285713D01*
X145407200Y-117285713D02*
X145359580Y-117333332D01*
D11*
%TO.C,J6*%
X110990000Y-112845000D02*
X110990000Y-118145000D01*
X110990000Y-114225000D02*
X111990000Y-114225000D01*
X110990000Y-114475000D02*
X111990000Y-114475000D01*
X110990000Y-116515000D02*
X111990000Y-116515000D01*
X110990000Y-118145000D02*
X117010000Y-118145000D01*
X111990000Y-114225000D02*
X111990000Y-116765000D01*
X111990000Y-114225000D02*
X112520000Y-114475000D01*
X111990000Y-116765000D02*
X110990000Y-116765000D01*
X112520000Y-114475000D02*
X112520000Y-116515000D01*
X112520000Y-116515000D02*
X111990000Y-116765000D01*
X115980000Y-112555000D02*
X111980000Y-112555000D01*
X116410000Y-113425000D02*
X116410000Y-115025000D01*
X116410000Y-115025000D02*
X117010000Y-115025000D01*
X116410000Y-115965000D02*
X116410000Y-117565000D01*
X116410000Y-117565000D02*
X117010000Y-117565000D01*
X117010000Y-112845000D02*
X110990000Y-112845000D01*
X117010000Y-113425000D02*
X116410000Y-113425000D01*
X117010000Y-115965000D02*
X116410000Y-115965000D01*
X117010000Y-118145000D02*
X117010000Y-112845000D01*
%TO.C,D1*%
X119880000Y-101380000D02*
X119880000Y-105620000D01*
X119880000Y-104780000D02*
X122120000Y-104780000D01*
X119880000Y-104900000D02*
X122120000Y-104900000D01*
X119880000Y-105020000D02*
X122120000Y-105020000D01*
X119880000Y-105620000D02*
X122120000Y-105620000D01*
X121000000Y-100730000D02*
X121000000Y-101380000D01*
X121000000Y-106270000D02*
X121000000Y-105620000D01*
X122120000Y-101380000D02*
X119880000Y-101380000D01*
X122120000Y-105620000D02*
X122120000Y-101380000D01*
%TO.C,C6*%
X145960000Y-103807600D02*
X143779000Y-103807600D01*
X145960000Y-103847600D02*
X143782000Y-103847600D01*
X145960000Y-103887600D02*
X143786000Y-103887600D01*
X145960000Y-103927600D02*
X143790000Y-103927600D01*
X145960000Y-103967600D02*
X143795000Y-103967600D01*
X145960000Y-104007600D02*
X143800000Y-104007600D01*
X145960000Y-104047600D02*
X143805000Y-104047600D01*
X145960000Y-104087600D02*
X143812000Y-104087600D01*
X145960000Y-104127600D02*
X143818000Y-104127600D01*
X145960000Y-104167600D02*
X143826000Y-104167600D01*
X145960000Y-104207600D02*
X143833000Y-104207600D01*
X145960000Y-104247600D02*
X143841000Y-104247600D01*
X145960000Y-104287600D02*
X143850000Y-104287600D01*
X145960000Y-104327600D02*
X143860000Y-104327600D01*
X145960000Y-104367600D02*
X143869000Y-104367600D01*
X145960000Y-104407600D02*
X143880000Y-104407600D01*
X145960000Y-104447600D02*
X143891000Y-104447600D01*
X145960000Y-104487600D02*
X143902000Y-104487600D01*
X145960000Y-104527600D02*
X143914000Y-104527600D01*
X145960000Y-104567600D02*
X143927000Y-104567600D01*
X145960000Y-104607600D02*
X143940000Y-104607600D01*
X145960000Y-104647600D02*
X143953000Y-104647600D01*
X145960000Y-104687600D02*
X143968000Y-104687600D01*
X145960000Y-104727600D02*
X143983000Y-104727600D01*
X145960000Y-104767600D02*
X143998000Y-104767600D01*
X145960000Y-104807600D02*
X144014000Y-104807600D01*
X145960000Y-104847600D02*
X144031000Y-104847600D01*
X145960000Y-104887600D02*
X144048000Y-104887600D01*
X145960000Y-104927600D02*
X144066000Y-104927600D01*
X145960000Y-104967600D02*
X144085000Y-104967600D01*
X145960000Y-105007600D02*
X144104000Y-105007600D01*
X145960000Y-105047600D02*
X144124000Y-105047600D01*
X145960000Y-105087600D02*
X144145000Y-105087600D01*
X145960000Y-105127600D02*
X144166000Y-105127600D01*
X145960000Y-105167600D02*
X144188000Y-105167600D01*
X145960000Y-105207600D02*
X144211000Y-105207600D01*
X145960000Y-105247600D02*
X144235000Y-105247600D01*
X145960000Y-105287600D02*
X144259000Y-105287600D01*
X145960000Y-105327600D02*
X144284000Y-105327600D01*
X145960000Y-105367600D02*
X144310000Y-105367600D01*
X145960000Y-105407600D02*
X144337000Y-105407600D01*
X145960000Y-105447600D02*
X144364000Y-105447600D01*
X145960000Y-105487600D02*
X144393000Y-105487600D01*
X145960000Y-105527600D02*
X144423000Y-105527600D01*
X145960000Y-105567600D02*
X144453000Y-105567600D01*
X145960000Y-105607600D02*
X144484000Y-105607600D01*
X145960000Y-105647600D02*
X144517000Y-105647600D01*
X145960000Y-105687600D02*
X144550000Y-105687600D01*
X145960000Y-105727600D02*
X144585000Y-105727600D01*
X145960000Y-105767600D02*
X144621000Y-105767600D01*
X145960000Y-105807600D02*
X144658000Y-105807600D01*
X145960000Y-105847600D02*
X144696000Y-105847600D01*
X147402000Y-106807600D02*
X146598000Y-106807600D01*
X147633000Y-106767600D02*
X146367000Y-106767600D01*
X147801000Y-106727600D02*
X146199000Y-106727600D01*
X147939000Y-106687600D02*
X146061000Y-106687600D01*
X148058000Y-106647600D02*
X145942000Y-106647600D01*
X148165000Y-106607600D02*
X145835000Y-106607600D01*
X148261000Y-106567600D02*
X145739000Y-106567600D01*
X148350000Y-106527600D02*
X145650000Y-106527600D01*
X148432000Y-106487600D02*
X145568000Y-106487600D01*
X148509000Y-106447600D02*
X145491000Y-106447600D01*
X148581000Y-106407600D02*
X145419000Y-106407600D01*
X148649000Y-106367600D02*
X145351000Y-106367600D01*
X148714000Y-106327600D02*
X145286000Y-106327600D01*
X148775000Y-106287600D02*
X145225000Y-106287600D01*
X148834000Y-106247600D02*
X145166000Y-106247600D01*
X148839000Y-100067359D02*
X148839000Y-100697359D01*
X148890000Y-106207600D02*
X145110000Y-106207600D01*
X148943000Y-106167600D02*
X145057000Y-106167600D01*
X148995000Y-106127600D02*
X145005000Y-106127600D01*
X149044000Y-106087600D02*
X144956000Y-106087600D01*
X149091000Y-106047600D02*
X144909000Y-106047600D01*
X149137000Y-106007600D02*
X144863000Y-106007600D01*
X149154000Y-100382359D02*
X148524000Y-100382359D01*
X149181000Y-105967600D02*
X144819000Y-105967600D01*
X149223000Y-105927600D02*
X144777000Y-105927600D01*
X149264000Y-105887600D02*
X144736000Y-105887600D01*
X149304000Y-105847600D02*
X148040000Y-105847600D01*
X149342000Y-105807600D02*
X148040000Y-105807600D01*
X149379000Y-105767600D02*
X148040000Y-105767600D01*
X149415000Y-105727600D02*
X148040000Y-105727600D01*
X149450000Y-105687600D02*
X148040000Y-105687600D01*
X149483000Y-105647600D02*
X148040000Y-105647600D01*
X149516000Y-105607600D02*
X148040000Y-105607600D01*
X149547000Y-105567600D02*
X148040000Y-105567600D01*
X149577000Y-105527600D02*
X148040000Y-105527600D01*
X149607000Y-105487600D02*
X148040000Y-105487600D01*
X149636000Y-105447600D02*
X148040000Y-105447600D01*
X149663000Y-105407600D02*
X148040000Y-105407600D01*
X149690000Y-105367600D02*
X148040000Y-105367600D01*
X149716000Y-105327600D02*
X148040000Y-105327600D01*
X149741000Y-105287600D02*
X148040000Y-105287600D01*
X149765000Y-105247600D02*
X148040000Y-105247600D01*
X149789000Y-105207600D02*
X148040000Y-105207600D01*
X149812000Y-105167600D02*
X148040000Y-105167600D01*
X149834000Y-105127600D02*
X148040000Y-105127600D01*
X149855000Y-105087600D02*
X148040000Y-105087600D01*
X149876000Y-105047600D02*
X148040000Y-105047600D01*
X149896000Y-105007600D02*
X148040000Y-105007600D01*
X149915000Y-104967600D02*
X148040000Y-104967600D01*
X149934000Y-104927600D02*
X148040000Y-104927600D01*
X149952000Y-104887600D02*
X148040000Y-104887600D01*
X149969000Y-104847600D02*
X148040000Y-104847600D01*
X149986000Y-104807600D02*
X148040000Y-104807600D01*
X150002000Y-104767600D02*
X148040000Y-104767600D01*
X150017000Y-104727600D02*
X148040000Y-104727600D01*
X150032000Y-104687600D02*
X148040000Y-104687600D01*
X150047000Y-104647600D02*
X148040000Y-104647600D01*
X150060000Y-104607600D02*
X148040000Y-104607600D01*
X150073000Y-104567600D02*
X148040000Y-104567600D01*
X150086000Y-104527600D02*
X148040000Y-104527600D01*
X150098000Y-104487600D02*
X148040000Y-104487600D01*
X150109000Y-104447600D02*
X148040000Y-104447600D01*
X150120000Y-104407600D02*
X148040000Y-104407600D01*
X150131000Y-104367600D02*
X148040000Y-104367600D01*
X150140000Y-104327600D02*
X148040000Y-104327600D01*
X150150000Y-104287600D02*
X148040000Y-104287600D01*
X150159000Y-104247600D02*
X148040000Y-104247600D01*
X150167000Y-104207600D02*
X148040000Y-104207600D01*
X150174000Y-104167600D02*
X148040000Y-104167600D01*
X150182000Y-104127600D02*
X148040000Y-104127600D01*
X150188000Y-104087600D02*
X148040000Y-104087600D01*
X150195000Y-104047600D02*
X148040000Y-104047600D01*
X150200000Y-104007600D02*
X148040000Y-104007600D01*
X150205000Y-103967600D02*
X148040000Y-103967600D01*
X150210000Y-103927600D02*
X148040000Y-103927600D01*
X150214000Y-103887600D02*
X148040000Y-103887600D01*
X150218000Y-103847600D02*
X148040000Y-103847600D01*
X150221000Y-103807600D02*
X148040000Y-103807600D01*
X150224000Y-103767600D02*
X143776000Y-103767600D01*
X150226000Y-103727600D02*
X143774000Y-103727600D01*
X150228000Y-103687600D02*
X143772000Y-103687600D01*
X150229000Y-103647600D02*
X143771000Y-103647600D01*
X150230000Y-103567600D02*
X143770000Y-103567600D01*
X150230000Y-103607600D02*
X143770000Y-103607600D01*
X150270000Y-103567600D02*
G75*
G02*
X143730000Y-103567600I-3270000J0D01*
G01*
X143730000Y-103567600D02*
G75*
G02*
X150270000Y-103567600I3270000J0D01*
G01*
%TO.C,L2*%
X140870000Y-104000000D02*
G75*
G02*
X130130000Y-104000000I-5370000J0D01*
G01*
X130130000Y-104000000D02*
G75*
G02*
X140870000Y-104000000I5370000J0D01*
G01*
%TO.C,J4*%
X161470000Y-115620000D02*
X161470000Y-126000000D01*
X161470000Y-117800000D02*
X162070000Y-117800000D01*
X161470000Y-120340000D02*
X162070000Y-120340000D01*
X161470000Y-122880000D02*
X162070000Y-122880000D01*
X161470000Y-125420000D02*
X162070000Y-125420000D01*
X161470000Y-126000000D02*
X167490000Y-126000000D01*
X162070000Y-116200000D02*
X161470000Y-116200000D01*
X162070000Y-117800000D02*
X162070000Y-116200000D01*
X162070000Y-118740000D02*
X161470000Y-118740000D01*
X162070000Y-120340000D02*
X162070000Y-118740000D01*
X162070000Y-121280000D02*
X161470000Y-121280000D01*
X162070000Y-122880000D02*
X162070000Y-121280000D01*
X162070000Y-123820000D02*
X161470000Y-123820000D01*
X162070000Y-125420000D02*
X162070000Y-123820000D01*
X162500000Y-126290000D02*
X166500000Y-126290000D01*
X165960000Y-117250000D02*
X166490000Y-117000000D01*
X165960000Y-124370000D02*
X165960000Y-117250000D01*
X166490000Y-117000000D02*
X167490000Y-117000000D01*
X166490000Y-124620000D02*
X165960000Y-124370000D01*
X166490000Y-124620000D02*
X166490000Y-117000000D01*
X167490000Y-115620000D02*
X161470000Y-115620000D01*
X167490000Y-117250000D02*
X166490000Y-117250000D01*
X167490000Y-124370000D02*
X166490000Y-124370000D01*
X167490000Y-124620000D02*
X166490000Y-124620000D01*
X167490000Y-126000000D02*
X167490000Y-115620000D01*
%TO.C,R1*%
X126500000Y-104445000D02*
X126500000Y-101835000D01*
X127870000Y-105815000D02*
G75*
G02*
X125130000Y-105815000I-1370000J0D01*
G01*
X125130000Y-105815000D02*
G75*
G02*
X127870000Y-105815000I1370000J0D01*
G01*
%TO.C,L1*%
X137370000Y-86500000D02*
G75*
G02*
X126630000Y-86500000I-5370000J0D01*
G01*
X126630000Y-86500000D02*
G75*
G02*
X137370000Y-86500000I5370000J0D01*
G01*
%TO.C,C3*%
X140960000Y-86490000D02*
X138779000Y-86490000D01*
X140960000Y-86530000D02*
X138782000Y-86530000D01*
X140960000Y-86570000D02*
X138786000Y-86570000D01*
X140960000Y-86610000D02*
X138790000Y-86610000D01*
X140960000Y-86650000D02*
X138795000Y-86650000D01*
X140960000Y-86690000D02*
X138800000Y-86690000D01*
X140960000Y-86730000D02*
X138805000Y-86730000D01*
X140960000Y-86770000D02*
X138812000Y-86770000D01*
X140960000Y-86810000D02*
X138818000Y-86810000D01*
X140960000Y-86850000D02*
X138826000Y-86850000D01*
X140960000Y-86890000D02*
X138833000Y-86890000D01*
X140960000Y-86930000D02*
X138841000Y-86930000D01*
X140960000Y-86970000D02*
X138850000Y-86970000D01*
X140960000Y-87010000D02*
X138860000Y-87010000D01*
X140960000Y-87050000D02*
X138869000Y-87050000D01*
X140960000Y-87090000D02*
X138880000Y-87090000D01*
X140960000Y-87130000D02*
X138891000Y-87130000D01*
X140960000Y-87170000D02*
X138902000Y-87170000D01*
X140960000Y-87210000D02*
X138914000Y-87210000D01*
X140960000Y-87250000D02*
X138927000Y-87250000D01*
X140960000Y-87290000D02*
X138940000Y-87290000D01*
X140960000Y-87330000D02*
X138953000Y-87330000D01*
X140960000Y-87370000D02*
X138968000Y-87370000D01*
X140960000Y-87410000D02*
X138983000Y-87410000D01*
X140960000Y-87450000D02*
X138998000Y-87450000D01*
X140960000Y-87490000D02*
X139014000Y-87490000D01*
X140960000Y-87530000D02*
X139031000Y-87530000D01*
X140960000Y-87570000D02*
X139048000Y-87570000D01*
X140960000Y-87610000D02*
X139066000Y-87610000D01*
X140960000Y-87650000D02*
X139085000Y-87650000D01*
X140960000Y-87690000D02*
X139104000Y-87690000D01*
X140960000Y-87730000D02*
X139124000Y-87730000D01*
X140960000Y-87770000D02*
X139145000Y-87770000D01*
X140960000Y-87810000D02*
X139166000Y-87810000D01*
X140960000Y-87850000D02*
X139188000Y-87850000D01*
X140960000Y-87890000D02*
X139211000Y-87890000D01*
X140960000Y-87930000D02*
X139235000Y-87930000D01*
X140960000Y-87970000D02*
X139259000Y-87970000D01*
X140960000Y-88010000D02*
X139284000Y-88010000D01*
X140960000Y-88050000D02*
X139310000Y-88050000D01*
X140960000Y-88090000D02*
X139337000Y-88090000D01*
X140960000Y-88130000D02*
X139364000Y-88130000D01*
X140960000Y-88170000D02*
X139393000Y-88170000D01*
X140960000Y-88210000D02*
X139423000Y-88210000D01*
X140960000Y-88250000D02*
X139453000Y-88250000D01*
X140960000Y-88290000D02*
X139484000Y-88290000D01*
X140960000Y-88330000D02*
X139517000Y-88330000D01*
X140960000Y-88370000D02*
X139550000Y-88370000D01*
X140960000Y-88410000D02*
X139585000Y-88410000D01*
X140960000Y-88450000D02*
X139621000Y-88450000D01*
X140960000Y-88490000D02*
X139658000Y-88490000D01*
X140960000Y-88530000D02*
X139696000Y-88530000D01*
X142402000Y-89490000D02*
X141598000Y-89490000D01*
X142633000Y-89450000D02*
X141367000Y-89450000D01*
X142801000Y-89410000D02*
X141199000Y-89410000D01*
X142939000Y-89370000D02*
X141061000Y-89370000D01*
X143058000Y-89330000D02*
X140942000Y-89330000D01*
X143165000Y-89290000D02*
X140835000Y-89290000D01*
X143261000Y-89250000D02*
X140739000Y-89250000D01*
X143350000Y-89210000D02*
X140650000Y-89210000D01*
X143432000Y-89170000D02*
X140568000Y-89170000D01*
X143509000Y-89130000D02*
X140491000Y-89130000D01*
X143581000Y-89090000D02*
X140419000Y-89090000D01*
X143649000Y-89050000D02*
X140351000Y-89050000D01*
X143714000Y-89010000D02*
X140286000Y-89010000D01*
X143775000Y-88970000D02*
X140225000Y-88970000D01*
X143834000Y-88930000D02*
X140166000Y-88930000D01*
X143839000Y-82749759D02*
X143839000Y-83379759D01*
X143890000Y-88890000D02*
X140110000Y-88890000D01*
X143943000Y-88850000D02*
X140057000Y-88850000D01*
X143995000Y-88810000D02*
X140005000Y-88810000D01*
X144044000Y-88770000D02*
X139956000Y-88770000D01*
X144091000Y-88730000D02*
X139909000Y-88730000D01*
X144137000Y-88690000D02*
X139863000Y-88690000D01*
X144154000Y-83064759D02*
X143524000Y-83064759D01*
X144181000Y-88650000D02*
X139819000Y-88650000D01*
X144223000Y-88610000D02*
X139777000Y-88610000D01*
X144264000Y-88570000D02*
X139736000Y-88570000D01*
X144304000Y-88530000D02*
X143040000Y-88530000D01*
X144342000Y-88490000D02*
X143040000Y-88490000D01*
X144379000Y-88450000D02*
X143040000Y-88450000D01*
X144415000Y-88410000D02*
X143040000Y-88410000D01*
X144450000Y-88370000D02*
X143040000Y-88370000D01*
X144483000Y-88330000D02*
X143040000Y-88330000D01*
X144516000Y-88290000D02*
X143040000Y-88290000D01*
X144547000Y-88250000D02*
X143040000Y-88250000D01*
X144577000Y-88210000D02*
X143040000Y-88210000D01*
X144607000Y-88170000D02*
X143040000Y-88170000D01*
X144636000Y-88130000D02*
X143040000Y-88130000D01*
X144663000Y-88090000D02*
X143040000Y-88090000D01*
X144690000Y-88050000D02*
X143040000Y-88050000D01*
X144716000Y-88010000D02*
X143040000Y-88010000D01*
X144741000Y-87970000D02*
X143040000Y-87970000D01*
X144765000Y-87930000D02*
X143040000Y-87930000D01*
X144789000Y-87890000D02*
X143040000Y-87890000D01*
X144812000Y-87850000D02*
X143040000Y-87850000D01*
X144834000Y-87810000D02*
X143040000Y-87810000D01*
X144855000Y-87770000D02*
X143040000Y-87770000D01*
X144876000Y-87730000D02*
X143040000Y-87730000D01*
X144896000Y-87690000D02*
X143040000Y-87690000D01*
X144915000Y-87650000D02*
X143040000Y-87650000D01*
X144934000Y-87610000D02*
X143040000Y-87610000D01*
X144952000Y-87570000D02*
X143040000Y-87570000D01*
X144969000Y-87530000D02*
X143040000Y-87530000D01*
X144986000Y-87490000D02*
X143040000Y-87490000D01*
X145002000Y-87450000D02*
X143040000Y-87450000D01*
X145017000Y-87410000D02*
X143040000Y-87410000D01*
X145032000Y-87370000D02*
X143040000Y-87370000D01*
X145047000Y-87330000D02*
X143040000Y-87330000D01*
X145060000Y-87290000D02*
X143040000Y-87290000D01*
X145073000Y-87250000D02*
X143040000Y-87250000D01*
X145086000Y-87210000D02*
X143040000Y-87210000D01*
X145098000Y-87170000D02*
X143040000Y-87170000D01*
X145109000Y-87130000D02*
X143040000Y-87130000D01*
X145120000Y-87090000D02*
X143040000Y-87090000D01*
X145131000Y-87050000D02*
X143040000Y-87050000D01*
X145140000Y-87010000D02*
X143040000Y-87010000D01*
X145150000Y-86970000D02*
X143040000Y-86970000D01*
X145159000Y-86930000D02*
X143040000Y-86930000D01*
X145167000Y-86890000D02*
X143040000Y-86890000D01*
X145174000Y-86850000D02*
X143040000Y-86850000D01*
X145182000Y-86810000D02*
X143040000Y-86810000D01*
X145188000Y-86770000D02*
X143040000Y-86770000D01*
X145195000Y-86730000D02*
X143040000Y-86730000D01*
X145200000Y-86690000D02*
X143040000Y-86690000D01*
X145205000Y-86650000D02*
X143040000Y-86650000D01*
X145210000Y-86610000D02*
X143040000Y-86610000D01*
X145214000Y-86570000D02*
X143040000Y-86570000D01*
X145218000Y-86530000D02*
X143040000Y-86530000D01*
X145221000Y-86490000D02*
X143040000Y-86490000D01*
X145224000Y-86450000D02*
X138776000Y-86450000D01*
X145226000Y-86410000D02*
X138774000Y-86410000D01*
X145228000Y-86370000D02*
X138772000Y-86370000D01*
X145229000Y-86330000D02*
X138771000Y-86330000D01*
X145230000Y-86250000D02*
X138770000Y-86250000D01*
X145230000Y-86290000D02*
X138770000Y-86290000D01*
X145270000Y-86250000D02*
G75*
G02*
X138730000Y-86250000I-3270000J0D01*
G01*
X138730000Y-86250000D02*
G75*
G02*
X145270000Y-86250000I3270000J0D01*
G01*
%TO.C,R2*%
X147500000Y-120710000D02*
X147500000Y-118100000D01*
X148870000Y-122080000D02*
G75*
G02*
X146130000Y-122080000I-1370000J0D01*
G01*
X146130000Y-122080000D02*
G75*
G02*
X148870000Y-122080000I1370000J0D01*
G01*
%TO.C,C4*%
X146930000Y-84230000D02*
X146930000Y-88770000D01*
X146986000Y-84230000D02*
X146930000Y-84230000D01*
X146986000Y-88770000D02*
X146930000Y-88770000D01*
X149070000Y-84230000D02*
X149070000Y-88770000D01*
%TO.C,J1*%
X152040000Y-92900000D02*
X152040000Y-91100000D01*
X152260000Y-81840000D02*
X155590000Y-81840000D01*
X152260000Y-95160000D02*
X152260000Y-81840000D01*
X152260000Y-95160000D02*
X155590000Y-95160000D01*
X159110000Y-81840000D02*
X167220000Y-81840000D01*
X167220000Y-81190000D02*
X167220000Y-81840000D01*
X167220000Y-95160000D02*
X159110000Y-95160000D01*
X167220000Y-95160000D02*
X167220000Y-95810000D01*
X167220000Y-95810000D02*
X167740000Y-95810000D01*
X167740000Y-81190000D02*
X167220000Y-81190000D01*
X167740000Y-95810000D02*
X167740000Y-81190000D01*
%TO.C,J5*%
X161490000Y-107080000D02*
X161490000Y-112380000D01*
X161490000Y-109260000D02*
X162090000Y-109260000D01*
X161490000Y-111800000D02*
X162090000Y-111800000D01*
X161490000Y-112380000D02*
X167510000Y-112380000D01*
X162090000Y-107660000D02*
X161490000Y-107660000D01*
X162090000Y-109260000D02*
X162090000Y-107660000D01*
X162090000Y-110200000D02*
X161490000Y-110200000D01*
X162090000Y-111800000D02*
X162090000Y-110200000D01*
X162520000Y-112670000D02*
X166520000Y-112670000D01*
X165980000Y-108710000D02*
X166510000Y-108460000D01*
X165980000Y-110750000D02*
X165980000Y-108710000D01*
X166510000Y-108460000D02*
X167510000Y-108460000D01*
X166510000Y-111000000D02*
X165980000Y-110750000D01*
X166510000Y-111000000D02*
X166510000Y-108460000D01*
X167510000Y-107080000D02*
X161490000Y-107080000D01*
X167510000Y-108710000D02*
X166510000Y-108710000D01*
X167510000Y-110750000D02*
X166510000Y-110750000D01*
X167510000Y-111000000D02*
X166510000Y-111000000D01*
X167510000Y-112380000D02*
X167510000Y-107080000D01*
%TO.C,U1*%
X127860000Y-117345000D02*
X127860000Y-118995000D01*
X127860000Y-120995000D02*
X127860000Y-122645000D01*
X127860000Y-122645000D02*
X138140000Y-122645000D01*
X138140000Y-117345000D02*
X127860000Y-117345000D01*
X138140000Y-122645000D02*
X138140000Y-117345000D01*
X127860000Y-118995000D02*
G75*
G02*
X127860000Y-120995000I0J-1000000D01*
G01*
%TO.C,C1*%
X112930000Y-93730000D02*
X112930000Y-98270000D01*
X112986000Y-93730000D02*
X112930000Y-93730000D01*
X112986000Y-98270000D02*
X112930000Y-98270000D01*
X115070000Y-93730000D02*
X115070000Y-98270000D01*
%TO.C,J3*%
X161470000Y-98620000D02*
X161470000Y-103920000D01*
X161470000Y-100800000D02*
X162070000Y-100800000D01*
X161470000Y-103340000D02*
X162070000Y-103340000D01*
X161470000Y-103920000D02*
X167490000Y-103920000D01*
X162070000Y-99200000D02*
X161470000Y-99200000D01*
X162070000Y-100800000D02*
X162070000Y-99200000D01*
X162070000Y-101740000D02*
X161470000Y-101740000D01*
X162070000Y-103340000D02*
X162070000Y-101740000D01*
X162500000Y-104210000D02*
X166500000Y-104210000D01*
X165960000Y-100250000D02*
X166490000Y-100000000D01*
X165960000Y-102290000D02*
X165960000Y-100250000D01*
X166490000Y-100000000D02*
X167490000Y-100000000D01*
X166490000Y-102540000D02*
X165960000Y-102290000D01*
X166490000Y-102540000D02*
X166490000Y-100000000D01*
X167490000Y-98620000D02*
X161470000Y-98620000D01*
X167490000Y-100250000D02*
X166490000Y-100250000D01*
X167490000Y-102290000D02*
X166490000Y-102290000D01*
X167490000Y-102540000D02*
X166490000Y-102540000D01*
X167490000Y-103920000D02*
X167490000Y-98620000D01*
%TO.C,C2*%
X120960000Y-86807600D02*
X118779000Y-86807600D01*
X120960000Y-86847600D02*
X118782000Y-86847600D01*
X120960000Y-86887600D02*
X118786000Y-86887600D01*
X120960000Y-86927600D02*
X118790000Y-86927600D01*
X120960000Y-86967600D02*
X118795000Y-86967600D01*
X120960000Y-87007600D02*
X118800000Y-87007600D01*
X120960000Y-87047600D02*
X118805000Y-87047600D01*
X120960000Y-87087600D02*
X118812000Y-87087600D01*
X120960000Y-87127600D02*
X118818000Y-87127600D01*
X120960000Y-87167600D02*
X118826000Y-87167600D01*
X120960000Y-87207600D02*
X118833000Y-87207600D01*
X120960000Y-87247600D02*
X118841000Y-87247600D01*
X120960000Y-87287600D02*
X118850000Y-87287600D01*
X120960000Y-87327600D02*
X118860000Y-87327600D01*
X120960000Y-87367600D02*
X118869000Y-87367600D01*
X120960000Y-87407600D02*
X118880000Y-87407600D01*
X120960000Y-87447600D02*
X118891000Y-87447600D01*
X120960000Y-87487600D02*
X118902000Y-87487600D01*
X120960000Y-87527600D02*
X118914000Y-87527600D01*
X120960000Y-87567600D02*
X118927000Y-87567600D01*
X120960000Y-87607600D02*
X118940000Y-87607600D01*
X120960000Y-87647600D02*
X118953000Y-87647600D01*
X120960000Y-87687600D02*
X118968000Y-87687600D01*
X120960000Y-87727600D02*
X118983000Y-87727600D01*
X120960000Y-87767600D02*
X118998000Y-87767600D01*
X120960000Y-87807600D02*
X119014000Y-87807600D01*
X120960000Y-87847600D02*
X119031000Y-87847600D01*
X120960000Y-87887600D02*
X119048000Y-87887600D01*
X120960000Y-87927600D02*
X119066000Y-87927600D01*
X120960000Y-87967600D02*
X119085000Y-87967600D01*
X120960000Y-88007600D02*
X119104000Y-88007600D01*
X120960000Y-88047600D02*
X119124000Y-88047600D01*
X120960000Y-88087600D02*
X119145000Y-88087600D01*
X120960000Y-88127600D02*
X119166000Y-88127600D01*
X120960000Y-88167600D02*
X119188000Y-88167600D01*
X120960000Y-88207600D02*
X119211000Y-88207600D01*
X120960000Y-88247600D02*
X119235000Y-88247600D01*
X120960000Y-88287600D02*
X119259000Y-88287600D01*
X120960000Y-88327600D02*
X119284000Y-88327600D01*
X120960000Y-88367600D02*
X119310000Y-88367600D01*
X120960000Y-88407600D02*
X119337000Y-88407600D01*
X120960000Y-88447600D02*
X119364000Y-88447600D01*
X120960000Y-88487600D02*
X119393000Y-88487600D01*
X120960000Y-88527600D02*
X119423000Y-88527600D01*
X120960000Y-88567600D02*
X119453000Y-88567600D01*
X120960000Y-88607600D02*
X119484000Y-88607600D01*
X120960000Y-88647600D02*
X119517000Y-88647600D01*
X120960000Y-88687600D02*
X119550000Y-88687600D01*
X120960000Y-88727600D02*
X119585000Y-88727600D01*
X120960000Y-88767600D02*
X119621000Y-88767600D01*
X120960000Y-88807600D02*
X119658000Y-88807600D01*
X120960000Y-88847600D02*
X119696000Y-88847600D01*
X122402000Y-89807600D02*
X121598000Y-89807600D01*
X122633000Y-89767600D02*
X121367000Y-89767600D01*
X122801000Y-89727600D02*
X121199000Y-89727600D01*
X122939000Y-89687600D02*
X121061000Y-89687600D01*
X123058000Y-89647600D02*
X120942000Y-89647600D01*
X123165000Y-89607600D02*
X120835000Y-89607600D01*
X123261000Y-89567600D02*
X120739000Y-89567600D01*
X123350000Y-89527600D02*
X120650000Y-89527600D01*
X123432000Y-89487600D02*
X120568000Y-89487600D01*
X123509000Y-89447600D02*
X120491000Y-89447600D01*
X123581000Y-89407600D02*
X120419000Y-89407600D01*
X123649000Y-89367600D02*
X120351000Y-89367600D01*
X123714000Y-89327600D02*
X120286000Y-89327600D01*
X123775000Y-89287600D02*
X120225000Y-89287600D01*
X123834000Y-89247600D02*
X120166000Y-89247600D01*
X123839000Y-83067359D02*
X123839000Y-83697359D01*
X123890000Y-89207600D02*
X120110000Y-89207600D01*
X123943000Y-89167600D02*
X120057000Y-89167600D01*
X123995000Y-89127600D02*
X120005000Y-89127600D01*
X124044000Y-89087600D02*
X119956000Y-89087600D01*
X124091000Y-89047600D02*
X119909000Y-89047600D01*
X124137000Y-89007600D02*
X119863000Y-89007600D01*
X124154000Y-83382359D02*
X123524000Y-83382359D01*
X124181000Y-88967600D02*
X119819000Y-88967600D01*
X124223000Y-88927600D02*
X119777000Y-88927600D01*
X124264000Y-88887600D02*
X119736000Y-88887600D01*
X124304000Y-88847600D02*
X123040000Y-88847600D01*
X124342000Y-88807600D02*
X123040000Y-88807600D01*
X124379000Y-88767600D02*
X123040000Y-88767600D01*
X124415000Y-88727600D02*
X123040000Y-88727600D01*
X124450000Y-88687600D02*
X123040000Y-88687600D01*
X124483000Y-88647600D02*
X123040000Y-88647600D01*
X124516000Y-88607600D02*
X123040000Y-88607600D01*
X124547000Y-88567600D02*
X123040000Y-88567600D01*
X124577000Y-88527600D02*
X123040000Y-88527600D01*
X124607000Y-88487600D02*
X123040000Y-88487600D01*
X124636000Y-88447600D02*
X123040000Y-88447600D01*
X124663000Y-88407600D02*
X123040000Y-88407600D01*
X124690000Y-88367600D02*
X123040000Y-88367600D01*
X124716000Y-88327600D02*
X123040000Y-88327600D01*
X124741000Y-88287600D02*
X123040000Y-88287600D01*
X124765000Y-88247600D02*
X123040000Y-88247600D01*
X124789000Y-88207600D02*
X123040000Y-88207600D01*
X124812000Y-88167600D02*
X123040000Y-88167600D01*
X124834000Y-88127600D02*
X123040000Y-88127600D01*
X124855000Y-88087600D02*
X123040000Y-88087600D01*
X124876000Y-88047600D02*
X123040000Y-88047600D01*
X124896000Y-88007600D02*
X123040000Y-88007600D01*
X124915000Y-87967600D02*
X123040000Y-87967600D01*
X124934000Y-87927600D02*
X123040000Y-87927600D01*
X124952000Y-87887600D02*
X123040000Y-87887600D01*
X124969000Y-87847600D02*
X123040000Y-87847600D01*
X124986000Y-87807600D02*
X123040000Y-87807600D01*
X125002000Y-87767600D02*
X123040000Y-87767600D01*
X125017000Y-87727600D02*
X123040000Y-87727600D01*
X125032000Y-87687600D02*
X123040000Y-87687600D01*
X125047000Y-87647600D02*
X123040000Y-87647600D01*
X125060000Y-87607600D02*
X123040000Y-87607600D01*
X125073000Y-87567600D02*
X123040000Y-87567600D01*
X125086000Y-87527600D02*
X123040000Y-87527600D01*
X125098000Y-87487600D02*
X123040000Y-87487600D01*
X125109000Y-87447600D02*
X123040000Y-87447600D01*
X125120000Y-87407600D02*
X123040000Y-87407600D01*
X125131000Y-87367600D02*
X123040000Y-87367600D01*
X125140000Y-87327600D02*
X123040000Y-87327600D01*
X125150000Y-87287600D02*
X123040000Y-87287600D01*
X125159000Y-87247600D02*
X123040000Y-87247600D01*
X125167000Y-87207600D02*
X123040000Y-87207600D01*
X125174000Y-87167600D02*
X123040000Y-87167600D01*
X125182000Y-87127600D02*
X123040000Y-87127600D01*
X125188000Y-87087600D02*
X123040000Y-87087600D01*
X125195000Y-87047600D02*
X123040000Y-87047600D01*
X125200000Y-87007600D02*
X123040000Y-87007600D01*
X125205000Y-86967600D02*
X123040000Y-86967600D01*
X125210000Y-86927600D02*
X123040000Y-86927600D01*
X125214000Y-86887600D02*
X123040000Y-86887600D01*
X125218000Y-86847600D02*
X123040000Y-86847600D01*
X125221000Y-86807600D02*
X123040000Y-86807600D01*
X125224000Y-86767600D02*
X118776000Y-86767600D01*
X125226000Y-86727600D02*
X118774000Y-86727600D01*
X125228000Y-86687600D02*
X118772000Y-86687600D01*
X125229000Y-86647600D02*
X118771000Y-86647600D01*
X125230000Y-86567600D02*
X118770000Y-86567600D01*
X125230000Y-86607600D02*
X118770000Y-86607600D01*
X125270000Y-86567600D02*
G75*
G02*
X118730000Y-86567600I-3270000J0D01*
G01*
X118730000Y-86567600D02*
G75*
G02*
X125270000Y-86567600I3270000J0D01*
G01*
%TO.C,C5*%
X153930000Y-101730000D02*
X153930000Y-106270000D01*
X153986000Y-101730000D02*
X153930000Y-101730000D01*
X153986000Y-106270000D02*
X153930000Y-106270000D01*
X156070000Y-101730000D02*
X156070000Y-106270000D01*
%TO.C,R3*%
X142500000Y-118870000D02*
X142500000Y-121480000D01*
X143870000Y-117500000D02*
G75*
G02*
X141130000Y-117500000I-1370000J0D01*
G01*
X141130000Y-117500000D02*
G75*
G02*
X143870000Y-117500000I1370000J0D01*
G01*
%TD*%
M02*
