%TF.GenerationSoftware,KiCad,Pcbnew,9.0.1*%
%TF.CreationDate,2025-04-18T11:59:30+09:00*%
%TF.ProjectId,Langstone-controller,4c616e67-7374-46f6-9e65-2d636f6e7472,rev?*%
%TF.SameCoordinates,Original*%
%TF.FileFunction,Copper,L2,Bot*%
%TF.FilePolarity,Positive*%
%FSLAX46Y46*%
G04 Gerber Fmt 4.6, Leading zero omitted, Abs format (unit mm)*
G04 Created by KiCad (PCBNEW 9.0.1) date 2025-04-18 11:59:30*
%MOMM*%
%LPD*%
G01*
G04 APERTURE LIST*
G04 Aperture macros list*
%AMRoundRect*
0 Rectangle with rounded corners*
0 $1 Rounding radius*
0 $2 $3 $4 $5 $6 $7 $8 $9 X,Y pos of 4 corners*
0 Add a 4 corners polygon primitive as box body*
4,1,4,$2,$3,$4,$5,$6,$7,$8,$9,$2,$3,0*
0 Add four circle primitives for the rounded corners*
1,1,$1+$1,$2,$3*
1,1,$1+$1,$4,$5*
1,1,$1+$1,$6,$7*
1,1,$1+$1,$8,$9*
0 Add four rect primitives between the rounded corners*
20,1,$1+$1,$2,$3,$4,$5,0*
20,1,$1+$1,$4,$5,$6,$7,0*
20,1,$1+$1,$6,$7,$8,$9,0*
20,1,$1+$1,$8,$9,$2,$3,0*%
G04 Aperture macros list end*
%TA.AperFunction,ComponentPad*%
%ADD10RoundRect,0.250000X-0.845000X0.620000X-0.845000X-0.620000X0.845000X-0.620000X0.845000X0.620000X0*%
%TD*%
%TA.AperFunction,ComponentPad*%
%ADD11O,2.190000X1.740000*%
%TD*%
%TA.AperFunction,ComponentPad*%
%ADD12R,1.600000X1.600000*%
%TD*%
%TA.AperFunction,ComponentPad*%
%ADD13O,1.600000X1.600000*%
%TD*%
%TA.AperFunction,ComponentPad*%
%ADD14C,1.600000*%
%TD*%
%TA.AperFunction,ComponentPad*%
%ADD15C,2.600000*%
%TD*%
%TA.AperFunction,ComponentPad*%
%ADD16RoundRect,0.250000X0.845000X-0.620000X0.845000X0.620000X-0.845000X0.620000X-0.845000X-0.620000X0*%
%TD*%
%TA.AperFunction,ComponentPad*%
%ADD17C,5.000000*%
%TD*%
%TA.AperFunction,ComponentPad*%
%ADD18R,1.500000X1.600000*%
%TD*%
%TA.AperFunction,ComponentPad*%
%ADD19C,3.000000*%
%TD*%
%TA.AperFunction,ComponentPad*%
%ADD20RoundRect,0.250000X0.550000X-0.550000X0.550000X0.550000X-0.550000X0.550000X-0.550000X-0.550000X0*%
%TD*%
%TA.AperFunction,Conductor*%
%ADD21C,2.000000*%
%TD*%
%TA.AperFunction,Conductor*%
%ADD22C,1.000000*%
%TD*%
%TA.AperFunction,Conductor*%
%ADD23C,0.250000*%
%TD*%
G04 APERTURE END LIST*
D10*
%TO.P,J6,1,Pin_1*%
%TO.N,GND*%
X113980000Y-114225000D03*
D11*
%TO.P,J6,2,Pin_2*%
%TO.N,Net-(D1-K)*%
X113980000Y-116765000D03*
%TD*%
D12*
%TO.P,D1,1,K*%
%TO.N,Net-(D1-K)*%
X121000000Y-107310000D03*
D13*
%TO.P,D1,2,A*%
%TO.N,Net-(D1-A)*%
X121000000Y-99690000D03*
%TD*%
D12*
%TO.P,C6,1*%
%TO.N,Net-(C5-Pad1)*%
X147000000Y-102317600D03*
D14*
%TO.P,C6,2*%
%TO.N,GND*%
X147000000Y-104817600D03*
%TD*%
D15*
%TO.P,L2,1,1*%
%TO.N,Net-(J1-VBUS)*%
X133000000Y-104000000D03*
%TO.P,L2,2,2*%
%TO.N,Net-(C5-Pad1)*%
X138000000Y-104000000D03*
%TD*%
D16*
%TO.P,J4,1,Pin_1*%
%TO.N,Net-(J4-Pin_1)*%
X164500000Y-124620000D03*
D11*
%TO.P,J4,2,Pin_2*%
%TO.N,Net-(J4-Pin_2)*%
X164500000Y-122080000D03*
%TO.P,J4,3,Pin_3*%
%TO.N,GND*%
X164500000Y-119540000D03*
%TO.P,J4,4,Pin_4*%
%TO.N,Net-(J4-Pin_4)*%
X164500000Y-117000000D03*
%TD*%
D14*
%TO.P,R1,1*%
%TO.N,Net-(D1-A)*%
X126500000Y-105815000D03*
D13*
%TO.P,R1,2*%
%TO.N,Net-(J1-VBUS)*%
X126500000Y-100735000D03*
%TD*%
D15*
%TO.P,L1,1,1*%
%TO.N,+5V*%
X129500000Y-86500000D03*
%TO.P,L1,2,2*%
%TO.N,Net-(J1-VBUS)*%
X134500000Y-86500000D03*
%TD*%
D12*
%TO.P,C3,1*%
%TO.N,Net-(J1-VBUS)*%
X142000000Y-85000000D03*
D14*
%TO.P,C3,2*%
%TO.N,GND*%
X142000000Y-87500000D03*
%TD*%
%TO.P,R2,1*%
%TO.N,Net-(J4-Pin_2)*%
X147500000Y-122080000D03*
D13*
%TO.P,R2,2*%
%TO.N,Net-(J4-Pin_1)*%
X147500000Y-117000000D03*
%TD*%
D17*
%TO.P,H3,1,1*%
%TO.N,+5V*%
X114000000Y-87000000D03*
%TD*%
D14*
%TO.P,C4,1*%
%TO.N,Net-(J1-VBUS)*%
X148000000Y-84000000D03*
%TO.P,C4,2*%
%TO.N,GND*%
X148000000Y-89000000D03*
%TD*%
D18*
%TO.P,J1,1,VBUS*%
%TO.N,Net-(J1-VBUS)*%
X154640000Y-92000000D03*
D14*
%TO.P,J1,2,D-*%
%TO.N,unconnected-(J1-D--Pad2)*%
X154640000Y-89500000D03*
%TO.P,J1,3,D+*%
%TO.N,unconnected-(J1-D+-Pad3)*%
X154640000Y-87500000D03*
%TO.P,J1,4,GND*%
%TO.N,GND*%
X154640000Y-85000000D03*
D19*
%TO.P,J1,5,Shield*%
X157350000Y-95070000D03*
X157350000Y-81930000D03*
%TD*%
D16*
%TO.P,J5,1,Pin_1*%
%TO.N,Net-(J4-Pin_4)*%
X164520000Y-111000000D03*
D11*
%TO.P,J5,2,Pin_2*%
%TO.N,GND*%
X164520000Y-108460000D03*
%TD*%
D20*
%TO.P,U1,1*%
%TO.N,Net-(D1-A)*%
X129190000Y-123805000D03*
D14*
%TO.P,U1,2*%
%TO.N,GND*%
X131730000Y-123805000D03*
%TO.P,U1,3*%
%TO.N,Net-(J4-Pin_2)*%
X134270000Y-123805000D03*
%TO.P,U1,4*%
%TO.N,GND*%
X136810000Y-123805000D03*
%TO.P,U1,5*%
X136810000Y-116185000D03*
%TO.P,U1,6*%
%TO.N,Net-(D1-K)*%
X134270000Y-116185000D03*
%TO.P,U1,7*%
%TO.N,Net-(J3-Pin_1)*%
X131730000Y-116185000D03*
%TO.P,U1,8*%
%TO.N,Net-(C5-Pad1)*%
X129190000Y-116185000D03*
%TD*%
%TO.P,C1,1*%
%TO.N,+5V*%
X114000000Y-93500000D03*
%TO.P,C1,2*%
%TO.N,GND*%
X114000000Y-98500000D03*
%TD*%
D16*
%TO.P,J3,1,Pin_1*%
%TO.N,Net-(J3-Pin_1)*%
X164500000Y-102540000D03*
D11*
%TO.P,J3,2,Pin_2*%
%TO.N,GND*%
X164500000Y-100000000D03*
%TD*%
D12*
%TO.P,C2,1*%
%TO.N,+5V*%
X122000000Y-85317600D03*
D14*
%TO.P,C2,2*%
%TO.N,GND*%
X122000000Y-87817600D03*
%TD*%
D17*
%TO.P,H4,1,1*%
%TO.N,GND*%
X114000000Y-104000000D03*
%TD*%
D14*
%TO.P,C5,1*%
%TO.N,Net-(C5-Pad1)*%
X155000000Y-101500000D03*
%TO.P,C5,2*%
%TO.N,GND*%
X155000000Y-106500000D03*
%TD*%
%TO.P,R3,1*%
%TO.N,Net-(J4-Pin_4)*%
X142500000Y-117500000D03*
D13*
%TO.P,R3,2*%
%TO.N,Net-(J4-Pin_1)*%
X142500000Y-122580000D03*
%TD*%
D21*
%TO.N,GND*%
X114000000Y-104000000D02*
X114000000Y-98500000D01*
X122000000Y-90500000D02*
X122000000Y-87817600D01*
X157350000Y-81930000D02*
X160500000Y-85080000D01*
D22*
X157350000Y-95070000D02*
X157350000Y-104150000D01*
D21*
X157350000Y-81930000D02*
X154640000Y-81930000D01*
D22*
X113980000Y-114225000D02*
X114000000Y-114205000D01*
X136810000Y-120500000D02*
X136810000Y-116185000D01*
X164500000Y-119540000D02*
X161540000Y-119540000D01*
X131730000Y-121270000D02*
X132500000Y-120500000D01*
X155000000Y-113000000D02*
X155000000Y-106500000D01*
D21*
X160500000Y-91920000D02*
X157350000Y-95070000D01*
D22*
X155000000Y-106500000D02*
X157350000Y-104150000D01*
D21*
X114000000Y-98500000D02*
X122000000Y-90500000D01*
D22*
X154640000Y-84640000D02*
X154640000Y-85000000D01*
D21*
X160500000Y-85080000D02*
X160500000Y-91920000D01*
D22*
X132500000Y-120500000D02*
X136810000Y-120500000D01*
D21*
X154640000Y-81930000D02*
X154640000Y-84640000D01*
D22*
X131730000Y-123805000D02*
X131730000Y-121270000D01*
X136810000Y-116185000D02*
X147000000Y-105995000D01*
X147000000Y-104817600D02*
X147000000Y-104818000D01*
X114000000Y-114205000D02*
X114000000Y-104000000D01*
X136810000Y-123805000D02*
X136810000Y-116185000D01*
X161540000Y-119540000D02*
X155000000Y-113000000D01*
X147000000Y-105995000D02*
X147000000Y-104818000D01*
D21*
%TO.N,+5V*%
X114000000Y-87000000D02*
X114000000Y-93500000D01*
%TO.N,Net-(J1-VBUS)*%
X150500000Y-88936700D02*
X150500000Y-85500000D01*
X154640000Y-92000000D02*
X153563300Y-92000000D01*
X133000000Y-88000000D02*
X134500000Y-86500000D01*
X153563300Y-92000000D02*
X150500000Y-88936700D01*
X150500000Y-85500000D02*
X149000000Y-84000000D01*
X133000000Y-104000000D02*
X133000000Y-88000000D01*
X149000000Y-84000000D02*
X148000000Y-84000000D01*
D22*
%TO.N,Net-(C5-Pad1)*%
X129190000Y-112810000D02*
X138000000Y-104000000D01*
X129190000Y-116185000D02*
X129190000Y-112810000D01*
D23*
%TO.N,Net-(D1-K)*%
X117235000Y-116765000D02*
X121000000Y-113000000D01*
X113980000Y-116765000D02*
X117235000Y-116765000D01*
X121000000Y-113000000D02*
X121000000Y-107310000D01*
%TO.N,Net-(D1-A)*%
X126500000Y-105815000D02*
X123815000Y-105815000D01*
X122190000Y-99690000D02*
X121000000Y-99690000D01*
X123815000Y-105815000D02*
X122500000Y-104500000D01*
X122500000Y-104500000D02*
X122500000Y-100000000D01*
X126500000Y-121115000D02*
X126500000Y-105815000D01*
X129190000Y-123805000D02*
X126500000Y-121115000D01*
X122500000Y-100000000D02*
X122190000Y-99690000D01*
%TO.N,Net-(J4-Pin_4)*%
X164500000Y-116500000D02*
X165000000Y-117000000D01*
X164520000Y-111270000D02*
X164520000Y-111000000D01*
X164750000Y-111500000D02*
X164520000Y-111270000D01*
X165000000Y-111500000D02*
X164750000Y-111500000D01*
X165000000Y-111000000D02*
X165000000Y-111500000D01*
X164750000Y-111500000D02*
X164500000Y-111500000D01*
%TO.N,Net-(J4-Pin_1)*%
X147226500Y-117000000D02*
X147500000Y-117000000D01*
X142500000Y-122580000D02*
X142500000Y-121453000D01*
X142773500Y-121453000D02*
X142500000Y-121453000D01*
X146953000Y-117000000D02*
X147226500Y-117000000D01*
X147226500Y-117000000D02*
X142773500Y-121453000D01*
%TD*%
M02*
